<?xml version="1.0" encoding="utf-8"?>
<!-- Generator: Adobe Illustrator 27.0.0, SVG Export Plug-In . SVG Version: 6.00 Build 0)  -->
<svg version="1.1" id="Layer_1" xmlns="http://www.w3.org/2000/svg" xmlns:xlink="http://www.w3.org/1999/xlink" x="0px" y="0px"
	 viewBox="0 0 58.7 88" style="enable-background:new 0 0 58.7 88;" xml:space="preserve">
<style type="text/css">
	.st0{fill:none;stroke:#FFDDC9;stroke-width:4;stroke-linecap:round;stroke-miterlimit:10;}
</style>
<path class="st0" d="M30.2,2L30.2,2c0,0,20.9,0.5,22.5,19.8c0,15.7-12.1,17.6-12.1,17.9S56.7,41,56.7,61.4
	c0,17.8-18.8,22.9-18.8,22.9 M22.3,2.8c0,0-15.6,3.8-17.5,21h14.7c0,0,2.4-7.3,9.5-7.3s8.5,7.3,8.5,7.3S38,34.2,23.8,34.2v13
	c0,0,18.1-0.9,18.1,12S30.2,71.8,30.2,71.8s-13-0.3-13-12.6H2C2,59.1,1.9,86,30.2,86"/>
</svg>
