<svg id="Layer_1" data-name="Layer 1" xmlns="http://www.w3.org/2000/svg" viewBox="0 0 58.72 88.01"><defs><style>.cls-1{fill:none;stroke:#9747ff;stroke-linecap:round;stroke-miterlimit:10;stroke-width:4px;}</style></defs><path class="cls-1" d="M30.17,2h0s20.88.45,22.45,19.83c0,15.74-12.1,17.61-12.1,17.88s16.2,1.34,16.2,21.71c0,17.82-18.82,22.86-18.82,22.86M22.32,2.85s-15.55,3.79-17.5,21H19.48s2.35-7.33,9.48-7.33,8.53,7.33,8.53,7.33S38,34.2,23.78,34.2v13s18.15-.94,18.15,12S30.17,71.77,30.17,71.77s-13-.26-13-12.63H2S1.93,86,30.17,86"/></svg>