<?xml version="1.0" encoding="utf-8"?>
<!-- Generator: Adobe Illustrator 27.0.0, SVG Export Plug-In . SVG Version: 6.00 Build 0)  -->
<svg version="1.1" id="Layer_1" xmlns="http://www.w3.org/2000/svg" xmlns:xlink="http://www.w3.org/1999/xlink" x="0px" y="0px"
	 viewBox="0 0 220.2 62.1" style="enable-background:new 0 0 220.2 62.1;" xml:space="preserve">
<style type="text/css">
	.st0{fill:#0A82B6;}
	.st1{fill:url(#SVGID_1_);}
	.st2{fill:url(#SVGID_00000135684194082691214160000013827655290085413055_);}
	.st3{fill:url(#SVGID_00000085224925328890247410000014954604083925452936_);}
	.st4{fill:url(#SVGID_00000166659862386600667190000017255610330708020612_);}
	.st5{fill:url(#SVGID_00000119078185618210543500000008930762806893622194_);}
	.st6{fill:#157293;}
</style>
<g id="Layer_2_00000036949485013437758700000003202212389231135120_">
	<g id="Layer_1-2">
		<path class="st0" d="M133.3,23.9v14.2c0,0.9-0.4,1.7-1,2.2c-4,3.5-24.1,13.1-125.3,21.8C-8.8,27.8,7,0,7,0
			c97.4,8.7,120,18.2,124.9,21.3C132.8,21.9,133.3,22.8,133.3,23.9z"/>
		
			<linearGradient id="SVGID_1_" gradientUnits="userSpaceOnUse" x1="145.6" y1="1019.34" x2="145.6" y2="1034.3832" gradientTransform="matrix(1 0 0 1 0 -1016)">
			<stop  offset="0" style="stop-color:#656565"/>
			<stop  offset="0.27" style="stop-color:#515151"/>
			<stop  offset="0.83" style="stop-color:#1E1E1E"/>
			<stop  offset="1" style="stop-color:#0D0D0D"/>
		</linearGradient>
		<path class="st1" d="M159.8,11c0,0-12.7-16-28.4-1.8c0,0,8,1.2,10.8,8.1C142.1,17.3,157.1,22.2,159.8,11z"/>
		
			<linearGradient id="SVGID_00000111156459782124536360000007014997706093274779_" gradientUnits="userSpaceOnUse" x1="144.5" y1="-900.2993" x2="144.5" y2="-885.2909" gradientTransform="matrix(1 0 0 -1 0 -841.5)">
			<stop  offset="0" style="stop-color:#656565"/>
			<stop  offset="0.27" style="stop-color:#515151"/>
			<stop  offset="0.83" style="stop-color:#1E1E1E"/>
			<stop  offset="1" style="stop-color:#0D0D0D"/>
		</linearGradient>
		<path style="fill:url(#SVGID_00000111156459782124536360000007014997706093274779_);" d="M158.7,51.1c0,0-12.7,16-28.4,1.8
			c0,0,8-1.2,10.8-8.1C141.1,44.8,156,40,158.7,51.1z"/>
		
			<linearGradient id="SVGID_00000163054595660978278480000014914377301876288386_" gradientUnits="userSpaceOnUse" x1="176.7366" y1="1025.7783" x2="176.7366" y2="1068.9464" gradientTransform="matrix(1 0 0 1 0 -1016)">
			<stop  offset="0" style="stop-color:#FFFFFF"/>
			<stop  offset="0.39" style="stop-color:#FDFDFD"/>
			<stop  offset="0.58" style="stop-color:#F5F5F5"/>
			<stop  offset="0.73" style="stop-color:#E8E8E8"/>
			<stop  offset="0.86" style="stop-color:#D6D6D6"/>
			<stop  offset="0.97" style="stop-color:#BEBEBE"/>
			<stop  offset="1" style="stop-color:#B5B5B5"/>
		</linearGradient>
		<path style="fill:url(#SVGID_00000163054595660978278480000014914377301876288386_);" d="M218.3,27.6c-12.1-9.8-46.4-31.8-85-5v17
			c0,0,35.9,32.6,84.9-4.1c2.2-1.7,2.6-4.8,1-7C218.9,28.2,218.6,27.9,218.3,27.6z"/>
		
			<linearGradient id="SVGID_00000153663303938778074500000004691624969110807958_" gradientUnits="userSpaceOnUse" x1="211.4723" y1="1034.74" x2="211.4723" y2="1059.77" gradientTransform="matrix(1 0 0 1 0 -1016)">
			<stop  offset="0" style="stop-color:#656565"/>
			<stop  offset="0.27" style="stop-color:#515151"/>
			<stop  offset="0.83" style="stop-color:#1E1E1E"/>
			<stop  offset="1" style="stop-color:#0D0D0D"/>
		</linearGradient>
		<path style="fill:url(#SVGID_00000153663303938778074500000004691624969110807958_);" d="M218.3,27.6c-7.8-6.4-13.2-8.9-13.2-8.9
			s-5.1,13,0.1,25c0,0,4.4-1.6,13.1-8.4c2.1-1.8,2.4-4.9,0.6-7C218.8,28,218.6,27.8,218.3,27.6z"/>
		
			<linearGradient id="SVGID_00000009579343761400070680000008122409367672541825_" gradientUnits="userSpaceOnUse" x1="181.8" y1="1035.17" x2="181.8" y2="1059.33" gradientTransform="matrix(1 0 0 1 0 -1016)">
			<stop  offset="0" style="stop-color:#BFBFBF"/>
			<stop  offset="0.15" style="stop-color:#CDCDCD"/>
			<stop  offset="0.48" style="stop-color:#E9E9E9"/>
			<stop  offset="0.78" style="stop-color:#F9F9F9"/>
			<stop  offset="1" style="stop-color:#FFFFFF"/>
		</linearGradient>
		<circle style="fill:url(#SVGID_00000009579343761400070680000008122409367672541825_);" cx="181.8" cy="31.2" r="12.1"/>
		
			<image style="overflow:visible;enable-background:new    ;" width="20" height="20" xlink:href="DA415FBB.png"  transform="matrix(1 0 0 1 171.75 21.46)">
		</image>
		<path class="st6" d="M133.3,22.7v16.8c0,0-6.6,8.2-17.1-2c0,0-3.2-3.5-13.5-6.4c10.3-3,13.5-6.4,13.5-6.4
			C126.7,14.4,133.3,22.7,133.3,22.7z"/>
	</g>
</g>
</svg>
