<?xml version="1.0" encoding="UTF-8" standalone="no"?>
<!-- Generator: Adobe Illustrator 27.0.0, SVG Export Plug-In . SVG Version: 6.00 Build 0)  -->

<svg
   version="1.1"
   id="Layer_1"
   x="0px"
   y="0px"
   viewBox="0 0 75 75"
   style="enable-background:new 0 0 75 75;"
   xml:space="preserve"
   sodipodi:docname="square-trustless.svg"
   inkscape:version="1.2.2 (b0a8486541, 2022-12-01)"
   xmlns:inkscape="http://www.inkscape.org/namespaces/inkscape"
   xmlns:sodipodi="http://sodipodi.sourceforge.net/DTD/sodipodi-0.dtd"
   xmlns="http://www.w3.org/2000/svg"
   xmlns:svg="http://www.w3.org/2000/svg"><defs
   id="defs272"><pattern
     id="EMFhbasepattern"
     patternUnits="userSpaceOnUse"
     width="6"
     height="6"
     x="0"
     y="0" /></defs><sodipodi:namedview
   id="namedview270"
   pagecolor="#ffffff"
   bordercolor="#000000"
   borderopacity="0.25"
   inkscape:showpageshadow="2"
   inkscape:pageopacity="0.0"
   inkscape:pagecheckerboard="0"
   inkscape:deskcolor="#d1d1d1"
   showgrid="false"
   inkscape:zoom="1.4142136"
   inkscape:cx="43.487067"
   inkscape:cy="93.338095"
   inkscape:window-width="2560"
   inkscape:window-height="1494"
   inkscape:window-x="-11"
   inkscape:window-y="-11"
   inkscape:window-maximized="1"
   inkscape:current-layer="Layer_1" />
<style
   type="text/css"
   id="style253">
	.st0{fill:#181A2D;}
	.st1{fill:none;stroke:#BFA38A;}
	.st2{fill:none;}
</style>
<g
   id="g259">
	<path
   class="st0"
   d="M14,0h47c5.5,0,10,4.5,10,10v47c0,5.5-4.5,10-10,10H14C8.5,67,4,62.5,4,57V10C4,4.5,8.5,0,14,0z"
   id="path255" />
	<path
   class="st1"
   d="M14,0.5h47c5.2,0,9.5,4.3,9.5,9.5v47c0,5.2-4.3,9.5-9.5,9.5H14c-5.2,0-9.5-4.3-9.5-9.5V10   C4.5,4.8,8.8,0.5,14,0.5z"
   id="path257" />
</g>


<path
   style="fill:#bfa38a;fill-opacity:1;stroke-width:0.00482279"
   d="m 42.034114,36.81597 c -0.07931,-0.02272 -0.160462,-0.06275 -0.180297,-0.08897 -0.01983,-0.02622 -0.15776,-0.113235 -0.306505,-0.193368 -0.148745,-0.08013 -0.270449,-0.171438 -0.270449,-0.202898 0,-0.03146 -0.04969,-0.0572 -0.110437,-0.0572 -0.0607,0 -0.129121,-0.04997 -0.151951,-0.111058 -0.02285,-0.06108 -0.07898,-0.111059 -0.124682,-0.111059 -0.04577,0 -0.163978,-0.07668 -0.262731,-0.170399 -0.09876,-0.09372 -0.236359,-0.192627 -0.305771,-0.219794 -0.06944,-0.02716 -0.126208,-0.08376 -0.126208,-0.125755 0,-0.042 -0.04871,-0.07636 -0.108176,-0.07636 -0.05948,0 -0.108185,-0.02662 -0.108185,-0.05916 0,-0.03253 -0.128934,-0.140817 -0.286531,-0.240626 -0.157598,-0.09981 -0.287412,-0.20646 -0.288473,-0.237001 -8.16e-4,-0.03054 -0.03443,-0.05553 -0.07409,-0.05553 -0.03965,0 -0.130321,-0.05831 -0.201462,-0.129568 -0.07115,-0.07126 -0.219812,-0.196203 -0.330387,-0.277646 -0.110576,-0.08145 -0.268287,-0.206383 -0.350468,-0.277645 -0.08218,-0.07126 -0.185429,-0.129568 -0.229448,-0.129568 -0.04398,0 -0.140953,-0.0833 -0.215423,-0.185098 -0.07449,-0.101803 -0.17953,-0.185097 -0.233471,-0.185097 -0.05393,0 -0.09808,-0.03107 -0.09808,-0.06905 0,-0.03798 -0.0718,-0.09244 -0.159531,-0.121029 -0.08774,-0.02859 -0.21991,-0.130787 -0.293712,-0.227106 -0.07376,-0.09632 -0.180508,-0.175125 -0.237126,-0.175125 -0.05663,0 -0.102938,-0.03331 -0.102938,-0.07404 0,-0.04072 -0.07107,-0.07404 -0.157924,-0.07404 -0.101241,0 -0.379523,0.224267 -0.775283,0.624789 -0.638533,0.646223 -1.520923,1.524762 -2.137842,2.128507 -0.195032,0.190869 -0.396453,0.399103 -0.447596,0.462743 -0.0933,0.116091 -0.486679,0.152703 -0.777951,0.07241 -0.190594,-0.05255 -0.391142,-0.39787 -0.391142,-0.673523 0,-0.231405 0.162069,-0.517133 0.388849,-0.685553 0.07898,-0.05869 0.39013,-0.358544 0.69134,-0.66635 0.301218,-0.307807 0.708768,-0.714303 0.905677,-0.903325 0.196901,-0.189023 0.422906,-0.429034 0.502239,-0.533359 0.07931,-0.104323 0.170555,-0.19122 0.202719,-0.193104 0.03215,-0.0018 0.272065,-0.220539 0.533098,-0.485903 0.261041,-0.265363 0.551146,-0.502197 0.644677,-0.526298 0.09354,-0.0241 0.170064,-0.07352 0.170064,-0.109831 0,-0.0363 0.175499,-0.06602 0.39,-0.06602 0.415391,0 0.932562,0.220893 1.272578,0.543547 0.09705,0.0921 0.23325,0.189674 0.302662,0.216841 0.06944,0.02716 0.126208,0.08376 0.126208,0.125755 0,0.042 0.04871,0.07636 0.108185,0.07636 0.05948,0 0.108176,0.02662 0.108176,0.05916 0,0.03253 0.128942,0.140817 0.286531,0.240626 0.157598,0.09981 0.287413,0.206459 0.288481,0.237001 8.16e-4,0.03054 0.05059,0.05553 0.110119,0.05553 0.05948,0 0.108176,0.02691 0.108176,0.05978 0,0.05638 0.614471,0.532525 0.687236,0.532525 0.01869,0 0.09557,0.0583 0.170881,0.129568 0.407827,0.385904 0.503536,0.462742 0.576399,0.462742 0.04398,0 0.07996,0.03108 0.07996,0.06905 0,0.03798 0.0718,0.09244 0.159532,0.12103 0.08775,0.02859 0.21991,0.130787 0.293711,0.227106 0.07384,0.09632 0.177033,0.175126 0.229408,0.175126 0.05238,0 0.113912,0.04997 0.136742,0.111058 0.02285,0.06108 0.07931,0.111058 0.125466,0.111058 0.04618,0 0.147284,0.07496 0.224683,0.166588 0.129073,0.152778 0.202792,0.166588 0.88931,0.166588 h 0.748569 l 0.291084,-0.330212 c 0.160103,-0.181616 0.291092,-0.389851 0.291092,-0.462744 0,-0.07289 0.03247,-0.132531 0.07213,-0.132531 0.04112,0 0.07213,-0.22081 0.07213,-0.514354 0,-0.571637 -0.176306,-1.012697 -0.575289,-1.439164 -0.790435,-0.844879 -1.775992,-1.911895 -2.237345,-2.422256 -1.503071,-1.662737 -2.857625,-3.089615 -3.137768,-3.305287 -0.118669,-0.09136 -0.34558,-0.265883 -0.504238,-0.38782 -0.158666,-0.121937 -0.320931,-0.247089 -0.360593,-0.278115 -0.03965,-0.03103 -0.201936,-0.123049 -0.360602,-0.204492 -0.158658,-0.08144 -0.305028,-0.170424 -0.325255,-0.197737 -0.02023,-0.02732 -0.125703,-0.07257 -0.234385,-0.100574 -0.108682,-0.028 -0.197603,-0.07404 -0.197603,-0.102303 0,-0.02826 -0.170383,-0.11288 -0.378625,-0.188038 -0.208242,-0.07516 -0.411083,-0.161267 -0.450746,-0.191352 -0.03965,-0.03009 -0.210045,-0.07805 -0.378625,-0.106598 -0.16858,-0.02855 -0.306505,-0.08229 -0.306505,-0.119431 0,-0.03714 -0.1071,-0.06753 -0.237992,-0.06753 -0.1309,0 -0.278584,-0.04165 -0.328192,-0.09255 -0.129832,-0.133226 -4.002648,-0.133226 -4.13239,0 -0.04953,0.0509 -0.229677,0.09255 -0.400239,0.09255 -0.170555,0 -0.310112,0.02978 -0.310112,0.06617 0,0.0364 -0.292079,0.08991 -0.649066,0.118919 -0.356987,0.02901 -0.649075,0.07898 -0.649075,0.111059 0,0.03207 -0.2923,0.08207 -0.649564,0.111098 -0.357264,0.02903 -0.66749,0.08254 -0.68939,0.118919 -0.02187,0.03638 -0.182026,0.06614 -0.355836,0.06614 -0.173818,0 -0.333268,0.02864 -0.354335,0.06364 -0.02105,0.035 -0.279849,0.08611 -0.575062,0.113573 -0.43206,0.0402 -0.594203,0.02438 -0.831369,-0.0811 -0.162045,-0.07207 -0.294626,-0.153849 -0.294626,-0.181729 0,-0.02788 -0.09736,-0.07264 -0.216357,-0.09948 -0.118996,-0.02683 -0.216357,-0.07681 -0.216357,-0.111058 0,-0.03425 -0.09736,-0.08423 -0.216356,-0.111059 -0.118997,-0.02683 -0.216357,-0.07945 -0.216357,-0.116942 0,-0.03749 -0.0568,-0.06921 -0.126209,-0.07051 -0.06941,-0.0013 -0.189204,-0.05127 -0.2662,-0.111059 -0.077,-0.05978 -0.198696,-0.108704 -0.270446,-0.108704 -0.07175,0 -0.130454,-0.03067 -0.130454,-0.06816 0,-0.03749 -0.09736,-0.09011 -0.216357,-0.116942 -0.118996,-0.02683 -0.216357,-0.07945 -0.216357,-0.116941 0,-0.03749 -0.04868,-0.06815 -0.108178,-0.06815 -0.0595,0 -0.108178,-0.03332 -0.108178,-0.07404 0,-0.04072 -0.04057,-0.07417 -0.09015,-0.07432 -0.04959,-1.48e-4 -0.28487,-0.09998 -0.522862,-0.221838 -0.237993,-0.121858 -0.473281,-0.221685 -0.522863,-0.221838 -0.04958,-1.55e-4 -0.09015,-0.02999 -0.09015,-0.06629 0,-0.0363 -0.08892,-0.08892 -0.197604,-0.116928 -0.108683,-0.028 -0.214157,-0.07569 -0.234386,-0.105969 -0.03556,-0.05322 -0.728658,-0.402382 -1.208716,-0.608908 -0.128912,-0.05546 -0.234386,-0.123372 -0.234386,-0.150918 0,-0.02754 -0.09736,-0.07204 -0.216357,-0.09887 -0.118997,-0.02683 -0.216357,-0.07681 -0.216357,-0.111058 0,-0.03425 -0.09736,-0.08423 -0.216357,-0.111059 -0.118996,-0.02683 -0.216357,-0.07159 -0.216357,-0.09947 0,-0.06433 -0.542295,-0.307739 -0.685625,-0.307739 -0.05923,0 -0.107991,-0.02499 -0.108366,-0.05553 -3.61e-4,-0.03054 -0.146417,-0.121302 -0.324536,-0.201691 -0.178118,-0.08039 -0.323852,-0.1684 -0.323852,-0.19558 0,-0.02718 -0.08892,-0.07233 -0.197605,-0.100335 -0.108682,-0.028 -0.214156,-0.07326 -0.234386,-0.100575 -0.05814,-0.07849 -0.571484,-0.308795 -0.688299,-0.308795 -0.05815,0 -0.105732,-0.03067 -0.105732,-0.06816 0,-0.03749 -0.09736,-0.09011 -0.216357,-0.116941 -0.118996,-0.02683 -0.216357,-0.07945 -0.216357,-0.116941 0,-0.03749 -0.04868,-0.06816 -0.108178,-0.06816 -0.0595,0 -0.108178,-0.03067 -0.108178,-0.06816 0,-0.03749 -0.09736,-0.09011 -0.216357,-0.116942 -0.118997,-0.02683 -0.216357,-0.07945 -0.216357,-0.116941 0,-0.03749 -0.04057,-0.06891 -0.09015,-0.06982 -0.04958,-9.22e-4 -0.28487,-0.100118 -0.522862,-0.220458 -0.237993,-0.120339 -0.470576,-0.219545 -0.516853,-0.220457 -0.04628,-9.22e-4 -0.09496,-0.02665 -0.108179,-0.05719 -0.03513,-0.08115 -0.907322,-0.536781 -1.027535,-0.536781 -0.05628,0 -0.113146,-0.02499 -0.126367,-0.05553 -0.03787,-0.08748 -0.466799,-0.314665 -0.594089,-0.314665 -0.06329,0 -0.115081,-0.0297 -0.115081,-0.06602 0,-0.0363 -0.08892,-0.08892 -0.197605,-0.116928 -0.108682,-0.028 -0.214156,-0.07326 -0.234386,-0.100574 -0.06954,-0.09389 -0.491867,-0.308796 -0.606832,-0.308796 -0.06329,0 -0.11508,-0.03331 -0.11508,-0.07404 0,-0.04072 -0.04756,-0.07404 -0.105692,-0.07404 -0.05813,0 -0.2041719,-0.09883 -0.324535,-0.219621 -0.1744522,-0.175072 -0.2188438,-0.282183 -0.2188438,-0.52804 0,-0.257738 0.042322,-0.349395 0.2575516,-0.557786 0.2436522,-0.235911 0.6078752,-0.340965 0.6078752,-0.17533 0,0.04072 0.04057,0.07478 0.09015,0.0757 0.04958,9.22e-4 0.28487,0.100119 0.522862,0.220458 0.237993,0.12034 0.473281,0.219545 0.522863,0.220458 0.04958,9.21e-4 0.09015,0.03233 0.09015,0.06982 0,0.03749 0.09736,0.09011 0.216357,0.116942 0.118997,0.02683 0.216357,0.07945 0.216357,0.11694 0,0.03749 0.04868,0.06816 0.108179,0.06816 0.0595,0 0.108178,0.03331 0.108178,0.07404 0,0.04072 0.04057,0.07479 0.09015,0.0757 0.04958,9.22e-4 0.28487,0.100118 0.522862,0.220457 0.237993,0.12034 0.473281,0.219546 0.522862,0.220458 0.04958,9.22e-4 0.09015,0.03136 0.09015,0.06767 0,0.0363 0.08892,0.08892 0.197605,0.116929 0.108683,0.028 0.214157,0.07569 0.234387,0.105968 0.0508,0.07603 0.966138,0.525518 1.070176,0.525518 0.04645,0 0.08445,0.02546 0.08445,0.05657 0,0.05946 0.526412,0.313621 0.649565,0.313621 0.03939,0 0.07162,0.03067 0.07162,0.06816 0,0.03749 0.09736,0.09011 0.216357,0.116942 0.118996,0.02683 0.216357,0.07945 0.216357,0.11694 0,0.03749 0.06491,0.06816 0.144238,0.06816 0.07933,0 0.144238,0.03067 0.144238,0.06815 0,0.03749 0.09736,0.09011 0.216357,0.116941 0.118996,0.02683 0.216357,0.07212 0.216357,0.100642 0,0.02852 0.162267,0.116503 0.360595,0.195514 0.198327,0.07901 0.360594,0.169639 0.360594,0.201396 0,0.03176 0.03223,0.05774 0.07162,0.05774 0.116411,0 0.649566,0.252588 0.649566,0.307739 0,0.02788 0.09736,0.07264 0.216357,0.09947 0.118996,0.02683 0.216357,0.07945 0.216357,0.116941 0,0.03749 0.04057,0.06879 0.09015,0.06956 0.04958,7.72e-4 0.382231,0.150479 0.73922,0.332683 0.356988,0.182204 0.689637,0.331501 0.739218,0.331771 0.04958,2.7e-4 0.09015,0.03381 0.09015,0.07453 0,0.04072 0.04868,0.07404 0.108178,0.07404 0.0595,0 0.108178,0.03331 0.108178,0.07404 0,0.04072 0.03394,0.07404 0.07542,0.07404 0.04148,0 0.375629,0.14993 0.742546,0.333176 0.366916,0.183246 0.703486,0.333175 0.747933,0.333175 0.04444,0 0.09163,0.02499 0.104853,0.05553 0.03587,0.08284 0.910922,0.536781 1.034759,0.536781 0.05892,0 0.107124,0.03331 0.107124,0.07404 0,0.04072 0.06491,0.07404 0.144238,0.07404 0.07933,0 0.144238,0.03067 0.144238,0.06816 0,0.03749 0.09736,0.09011 0.216357,0.116941 0.118996,0.02683 0.216357,0.07681 0.216357,0.111058 0,0.03425 0.09736,0.08423 0.216357,0.111059 0.118996,0.02683 0.216356,0.07159 0.216356,0.09947 0,0.02788 0.125623,0.106563 0.279162,0.174852 0.288024,0.1281 1.051346,0.110744 1.133535,-0.02577 0.02105,-0.0349 0.180411,-0.06346 0.354221,-0.06346 0.17381,0 0.333936,-0.02976 0.355836,-0.06614 0.02187,-0.03638 0.332346,-0.08991 0.689887,-0.118959 0.357542,-0.02905 0.665589,-0.0786 0.68456,-0.11011 0.01901,-0.03151 0.310707,-0.08091 0.648299,-0.109782 0.337601,-0.02887 0.632079,-0.08283 0.654403,-0.119906 0.02228,-0.03708 0.182002,-0.06742 0.354849,-0.06742 0.187314,0 0.326406,-0.03738 0.344316,-0.09255 0.04063,-0.12528 4.215508,-0.135226 4.293683,-0.01023 0.02831,0.04528 0.14885,0.102063 0.267846,0.126194 0.567277,0.115035 0.973604,0.233069 0.973604,0.282823 0,0.03018 0.146043,0.07737 0.324537,0.104844 0.178493,0.02747 0.324537,0.0795 0.324537,0.115594 0,0.03609 0.06487,0.06563 0.144233,0.06563 0.07931,0 0.14424,0.03331 0.14424,0.07404 0,0.04072 0.03802,0.07404 0.08445,0.07404 0.117731,0 1.028051,0.457801 1.057433,0.531785 0.01322,0.03329 0.05287,0.06053 0.08804,0.06053 0.07841,0 0.743967,0.459575 0.777388,0.536782 0.01322,0.03054 0.05736,0.05553 0.09802,0.05553 0.04071,0 0.143449,0.06458 0.228372,0.143525 0.08492,0.07894 0.284222,0.264627 0.44288,0.412639 0.49483,0.461616 0.579883,0.502293 0.935736,0.44751 0.177645,-0.02735 0.341884,-0.08112 0.364983,-0.119486 0.02309,-0.03836 0.119297,-0.06976 0.213782,-0.06976 0.09448,0 0.189795,-0.02992 0.211817,-0.06649 0.02203,-0.03657 0.275442,-0.09025 0.563173,-0.119279 0.28773,-0.02903 0.565661,-0.08814 0.617612,-0.131344 0.125572,-0.104427 3.184471,-0.102233 3.248938,0.0023 0.02538,0.04121 0.281481,0.09896 0.569056,0.128335 0.287568,0.02938 0.522858,0.08334 0.522858,0.119929 0,0.03659 0.09736,0.06653 0.216361,0.06653 0.118996,0 0.216353,0.02906 0.216353,0.06457 0,0.03552 0.136318,0.08695 0.302931,0.114306 0.166605,0.02735 0.336989,0.07548 0.378626,0.10696 0.04161,0.03148 0.278526,0.121631 0.526439,0.200344 0.247905,0.07871 0.450738,0.164327 0.450738,0.190253 0,0.02593 0.146044,0.06962 0.324537,0.0971 0.178494,0.02748 0.324538,0.08124 0.324538,0.119465 0,0.03822 0.178493,0.0695 0.396649,0.0695 0.218164,0 0.396658,-0.03331 0.396658,-0.07404 0,-0.04072 0.04708,-0.07404 0.104594,-0.07404 0.05752,0 0.130549,-0.04165 0.162265,-0.09255 0.06323,-0.101469 0.520206,-0.387501 0.832953,-0.521372 0.109082,-0.04669 0.198328,-0.110907 0.198328,-0.1427 0,-0.0318 0.04871,-0.05781 0.108177,-0.05781 0.05948,0 0.108184,-0.03269 0.108184,-0.07263 0,-0.03995 0.0811,-0.09353 0.180297,-0.119085 0.09916,-0.02555 0.180297,-0.07616 0.180297,-0.112468 0,-0.0363 0.04088,-0.06602 0.09089,-0.06602 0.05002,0 0.176944,-0.08192 0.282126,-0.182052 0.105181,-0.100127 0.27523,-0.203691 0.377891,-0.230142 0.102652,-0.02645 0.186644,-0.07022 0.186644,-0.09727 0,-0.02705 0.121697,-0.114739 0.270441,-0.194872 0.148745,-0.08013 0.286678,-0.167359 0.306505,-0.193835 0.01983,-0.02648 0.168083,-0.118623 0.329441,-0.204767 0.161359,-0.08614 0.35857,-0.218983 0.438254,-0.295196 0.07972,-0.07621 0.221028,-0.16338 0.314094,-0.193704 0.09306,-0.03032 0.235959,-0.118983 0.317552,-0.197019 0.08159,-0.07804 0.222016,-0.160868 0.312054,-0.184067 0.09004,-0.0232 0.163701,-0.07189 0.163701,-0.108193 0,-0.0363 0.02872,-0.06602 0.06389,-0.06602 0.03517,0 0.254204,-0.128396 0.486802,-0.285324 0.23259,-0.156929 0.535896,-0.348504 0.673993,-0.425724 0.138105,-0.07722 0.294576,-0.182045 0.347718,-0.232947 0.05312,-0.0509 0.142984,-0.09255 0.199651,-0.09255 0.05663,0 0.103027,-0.03331 0.103027,-0.07404 0,-0.04072 0.04398,-0.07404 0.09764,-0.07404 0.05369,0 0.182475,-0.08071 0.286156,-0.17935 0.103672,-0.09864 0.262567,-0.203361 0.353095,-0.232708 0.09053,-0.02934 0.215194,-0.112996 0.277042,-0.185888 0.06185,-0.07289 0.199773,-0.155032 0.306505,-0.182533 0.106732,-0.0275 0.194053,-0.07609 0.194053,-0.107987 0,-0.03189 0.0811,-0.07889 0.180297,-0.104442 0.09917,-0.02555 0.180296,-0.07914 0.180296,-0.119085 0,-0.03995 0.04871,-0.07262 0.108185,-0.07262 0.05948,0 0.108176,-0.03332 0.108176,-0.07404 0,-0.04072 0.04708,-0.07404 0.104595,-0.07404 0.05752,0 0.130549,-0.04165 0.162264,-0.09255 0.03174,-0.0509 0.187493,-0.159103 0.346152,-0.240448 0.158658,-0.08134 0.331358,-0.189626 0.383774,-0.240626 0.05238,-0.051 0.141662,-0.09273 0.198328,-0.09273 0.05663,0 0.103028,-0.02541 0.103028,-0.05648 0,-0.05655 0.213693,-0.19029 0.450746,-0.282101 0.06944,-0.02689 0.126208,-0.07831 0.126208,-0.114285 0,-0.03597 0.0439,-0.0654 0.09764,-0.0654 0.05369,0 0.182475,-0.08071 0.286156,-0.179351 0.103672,-0.09864 0.261058,-0.20299 0.349725,-0.231884 0.08868,-0.02889 0.205631,-0.09811 0.259899,-0.153825 0.05426,-0.05571 0.145024,-0.10129 0.20169,-0.10129 0.05663,0 0.103028,-0.03332 0.103028,-0.07404 0,-0.04072 0.04871,-0.07404 0.108177,-0.07404 0.05948,0 0.108176,-0.0297 0.108176,-0.06602 0,-0.0363 0.0811,-0.08692 0.180297,-0.112469 0.09917,-0.02555 0.180296,-0.07914 0.180296,-0.119085 0,-0.03995 0.04398,-0.07262 0.09765,-0.07262 0.05369,0 0.182475,-0.08071 0.286148,-0.17935 0.10368,-0.09864 0.262575,-0.203086 0.353095,-0.232096 0.09053,-0.02901 0.180843,-0.07325 0.200711,-0.0983 0.01983,-0.02505 0.142356,-0.102771 0.272203,-0.172709 0.193842,-0.104408 0.271257,-0.111635 0.432657,-0.04039 0.408676,0.180395 0.57746,0.511649 0.491159,0.963954 -0.03411,0.178644 -0.134368,0.301761 -0.391599,0.480767 -0.190178,0.132344 -0.384076,0.240626 -0.430886,0.240626 -0.04683,0 -0.08512,0.03269 -0.08512,0.07263 0,0.03995 -0.0811,0.09353 -0.180297,0.119085 -0.09916,0.02555 -0.180296,0.07616 -0.180296,0.112468 0,0.0363 -0.04871,0.06602 -0.108177,0.06602 -0.05948,0 -0.108176,0.0297 -0.108176,0.06602 0,0.0363 -0.0811,0.08692 -0.180297,0.112469 -0.09917,0.02555 -0.180296,0.07914 -0.180296,0.119085 0,0.03995 -0.04398,0.07262 -0.09765,0.07262 -0.05369,0 -0.184899,0.08301 -0.291541,0.184476 -0.106634,0.101462 -0.273648,0.205026 -0.371119,0.230143 -0.09748,0.02511 -0.177237,0.07176 -0.177237,0.103654 0,0.03189 -0.0811,0.07889 -0.180297,0.104442 -0.09917,0.02555 -0.180296,0.07914 -0.180296,0.119085 0,0.03995 -0.04871,0.07263 -0.108185,0.07263 -0.05948,0 -0.108176,0.0297 -0.108176,0.06602 0,0.0363 -0.0811,0.08692 -0.180297,0.112469 -0.09916,0.02555 -0.180297,0.07914 -0.180297,0.119085 0,0.03995 -0.04871,0.07262 -0.108176,0.07262 -0.05948,0 -0.108184,0.03331 -0.108184,0.07404 0,0.04072 -0.04373,0.07404 -0.09714,0.07404 -0.05344,0 -0.171983,0.06664 -0.263457,0.148078 -0.09147,0.08144 -0.210021,0.148078 -0.263448,0.148078 -0.05344,0 -0.09715,0.03331 -0.09715,0.07404 0,0.04072 -0.04871,0.07404 -0.108177,0.07404 -0.05948,0 -0.108176,0.03269 -0.108176,0.07263 0,0.03995 -0.0811,0.09353 -0.180305,0.119084 -0.09916,0.02555 -0.180296,0.06803 -0.180296,0.0944 0,0.02637 -0.09808,0.09251 -0.217961,0.146985 -0.119876,0.05447 -0.257802,0.137962 -0.306505,0.185525 -0.04871,0.04756 -0.183389,0.136066 -0.299316,0.196673 -0.409068,0.213865 -0.474359,0.256926 -0.474359,0.312848 0,0.03107 -0.04871,0.05648 -0.108177,0.05648 -0.05948,0 -0.108176,0.03332 -0.108176,0.07404 0,0.04072 -0.04634,0.07404 -0.103028,0.07404 -0.05671,0 -0.145913,0.04172 -0.198329,0.09273 -0.05238,0.051 -0.216997,0.158529 -0.365742,0.238953 -0.148744,0.08042 -0.270449,0.168355 -0.270449,0.195402 0,0.02705 -0.07303,0.06859 -0.162264,0.09231 -0.08925,0.02372 -0.256562,0.127286 -0.371813,0.230143 -0.11525,0.102855 -0.253184,0.18701 -0.306505,0.18701 -0.05336,0 -0.09696,0.0297 -0.09696,0.06602 0,0.0363 -0.0811,0.08692 -0.180297,0.112468 -0.09916,0.02555 -0.180297,0.07914 -0.180297,0.119085 0,0.03995 -0.04871,0.07262 -0.108176,0.07262 -0.05948,0 -0.108184,0.02601 -0.108184,0.05781 0,0.0318 -0.08925,0.09722 -0.198321,0.145391 -0.213318,0.0942 -0.356603,0.183101 -0.716381,0.444457 -0.126265,0.09173 -0.264191,0.166773 -0.306505,0.166773 -0.04235,0 -0.07727,0.02499 -0.07776,0.05553 -4.33e-4,0.03054 -0.130272,0.119196 -0.288473,0.197009 -0.15821,0.07781 -0.287649,0.169437 -0.287649,0.203607 0,0.03417 -0.05018,0.06213 -0.111457,0.06213 -0.06128,0 -0.192258,0.08295 -0.291019,0.184342 -0.09876,0.101387 -0.259556,0.204952 -0.357321,0.230142 -0.09777,0.02519 -0.177751,0.0719 -0.177751,0.103787 0,0.03189 -0.0811,0.07889 -0.180297,0.104443 -0.09917,0.02555 -0.180296,0.07914 -0.180296,0.119085 0,0.03995 -0.04871,0.07262 -0.108185,0.07262 -0.05948,0 -0.108176,0.0297 -0.108176,0.06602 0,0.0363 -0.0811,0.08692 -0.180297,0.112468 -0.09916,0.02555 -0.180297,0.07914 -0.180297,0.119085 0,0.03995 -0.04382,0.07263 -0.09736,0.07263 -0.05353,0 -0.231757,0.09995 -0.396029,0.222116 -0.164272,0.122165 -0.331407,0.222117 -0.371413,0.222117 -0.03998,0 -0.07278,0.0297 -0.07278,0.06602 0,0.0363 -0.0811,0.08692 -0.180296,0.112469 -0.09916,0.02555 -0.180297,0.07914 -0.180297,0.119084 0,0.03995 -0.04871,0.07263 -0.108176,0.07263 -0.05948,0 -0.108177,0.03067 -0.108177,0.06815 0,0.03749 -0.09699,0.09003 -0.215537,0.116754 -0.118538,0.02673 -0.234042,0.07935 -0.256668,0.116942 -0.05418,0.08998 -1.114417,0.08887 -1.114417,-0.0012 0,-0.03822 -0.146036,-0.09199 -0.324537,-0.119464 -0.178494,-0.02748 -0.324529,-0.07949 -0.324529,-0.115595 0,-0.03609 -0.06299,-0.06563 -0.139982,-0.06563 -0.07702,0 -0.158299,-0.03042 -0.18068,-0.0676 -0.02236,-0.03718 -0.170334,-0.09008 -0.328788,-0.117566 -0.158454,-0.02748 -0.288098,-0.07723 -0.288098,-0.110552 0,-0.03332 -0.162273,-0.0835 -0.360593,-0.111499 -0.198329,-0.028 -0.360602,-0.07299 -0.360602,-0.09998 0,-0.07719 -0.526064,-0.225984 -0.986569,-0.279048 -0.23086,-0.0266 -0.456481,-0.07796 -0.501374,-0.114124 -0.117453,-0.09461 -2.93345,-0.09318 -3.100169,0.0016 -0.07466,0.04241 -0.321772,0.09773 -0.549221,0.122934 -0.227449,0.0252 -0.431792,0.07613 -0.454083,0.113155 -0.0696,0.11565 0.100523,0.355184 0.710474,1.000205 0.324423,0.343087 0.670998,0.716626 0.770167,0.830086 0.685114,0.783883 0.900292,1.02792 1.478437,1.676672 0.356987,0.400589 0.738322,0.825227 0.847395,0.943641 0.109083,0.118415 0.199431,0.239137 0.200777,0.268275 0.0016,0.02913 0.06511,0.186246 0.141793,0.349132 0.07662,0.162885 0.140446,0.369153 0.141793,0.458373 0.0016,0.08922 0.03492,0.182809 0.07458,0.207976 0.08819,0.05596 0.09728,1.29568 0.0095,1.29568 -0.03443,0 -0.0807,0.138072 -0.10271,0.306826 -0.02203,0.168755 -0.06691,0.327013 -0.09964,0.351684 -0.03272,0.02467 -0.12323,0.173159 -0.201037,0.329968 -0.189378,0.381629 -0.728881,0.939229 -1.084546,1.120921 -0.158658,0.08105 -0.310487,0.179101 -0.337388,0.217885 -0.05336,0.07693 -1.664536,0.133057 -1.898301,0.06612 z"
   id="path2131" /><path
   style="fill:#bfa38a;fill-opacity:1;stroke-width:0.00482279"
   d="m 36.341775,56.272415 c -0.0217,-0.0361 -0.153469,-0.08759 -0.292732,-0.114413 -0.139272,-0.02682 -0.253217,-0.08057 -0.253217,-0.119452 0,-0.03887 -0.04871,-0.07068 -0.108176,-0.07068 -0.05948,0 -0.108177,-0.03107 -0.108177,-0.06905 0,-0.03798 -0.07001,-0.09185 -0.1555,-0.119716 -0.135559,-0.04417 -0.270204,-0.170569 -0.564577,-0.529988 -0.04031,-0.04919 -0.07327,-0.120068 -0.07327,-0.157522 0,-0.03745 -0.04553,-0.106862 -0.101103,-0.154239 -0.05557,-0.04738 -0.123083,-0.176065 -0.149952,-0.28597 -0.02684,-0.109906 -0.07939,-0.21922 -0.116768,-0.242921 -0.03737,-0.0237 -0.08815,-0.265585 -0.112892,-0.537523 l -0.04496,-0.494431 h -0.386222 c -0.212428,0 -0.38623,-0.03331 -0.38623,-0.07404 0,-0.04072 -0.09544,-0.07404 -0.212093,-0.07404 -0.116663,0 -0.22989,-0.02954 -0.251626,-0.06565 -0.0217,-0.0361 -0.153461,-0.08759 -0.292732,-0.114412 -0.139264,-0.02682 -0.253209,-0.08057 -0.253209,-0.119451 0,-0.03888 -0.04129,-0.07068 -0.09173,-0.07068 -0.248239,0 -1.206414,-1.191032 -1.206414,-1.499598 0,-0.06431 -0.03158,-0.128022 -0.07017,-0.141596 -0.03859,-0.01357 -0.09191,-0.266231 -0.11853,-0.561462 L 30.943115,50.1188 H 30.48895 c -0.249789,0 -0.47422,-0.03331 -0.49873,-0.07404 -0.02456,-0.04072 -0.09312,-0.07404 -0.152449,-0.07404 -0.396176,0 -1.446241,-0.831158 -1.574596,-1.246333 -0.02725,-0.08822 -0.07727,-0.160406 -0.111121,-0.160406 -0.03386,0 -0.08408,-0.108282 -0.111645,-0.240626 -0.02758,-0.132344 -0.08078,-0.279769 -0.118244,-0.32761 -0.03745,-0.04784 -0.0872,-0.389346 -0.110519,-0.758899 l -0.04243,-0.671914 h -0.201429 c -0.11078,0 -0.219209,-0.02954 -0.240945,-0.06565 -0.0217,-0.0361 -0.153461,-0.08759 -0.292733,-0.114412 -0.139263,-0.02682 -0.253208,-0.08057 -0.253208,-0.119451 0,-0.03888 -0.04871,-0.07068 -0.108185,-0.07068 -0.05948,0 -0.108176,-0.03269 -0.108176,-0.07262 0,-0.03995 -0.0811,-0.09353 -0.180297,-0.119085 -0.09916,-0.02555 -0.180443,-0.06783 -0.180631,-0.09396 -2.12e-4,-0.02613 -0.09121,-0.147456 -0.20227,-0.26962 -0.111064,-0.122164 -0.225768,-0.272093 -0.254905,-0.333175 -0.162934,-0.341565 -0.279294,-0.480945 -0.562643,-0.673932 -0.172726,-0.117646 -0.354615,-0.214042 -0.404197,-0.214217 -0.04958,-1.48e-4 -0.09015,-0.03002 -0.09015,-0.06633 0,-0.0363 -0.08114,-0.08692 -0.180297,-0.112469 -0.09916,-0.02555 -0.180298,-0.07914 -0.180298,-0.119084 0,-0.03995 -0.04868,-0.07263 -0.108178,-0.07263 -0.0595,0 -0.108179,-0.03331 -0.108179,-0.07404 0,-0.04072 -0.0497,-0.07404 -0.110441,-0.07404 -0.06075,0 -0.127896,-0.04669 -0.149227,-0.103761 -0.02133,-0.05707 -0.09333,-0.122738 -0.160004,-0.145929 -0.143348,-0.04987 -0.350998,-0.188095 -0.514677,-0.34262 -0.0647,-0.06108 -0.208111,-0.177694 -0.318689,-0.259136 -0.110579,-0.08145 -0.271438,-0.207863 -0.357464,-0.280933 -0.394904,-0.335429 -0.790409,-0.689963 -0.866387,-0.776637 -0.04583,-0.05229 -0.265754,-0.291945 -0.488712,-0.532576 -0.222959,-0.240631 -0.513876,-0.581003 -0.646481,-0.756382 -0.132606,-0.175379 -0.315288,-0.392244 -0.405959,-0.481924 -0.09067,-0.08968 -0.164858,-0.192862 -0.164858,-0.229297 0,-0.129361 -0.26385,-0.375892 -0.455016,-0.425148 -0.10673,-0.0275 -0.194054,-0.07224 -0.194054,-0.09942 0,-0.02718 -0.145734,-0.115191 -0.323853,-0.19558 -0.178118,-0.08039 -0.324159,-0.168503 -0.324535,-0.195808 -3.76e-4,-0.02731 -0.09804,-0.0716 -0.21704,-0.09843 -0.118996,-0.02683 -0.216356,-0.07199 -0.216356,-0.100347 0,-0.02836 -0.145734,-0.117336 -0.323853,-0.197724 -0.178118,-0.08039 -0.32416,-0.167538 -0.324535,-0.193664 -3.61e-4,-0.02613 -0.0896,-0.07041 -0.198288,-0.09842 -0.108682,-0.028 -0.214156,-0.07432 -0.234386,-0.102928 -0.05038,-0.07125 -0.97383,-0.528559 -1.067317,-0.528559 -0.04141,0 -0.08611,-0.02499 -0.09933,-0.05553 -0.01322,-0.03054 -0.316121,-0.205457 -0.67311,-0.388704 -0.356989,-0.183246 -0.665298,-0.353672 -0.68513,-0.378725 -0.01984,-0.02505 -0.117194,-0.07119 -0.216357,-0.102528 -0.09916,-0.03134 -0.196524,-0.07747 -0.216357,-0.102527 -0.07352,-0.09287 -0.494878,-0.304687 -0.606108,-0.304687 -0.06329,0 -0.115081,-0.03067 -0.115081,-0.06815 0,-0.03748 -0.09736,-0.09011 -0.216357,-0.116942 -0.118997,-0.02683 -0.216357,-0.07945 -0.216357,-0.11694 0,-0.03748 -0.04868,-0.06816 -0.108179,-0.06816 -0.0595,0 -0.108178,-0.03067 -0.108178,-0.06816 0,-0.03748 -0.09736,-0.09011 -0.216356,-0.116941 -0.118997,-0.02683 -0.216357,-0.07584 -0.216357,-0.108915 0,-0.03307 -0.08892,-0.08304 -0.197605,-0.111045 -0.108682,-0.028 -0.214156,-0.07562 -0.234387,-0.105828 -0.02023,-0.0302 -0.474904,-0.279641 -1.010387,-0.55431 -1.2380444,-0.63504 -1.3111308,-0.696661 -1.3518662,-1.139802 -0.026983,-0.293555 -0.00343,-0.383471 0.1477605,-0.563046 0.2518148,-0.299175 0.6122107,-0.288636 1.2523387,0.03662 0.270962,0.13768 0.50921,0.272851 0.529441,0.300381 0.02023,0.02753 0.125704,0.07297 0.234386,0.10097 0.108682,0.028 0.197605,0.07315 0.197605,0.100334 0,0.02718 0.145733,0.115192 0.323852,0.195581 0.178119,0.08039 0.32416,0.17115 0.324535,0.201691 3.75e-4,0.03054 0.03291,0.05553 0.07231,0.05553 0.11641,0 0.649565,0.252588 0.649565,0.307738 0,0.02788 0.09736,0.07264 0.216356,0.09948 0.118997,0.02683 0.216357,0.0768 0.216357,0.111058 0,0.03425 0.09736,0.08423 0.216357,0.111058 0.118997,0.02683 0.216357,0.07945 0.216357,0.116941 0,0.03748 0.04868,0.06816 0.108179,0.06816 0.0595,0 0.108178,0.0297 0.108178,0.06602 0,0.0363 0.08892,0.08892 0.197605,0.116929 0.108682,0.028 0.214156,0.07413 0.234386,0.102516 0.05672,0.07957 1.684877,0.899165 1.786231,0.899165 0.04927,0 0.08958,0.03067 0.08958,0.06815 0,0.03748 0.09736,0.09011 0.216358,0.116941 0.118995,0.02683 0.216357,0.07946 0.216357,0.116941 0,0.03749 0.04868,0.06816 0.108178,0.06816 0.0595,0 0.108178,0.03067 0.108178,0.06816 0,0.03748 0.09736,0.09011 0.216357,0.116941 0.118996,0.02683 0.216357,0.0768 0.216357,0.111058 0,0.03425 0.09736,0.08423 0.216357,0.111058 0.118996,0.02683 0.216357,0.07946 0.216357,0.116942 0,0.03748 0.04868,0.06815 0.108178,0.06815 0.0595,0 0.108178,0.0297 0.108178,0.06602 0,0.0363 0.08892,0.08892 0.197605,0.116929 0.108682,0.028 0.214156,0.07326 0.234386,0.100574 0.05526,0.07459 0.976444,0.530912 1.071783,0.530912 0.04556,0 0.08284,0.02585 0.08284,0.05745 0,0.0316 0.146036,0.123218 0.324524,0.203606 0.178488,0.08039 0.341794,0.200753 0.362902,0.267475 0.02111,0.06672 0.114075,0.205164 0.206591,0.307649 0.09252,0.102485 0.244628,0.297776 0.338023,0.433978 0.198546,0.289554 0.279468,0.381611 1.177661,1.339716 0.372205,0.397033 0.700573,0.721878 0.729706,0.721878 0.02913,0 0.107961,0.06509 0.175175,0.144657 0.128272,0.151837 0.984829,0.817849 1.051832,0.817849 0.02138,0 0.109891,0.06793 0.19669,0.150943 0.0868,0.08302 0.231484,0.169924 0.32152,0.193123 0.09004,0.0232 0.163703,0.07189 0.163703,0.108193 0,0.0363 0.04521,0.06602 0.10046,0.06602 0.110273,0 0.188015,-0.155577 0.188015,-0.37625 0,-0.07811 0.02986,-0.142022 0.06642,-0.142022 0.03647,0 0.08777,-0.09995 0.113905,-0.222116 0.02611,-0.122165 0.07743,-0.222117 0.113912,-0.222117 0.03655,0 0.06642,-0.04892 0.06642,-0.108705 0,-0.100577 0.500722,-0.693558 0.877258,-1.038897 0.172905,-0.158577 1.044117,-1.006487 1.90185,-1.850972 1.566126,-1.541948 1.488261,-1.477411 1.782495,-1.477411 0.216271,0 0.321241,0.05041 0.489217,0.234927 0.326601,0.358769 0.256823,0.856291 -0.169078,1.205465 -0.07449,0.06108 -0.310389,0.294304 -0.524188,0.518272 -0.213799,0.223967 -0.461328,0.473849 -0.550061,0.555291 -0.609493,0.559441 -2.47452,2.439041 -2.618034,2.638499 -0.259867,0.361161 -0.331759,1.043828 -0.161759,1.536102 0.09893,0.2865 0.419389,0.659918 0.69041,0.804512 0.216744,0.115637 1.109317,0.121793 1.219754,0.0084 0.04504,-0.04627 0.216785,-0.08414 0.381579,-0.08414 0.432167,0 0.683164,0.270985 0.683164,0.737584 0,0.209253 -0.03533,0.355906 -0.09015,0.374681 -0.04961,0.01697 -0.09015,0.07567 -0.09015,0.130449 0,0.05478 -0.05679,0.157948 -0.126208,0.229263 -0.183308,0.18833 -0.183201,1.350773 1.47e-4,1.539004 0.06935,0.07118 0.12607,0.17177 0.12607,0.223531 0,0.05176 0.121696,0.157663 0.27044,0.235338 0.148745,0.07768 0.281269,0.166215 0.294487,0.196756 0.0368,0.08501 1.093807,0.06712 1.093807,-0.01851 0,-0.04072 0.06258,-0.07404 0.139084,-0.07404 0.07645,0 0.181969,-0.04301 0.234385,-0.09558 0.415505,-0.416722 0.795289,-0.458372 1.109505,-0.121677 0.169796,0.181944 0.211816,0.292654 0.211816,0.557992 0,0.182058 -0.03647,0.354787 -0.0811,0.383842 -0.04463,0.02906 -0.150082,0.185606 -0.234384,0.347888 -0.288857,0.556053 -0.166084,1.442278 0.260462,1.88018 0.273304,0.280582 1.006069,0.510376 1.23187,0.386314 0.08135,-0.04469 0.214925,-0.08125 0.296861,-0.08125 0.08194,0 0.148981,-0.03331 0.148981,-0.07404 0,-0.04072 0.04284,-0.07404 0.09519,-0.07404 0.05238,0 0.204244,-0.09995 0.337527,-0.222117 0.370352,-0.339455 0.886005,-0.300063 1.100759,0.08409 0.132507,0.237023 0.171688,0.730341 0.05801,0.730341 -0.03696,0 -0.09005,0.07496 -0.117903,0.166588 -0.02782,0.09162 -0.08683,0.190411 -0.131063,0.21953 -0.05059,0.03331 -0.08045,0.335331 -0.08045,0.814427 v 0.761485 l 0.260927,0.277645 c 0.143515,0.152705 0.297669,0.277646 0.34257,0.277646 0.04488,0 0.08163,0.03331 0.08163,0.07404 0,0.118481 1.099649,0.0906 1.341148,-0.03401 0.289265,-0.149254 0.678179,-0.527248 0.678179,-0.659145 0,-0.06005 -0.129815,-0.247898 -0.288473,-0.417429 -0.158666,-0.169531 -0.288481,-0.323585 -0.288481,-0.342342 0,-0.01875 -0.03304,-0.07434 -0.07343,-0.123526 -0.293238,-0.356976 -0.359263,-0.457134 -0.359263,-0.544985 0,-0.05485 -0.03101,-0.09973 -0.06887,-0.09973 -0.03786,0 -0.09123,-0.124941 -0.11858,-0.277646 -0.02733,-0.152705 -0.08232,-0.299324 -0.122145,-0.325821 -0.09267,-0.06166 -0.09093,-1.545702 0.0016,-1.608188 0.03802,-0.02559 0.09117,-0.139051 0.118139,-0.25213 0.05353,-0.224558 0.443729,-0.907578 0.621578,-1.088079 0.225727,-0.229096 0.708947,-0.594312 0.786339,-0.594312 0.0439,0 0.0798,-0.02961 0.0798,-0.0658 0,-0.03619 0.121704,-0.08915 0.270449,-0.117685 0.148744,-0.02854 0.304025,-0.08034 0.345058,-0.115126 0.04104,-0.03479 0.267585,-0.07345 0.503447,-0.08592 l 0.428829,-0.02268 0.05695,-0.370194 c 0.03133,-0.203606 0.08807,-0.436829 0.12611,-0.518272 0.03802,-0.08145 0.102188,-0.231372 0.142584,-0.333175 0.155713,-0.392488 0.845764,-1.25866 1.002725,-1.25866 0.03876,0 0.1133,-0.04291 0.165716,-0.09536 0.152285,-0.152379 0.60574,-0.348875 0.805097,-0.348875 0.100751,0 0.203232,-0.03331 0.227743,-0.07404 0.02448,-0.04072 0.20493,-0.07404 0.400917,-0.07404 h 0.356334 v -0.291785 c 0,-0.160482 0.03247,-0.312378 0.07213,-0.337545 0.03966,-0.02517 0.07213,-0.09845 0.07213,-0.162847 0,-0.121404 0.27018,-0.729503 0.396649,-0.892746 0.275622,-0.355757 0.77308,-0.81869 1.013071,-0.942748 0.156789,-0.08105 0.304342,-0.174545 0.32789,-0.207762 0.02358,-0.03321 0.226389,-0.07984 0.450746,-0.103615 0.224357,-0.02377 0.407926,-0.07188 0.407926,-0.106903 0,-0.03502 0.06487,-0.06368 0.14424,-0.06368 0.07931,0 0.144233,0.03331 0.144233,0.07404 0,0.04072 0.03247,0.07404 0.07213,0.07404 0.03966,0 0.07213,-0.08133 0.07213,-0.180727 0,-0.0994 0.03247,-0.201319 0.07213,-0.226487 0.03965,-0.02517 0.07213,-0.124761 0.07213,-0.221321 0,-0.33472 0.416607,-1.103306 0.843217,-1.555611 0.399105,-0.423143 0.946874,-0.777408 1.20204,-0.777408 0.06503,0 0.118311,-0.03331 0.118311,-0.07404 0,-0.09362 1.202016,-0.09978 1.258201,-0.0065 0.02236,0.03718 0.170334,0.09008 0.328788,0.117567 0.158454,0.02748 0.288098,0.07811 0.288098,0.112511 0,0.03439 0.06944,0.08516 0.154252,0.1128 0.135077,0.04402 0.360561,0.264204 1.020226,0.996264 0.09173,0.101803 0.24633,0.301621 0.343557,0.444039 0.09722,0.142417 0.298468,0.383932 0.447212,0.536699 0.148745,0.152766 0.270441,0.303124 0.270441,0.334126 0,0.031 0.08542,0.150937 0.189811,0.26652 0.156936,0.17375 0.228763,0.202184 0.414689,0.164154 0.123679,-0.0253 0.235691,-0.07856 0.248909,-0.11836 0.01322,-0.0398 0.06764,-0.07236 0.120978,-0.07236 0.05328,0 0.160747,-0.0833 0.23875,-0.185097 0.078,-0.101803 0.176911,-0.185097 0.219804,-0.185097 0.152115,0 1.466623,-1.424083 1.699564,-1.841242 0.03712,-0.06643 0.110118,-0.164814 0.162264,-0.218624 0.05214,-0.05381 0.09482,-0.145435 0.09482,-0.203608 0,-0.05818 0.03027,-0.10577 0.06723,-0.10577 0.03696,0 0.08949,-0.07193 0.11667,-0.159844 0.06968,-0.225384 0.51478,-0.626529 0.897853,-0.809182 0.698144,-0.332888 0.975088,-0.476604 1.010385,-0.524322 0.02024,-0.02735 0.125703,-0.07264 0.234385,-0.100643 0.108683,-0.028 0.197611,-0.08062 0.197611,-0.116929 0,-0.0363 0.04871,-0.06602 0.108176,-0.06602 0.05948,0 0.108177,-0.03067 0.108177,-0.06815 0,-0.03749 0.09736,-0.09011 0.216361,-0.116941 0.118995,-0.02683 0.216352,-0.07681 0.216352,-0.111058 0,-0.03425 0.09737,-0.08423 0.216361,-0.111059 0.118996,-0.02683 0.216353,-0.07159 0.216353,-0.09947 0,-0.05515 0.533155,-0.307739 0.649564,-0.307739 0.03941,0 0.07197,-0.02499 0.07229,-0.05553 3.59e-4,-0.03054 0.146419,-0.121301 0.324537,-0.201691 0.178118,-0.08039 0.323852,-0.169364 0.323852,-0.197723 0,-0.02836 0.09736,-0.07351 0.216361,-0.100348 0.118996,-0.02683 0.216475,-0.07113 0.216622,-0.09843 1.47e-4,-0.02731 0.154301,-0.113825 0.342569,-0.192267 0.18826,-0.07844 0.358521,-0.161793 0.378348,-0.185225 0.01983,-0.02343 0.425509,-0.241132 0.901492,-0.483778 0.475982,-0.242646 0.876246,-0.467481 0.889464,-0.499635 0.03533,-0.08599 0.588973,-0.07134 0.588973,0.01558 0,0.04072 0.04055,0.07425 0.09015,0.07451 0.126592,6.59e-4 0.342561,0.415841 0.342561,0.658547 0,0.250991 -0.328837,0.644098 -0.596488,0.713061 -0.108249,0.02789 -0.196819,0.08042 -0.196819,0.116728 0,0.0363 -0.04871,0.06602 -0.108176,0.06602 -0.05948,0 -0.108185,0.03067 -0.108185,0.06816 0,0.03748 -0.09736,0.09011 -0.216353,0.116941 -0.118995,0.02683 -0.21636,0.0768 -0.21636,0.111058 0,0.03425 -0.09736,0.08423 -0.216353,0.111058 -0.118996,0.02683 -0.216361,0.07946 -0.216361,0.116942 0,0.03749 -0.04871,0.06816 -0.108176,0.06816 -0.05948,0 -0.108177,0.03331 -0.108177,0.07404 0,0.04072 -0.04055,0.07392 -0.09015,0.07378 -0.107165,-3.03e-4 -1.732495,0.814524 -1.785669,0.895209 -0.02024,0.0307 -0.125703,0.07872 -0.234385,0.106729 -0.108682,0.028 -0.197603,0.07798 -0.197603,0.111045 0,0.03307 -0.09736,0.08208 -0.216352,0.108915 -0.119004,0.02683 -0.216361,0.07945 -0.216361,0.116941 0,0.03748 -0.04871,0.06816 -0.108177,0.06816 -0.05948,0 -0.108176,0.03331 -0.108176,0.07404 0,0.04072 -0.03802,0.07404 -0.08445,0.07404 -0.09959,0 -1.016979,0.447272 -1.06946,0.52141 -0.01983,0.02802 -0.117192,0.07659 -0.216352,0.107921 -0.09917,0.03134 -0.196526,0.07751 -0.216361,0.102596 -0.01983,0.02509 -0.191916,0.123762 -0.382403,0.219271 -0.34279,0.171865 -0.699377,0.459201 -0.699377,0.563543 0,0.0297 -0.146044,0.251146 -0.324537,0.492099 -0.178494,0.240953 -0.324538,0.454719 -0.324538,0.475036 0,0.09273 -1.337167,1.503226 -1.61287,1.70132 -0.113342,0.08144 -0.243059,0.183265 -0.288245,0.226271 -0.0452,0.04301 -0.187632,0.141814 -0.316541,0.219571 -0.128909,0.07776 -0.234385,0.16751 -0.234385,0.199452 0,0.03194 -0.02954,0.05807 -0.06568,0.05807 -0.03606,0 -0.198369,0.08921 -0.360593,0.198249 -0.260062,0.174801 -0.294951,0.231723 -0.294951,0.481253 0,0.155652 -0.02872,0.283004 -0.06397,0.283004 -0.03517,0 -0.08583,0.149928 -0.112598,0.333174 -0.02676,0.183246 -0.07564,0.333176 -0.108544,0.333176 -0.03296,0 -0.08029,0.0833 -0.105133,0.185097 -0.02489,0.101803 -0.0771,0.185097 -0.116001,0.185097 -0.03892,0 -0.07099,0.04165 -0.07123,0.09255 -8.16e-4,0.185213 -0.996988,1.092073 -1.199364,1.092073 -0.05401,0 -0.09826,0.03092 -0.09826,0.06871 0,0.0378 -0.186612,0.0894 -0.414689,0.114686 -0.22807,0.02529 -0.475828,0.08073 -0.550551,0.12321 -0.09964,0.05663 -0.15107,0.052 -0.192838,-0.01737 -0.09589,-0.159285 -0.284303,0.06612 -0.284303,0.340122 0,0.237621 -0.09571,0.529528 -0.364118,1.11056 -0.15311,0.33145 -0.721538,0.999524 -0.850431,0.999524 -0.04602,0 -0.08359,0.03269 -0.08359,0.07263 0,0.03995 -0.0811,0.09353 -0.180297,0.119085 -0.09916,0.02555 -0.180296,0.07616 -0.180296,0.112469 0,0.0363 -0.04594,0.06602 -0.102172,0.06602 -0.05622,0 -0.114034,0.03655 -0.128542,0.08123 -0.01501,0.04629 -0.296771,0.09855 -0.655079,0.121495 l -0.628709,0.04027 v 0.207311 c 0,0.114021 -0.02872,0.225527 -0.06381,0.24779 -0.03508,0.02226 -0.08575,0.190816 -0.112599,0.374563 -0.02684,0.183747 -0.07923,0.334085 -0.116499,0.334085 -0.03721,0 -0.06772,0.05132 -0.06772,0.114057 0,0.217416 -0.831803,1.218643 -1.012434,1.218643 -0.0381,0 -0.06935,0.03269 -0.06935,0.07263 0,0.03995 -0.0811,0.09353 -0.180297,0.119085 -0.09917,0.02555 -0.180305,0.07324 -0.180305,0.105961 0,0.03273 -0.129643,0.08199 -0.288098,0.109474 -0.158454,0.02748 -0.306407,0.08039 -0.328788,0.117566 -0.02236,0.03717 -0.233504,0.0676 -0.469153,0.0676 H 44.16127 v 0.291786 c 0,0.160482 -0.02823,0.309717 -0.06283,0.331634 -0.03451,0.02191 -0.08334,0.148824 -0.108446,0.282015 -0.02513,0.133192 -0.10231,0.35614 -0.171583,0.49544 -0.143587,0.288757 -0.89972,1.116446 -1.019924,1.116446 -0.04382,0 -0.07964,0.03088 -0.07964,0.06861 0,0.106697 -0.43583,0.304477 -0.777249,0.352715 -0.169657,0.02397 -0.325729,0.07225 -0.346821,0.107282 -0.04977,0.08273 -0.514584,0.08291 -0.564364,2.22e-4 -0.02105,-0.0349 -0.207092,-0.084 -0.413507,-0.109101 -0.206406,-0.0251 -0.393965,-0.0715 -0.416786,-0.103117 -0.02285,-0.03162 -0.163195,-0.121039 -0.311939,-0.198714 -0.148745,-0.07767 -0.27045,-0.169298 -0.27045,-0.203607 0,-0.120342 -0.224585,-0.06074 -0.392643,0.104208 -0.09336,0.09162 -0.276087,0.249881 -0.406073,0.351685 -0.129978,0.101803 -0.274635,0.224336 -0.321453,0.272294 -0.04683,0.04796 -0.20373,0.110041 -0.348697,0.137962 -0.144967,0.02792 -0.281366,0.08031 -0.303095,0.116409 -0.0217,0.03611 -0.360226,0.06565 -0.7522,0.06565 -0.391974,0 -0.730456,-0.02954 -0.752192,-0.06565 z m 5.151449,-1.933404 c 0,-0.04072 0.09504,-0.07404 0.211204,-0.07404 0.116164,0 0.259891,-0.04997 0.319389,-0.111059 0.05948,-0.06108 0.126722,-0.111057 0.149389,-0.111057 0.08554,0 0.302964,-0.273903 0.422221,-0.531918 0.07972,-0.172445 0.123817,-0.449236 0.123817,-0.776987 0,-0.483127 -0.04153,-0.612178 -0.305322,-0.949281 -0.0319,-0.04072 -0.11414,-0.145896 -0.182818,-0.233721 -0.0687,-0.08782 -0.173548,-0.231891 -0.233046,-0.320147 -0.05948,-0.08826 -0.24611,-0.315531 -0.414682,-0.505054 -0.16858,-0.189524 -0.306513,-0.367931 -0.306513,-0.396459 0,-0.119632 -0.491706,-0.574486 -0.670966,-0.620673 -0.106953,-0.02756 -0.194461,-0.07981 -0.194461,-0.116119 0,-0.09116 -0.84631,-0.08362 -0.901484,0.008 -0.02448,0.04072 -0.09756,0.07404 -0.16233,0.07404 -0.137427,0 -0.667041,0.558489 -0.667041,0.703408 0,0.05427 -0.0399,0.112325 -0.08861,0.129003 -0.118865,0.04068 -0.114206,1.18361 0.0049,1.224401 0.04602,0.01574 0.08363,0.06904 0.08363,0.118446 0,0.100633 0.160184,0.329084 0.438956,0.626037 0.102595,0.109287 0.199952,0.237236 0.216361,0.284332 0.03623,0.10411 0.648723,0.835062 1.024485,1.222677 0.193808,0.199919 0.335634,0.282106 0.486802,0.282106 0.117331,0 0.213325,0.03331 0.213325,0.07404 0,0.04072 0.09736,0.07404 0.216353,0.07404 0.118996,0 0.216361,-0.03331 0.216361,-0.07404 z m 3.579113,-3.154057 c 0.314812,-0.133548 0.820143,-0.660492 0.820143,-0.855218 0,-0.07049 0.03247,-0.148752 0.07213,-0.17392 0.03965,-0.02517 0.07213,-0.227038 0.07213,-0.448603 0,-0.221564 -0.03247,-0.402844 -0.07213,-0.402844 -0.03965,0 -0.07213,-0.08092 -0.07213,-0.179809 0,-0.0989 -0.0492,-0.23034 -0.109383,-0.292101 -0.06013,-0.06176 -0.228323,-0.272375 -0.373698,-0.468031 -0.145374,-0.195656 -0.29899,-0.391522 -0.341361,-0.435258 -0.04235,-0.04373 -0.158177,-0.187935 -0.257346,-0.320444 -0.35183,-0.470142 -0.945731,-1.043795 -1.080629,-1.043795 -0.07531,0 -0.156937,-0.03331 -0.181447,-0.07404 -0.02456,-0.04072 -0.188701,-0.07404 -0.364853,-0.07404 -0.176152,0 -0.320278,0.03332 -0.320278,0.07404 0,0.04072 -0.0607,0.07404 -0.134849,0.07404 -0.197374,0 -0.717499,0.497639 -0.879176,0.84117 -0.147969,0.314423 -0.190349,0.969042 -0.0678,1.046821 0.03965,0.02517 0.07213,0.108047 0.07213,0.184179 0,0.07613 0.04871,0.188395 0.108176,0.249478 0.05948,0.06108 0.108184,0.132659 0.108184,0.159061 0,0.0264 0.08925,0.144331 0.198321,0.262065 0.255248,0.275494 0.349089,0.389829 0.629329,0.766738 0.352948,0.474697 0.903401,1.034198 1.112125,1.130414 0.271868,0.125318 0.74076,0.116533 1.062385,-0.0199 z m 3.612902,-3.329105 c 0.449987,-0.455438 0.52471,-0.629082 0.52471,-1.219343 0,-0.536055 -0.103575,-0.822153 -0.432714,-1.195203 -0.262567,-0.297598 -0.354114,-0.411133 -0.621349,-0.77055 -0.132026,-0.17757 -0.29775,-0.384595 -0.368271,-0.460054 -0.0705,-0.07546 -0.193131,-0.22121 -0.272456,-0.323889 -0.268173,-0.347092 -0.497466,-0.444577 -1.045724,-0.444577 -0.519668,0 -0.661249,0.0539 -1.047707,0.398871 -0.09417,0.08406 -0.191622,0.2482 -0.216557,0.364765 -0.02497,0.116564 -0.07523,0.211936 -0.111733,0.211936 -0.03655,0 -0.06642,0.266539 -0.06642,0.592311 0,0.345514 0.03003,0.59231 0.07213,0.59231 0.03965,0 0.07213,0.0476 0.07213,0.10577 0,0.05817 0.0492,0.156301 0.109376,0.218062 0.06014,0.06176 0.227531,0.272375 0.371935,0.468032 0.144404,0.195656 0.281791,0.372397 0.305306,0.392758 0.0235,0.02036 0.172529,0.203607 0.331154,0.407214 0.682267,0.875729 0.872257,0.999524 1.534019,0.999524 h 0.528251 z m 3.370178,-3.141889 c 0.177677,-0.183246 0.324113,-0.389515 0.32541,-0.458373 0.0016,-0.06886 0.03484,-0.14579 0.0745,-0.170958 0.08927,-0.05664 0.09665,-0.999525 0.0082,-0.999525 -0.03533,0 -0.08565,-0.08732 -0.111742,-0.19404 -0.02611,-0.106723 -0.09501,-0.242877 -0.153142,-0.302564 -0.05818,-0.05969 -0.19447,-0.230542 -0.302948,-0.379676 -0.108478,-0.149135 -0.302499,-0.384362 -0.431155,-0.52273 -0.128657,-0.138367 -0.372057,-0.445641 -0.54089,-0.682831 -0.204514,-0.28731 -0.373175,-0.44628 -0.505299,-0.47627 -0.109082,-0.02476 -0.198329,-0.07568 -0.198329,-0.11317 0,-0.03749 -0.227172,-0.06815 -0.504834,-0.06815 -0.288473,0 -0.504834,0.03173 -0.504834,0.07404 0,0.04072 -0.05426,0.07404 -0.120538,0.07404 -0.184262,0 -0.744889,0.638512 -0.744889,0.848378 0,0.09869 -0.03247,0.200018 -0.07213,0.225185 -0.08917,0.05658 -0.09596,0.60546 -0.0082,0.661163 0.03517,0.02231 0.08435,0.149221 0.109286,0.282015 0.02497,0.132795 0.140479,0.352216 0.256766,0.487603 0.116287,0.135387 0.286164,0.345063 0.377516,0.465947 0.09136,0.120884 0.304024,0.37177 0.472604,0.557526 0.16858,0.185756 0.306505,0.362694 0.306505,0.393198 0,0.0761 0.285928,0.385424 0.504834,0.54615 0.147227,0.108094 0.29589,0.128144 0.810466,0.109301 l 0.63017,-0.02308 z"
   id="path2133" /><rect
   style="fill:#181a2d;fill-opacity:1;stroke-width:0.0939606"
   id="rect2135-7-8"
   width="68.637619"
   height="5.1628723"
   x="-25.164742"
   y="47.547916"
   ry="2.5814362"
   rx="2.3921959"
   transform="matrix(0.78526255,-0.61916293,0.61934282,0.78512068,0,0)" /><rect
   style="fill:#bfa38a;fill-opacity:1;stroke-width:0.0709817"
   id="rect2135-3"
   width="65.937714"
   height="3.0670528"
   x="-23.754982"
   y="48.595837"
   ry="1.5335264"
   rx="2.2980974"
   transform="matrix(0.78526255,-0.61916293,0.61934282,0.78512068,0,0)" /><rect
   style="fill:#181a2d;fill-opacity:1;stroke-width:0.0939606"
   id="rect2135-7-8-1"
   width="68.637619"
   height="5.1628723"
   x="15.096461"
   y="-2.4470856"
   ry="2.5814362"
   rx="2.3921959"
   transform="matrix(0.73698652,0.67590745,-0.67573859,0.73714135,0,0)" /><rect
   style="fill:#bfa38a;fill-opacity:1;stroke-width:0.0709817"
   id="rect2135-3-6"
   width="65.937714"
   height="3.0670528"
   x="16.50622"
   y="-1.3991653"
   ry="1.5335264"
   rx="2.2980974"
   transform="matrix(0.73698652,0.67590745,-0.67573859,0.73714135,0,0)" /></svg>
