<?xml version="1.0" encoding="UTF-8" standalone="no"?>
<!-- Generator: Adobe Illustrator 27.0.0, SVG Export Plug-In . SVG Version: 6.00 Build 0)  -->

<svg
   version="1.1"
   id="Layer_1"
   x="0px"
   y="0px"
   viewBox="0 0 75 75"
   style="enable-background:new 0 0 75 75;"
   xml:space="preserve"
   sodipodi:docname="square-secure.svg"
   inkscape:version="1.2.2 (b0a8486541, 2022-12-01)"
   xmlns:inkscape="http://www.inkscape.org/namespaces/inkscape"
   xmlns:sodipodi="http://sodipodi.sourceforge.net/DTD/sodipodi-0.dtd"
   xmlns="http://www.w3.org/2000/svg"
   xmlns:svg="http://www.w3.org/2000/svg"><defs
   id="defs272"><pattern
     id="EMFhbasepattern"
     patternUnits="userSpaceOnUse"
     width="6"
     height="6"
     x="0"
     y="0" /></defs><sodipodi:namedview
   id="namedview270"
   pagecolor="#ffffff"
   bordercolor="#000000"
   borderopacity="0.25"
   inkscape:showpageshadow="2"
   inkscape:pageopacity="0.0"
   inkscape:pagecheckerboard="0"
   inkscape:deskcolor="#d1d1d1"
   showgrid="false"
   inkscape:zoom="4.4500587"
   inkscape:cx="37.864669"
   inkscape:cy="55.28017"
   inkscape:window-width="2560"
   inkscape:window-height="1494"
   inkscape:window-x="-11"
   inkscape:window-y="-11"
   inkscape:window-maximized="1"
   inkscape:current-layer="Layer_1" />
<style
   type="text/css"
   id="style253">
	.st0{fill:#181A2D;}
	.st1{fill:none;stroke:#BFA38A;}
	.st2{fill:none;}
</style>
<g
   id="g259">
	<path
   class="st0"
   d="M14,0h47c5.5,0,10,4.5,10,10v47c0,5.5-4.5,10-10,10H14C8.5,67,4,62.5,4,57V10C4,4.5,8.5,0,14,0z"
   id="path255" />
	<path
   class="st1"
   d="M14,0.5h47c5.2,0,9.5,4.3,9.5,9.5v47c0,5.2-4.3,9.5-9.5,9.5H14c-5.2,0-9.5-4.3-9.5-9.5V10   C4.5,4.8,8.8,0.5,14,0.5z"
   id="path257" />
</g>
<g
   id="g263">
	<circle
   shape-rendering="crispEdges"
   class="st1"
   cx="37"
   cy="34"
   r="21.5"
   id="circle261" />
</g>
<g
   id="g267">
	<rect
   x="26"
   y="23"
   shape-rendering="crispEdges"
   class="st2"
   width="22"
   height="21"
   id="rect265" />
</g>
<path
   style="fill:#bfa38a;fill-opacity:1;stroke-width:0.00553971"
   d="m 25.539938,48.688506 c -0.200614,-0.01791 -0.364752,-0.05997 -0.364752,-0.09345 0,-0.03347 -0.137072,-0.108283 -0.304603,-0.166226 -0.354085,-0.122469 -0.856434,-0.574338 -0.941638,-0.847022 -0.03245,-0.103837 -0.122555,-0.28114 -0.200245,-0.394011 -0.128513,-0.186706 -0.141256,-0.877558 -0.141256,-7.657682 0,-5.540574 0.02539,-7.467486 0.09899,-7.511019 0.05445,-0.03221 0.141401,-0.278048 0.193235,-0.546316 0.05184,-0.268267 0.129744,-0.508744 0.173133,-0.534392 0.04339,-0.02565 0.105452,-0.147847 0.137908,-0.271552 0.03246,-0.123711 0.09046,-0.224919 0.128884,-0.224919 0.03843,0 0.113348,-0.126021 0.166496,-0.280047 0.05314,-0.154028 0.152694,-0.300624 0.221215,-0.325775 0.06852,-0.02516 0.124586,-0.09063 0.124586,-0.145537 0,-0.0549 0.263633,-0.346039 0.585852,-0.646985 0.575071,-0.537103 1.444971,-1.09509 1.864103,-1.195706 0.116717,-0.02801 0.232741,-0.08271 0.257836,-0.121552 0.0251,-0.03883 0.237145,-0.09492 0.47122,-0.124617 0.234076,-0.02969 0.425592,-0.08618 0.425592,-0.125506 0,-0.03933 0.05793,-0.07152 0.128737,-0.07152 0.109588,0 0.128767,-0.216707 0.128944,-1.457055 2.32e-4,-1.602973 0.136114,-3.641445 0.247382,-3.711098 0.03903,-0.02442 0.09831,-0.186655 0.131748,-0.360508 0.03344,-0.173852 0.121493,-0.450898 0.195671,-0.615658 0.241172,-0.535673 0.5751,-1.201541 0.623637,-1.243568 0.02607,-0.02258 0.15883,-0.205308 0.295016,-0.406074 0.299528,-0.441569 0.306412,-0.449587 0.957028,-1.114804 0.285809,-0.292223 0.565809,-0.531312 0.622224,-0.531312 0.05641,0 0.102577,-0.03337 0.102577,-0.07419 0,-0.102314 1.296858,-0.889419 1.575752,-0.956369 0.124603,-0.02991 0.226549,-0.08363 0.226549,-0.11938 0,-0.03575 0.193222,-0.109333 0.429384,-0.163525 0.236161,-0.05418 0.449184,-0.129166 0.473384,-0.166618 0.02419,-0.03746 0.256316,-0.09347 0.515813,-0.124477 0.259497,-0.031 0.492891,-0.08901 0.518654,-0.128876 0.06042,-0.0935 2.586574,-0.09528 2.646934,-0.0019 0.02509,0.03885 0.21884,0.09332 0.430534,0.121087 1.002572,0.131435 2.628047,0.898325 3.540486,1.67038 0.150247,0.127132 0.34335,0.289651 0.429118,0.361154 0.08576,0.0715 0.29111,0.290396 0.456322,0.48643 0.165211,0.196035 0.359973,0.416163 0.432802,0.489175 0.07282,0.07301 0.183718,0.251216 0.246426,0.396012 0.06274,0.144794 0.147216,0.263263 0.18779,0.263263 0.04055,0 0.09801,0.09235 0.127628,0.205219 0.02959,0.112876 0.08377,0.205219 0.120357,0.205219 0.03654,0 0.08751,0.06464 0.113253,0.143654 0.02576,0.07901 0.18532,0.513048 0.354699,0.964529 0.245865,0.655352 0.318981,0.991126 0.362586,1.665176 0.03002,0.464365 0.08733,0.863644 0.127333,0.887288 0.04002,0.02363 0.07272,0.773354 0.07272,1.666024 0,1.601409 0.0027,1.624252 0.1931,1.714215 0.106206,0.05014 0.328277,0.115248 0.493485,0.144675 0.364199,0.06487 1.224251,0.439908 1.681957,0.733448 0.435569,0.279351 1.407709,1.191601 1.407709,1.32099 0,0.05524 0.05026,0.118891 0.111792,0.141459 0.141147,0.05181 0.832267,1.370162 0.832267,1.587603 0,0.08912 0.04242,0.202616 0.0943,0.25223 0.200087,0.191374 0.255738,2.283547 0.231339,8.696488 l -0.02522,6.637575 -0.214559,0.407317 c -0.266263,0.505471 -0.614394,0.85319 -1.115711,1.114393 l -0.38621,0.201228 -11.328754,0.0078 c -6.230826,0.0043 -11.492903,-0.0069 -11.693517,-0.02478 z M 45.686541,38.465982 c -5.43e-4,-5.510839 -0.008,-5.777067 -0.16232,-6.001321 -0.08893,-0.129065 -0.272163,-0.304284 -0.407098,-0.389376 -0.235893,-0.14875 -0.551229,-0.154711 -8.184059,-0.154711 -7.610026,0 -7.948789,0.0063 -8.182071,0.153464 -0.133848,0.08439 -0.317295,0.269752 -0.407664,0.411882 -0.157718,0.248056 -0.164305,0.488691 -0.164305,6.002568 v 5.744152 h 8.75404 8.754038 l -5.43e-4,-5.766658 z m -5.148874,-13.10946 c 0,-1.835316 -0.08765,-2.795022 -0.25528,-2.795022 -0.03818,0 -0.09302,-0.08997 -0.121878,-0.199952 -0.02886,-0.109975 -0.259856,-0.396252 -0.513334,-0.636177 -0.549184,-0.519825 -0.587514,-0.548422 -1.083458,-0.808394 -0.359371,-0.188381 -0.47096,-0.202448 -1.605918,-0.202448 -1.134906,0 -1.248101,0.01426 -1.62809,0.205218 -0.512795,0.257691 -0.563971,0.294086 -1.000141,0.711265 -0.49562,0.474046 -0.568788,0.568149 -0.676982,0.870688 -0.05212,0.14576 -0.136723,0.291335 -0.187993,0.323496 -0.06215,0.03899 -0.102082,0.7982 -0.119799,2.277932 l -0.02657,2.219457 h 3.609721 3.609727 z"
   id="path1048" /><path
   style="fill:#bfa38a;fill-opacity:1;stroke-width:0.00553606"
   d="m 36.144424,38.596153 c -0.247342,-0.04455 -0.449712,-0.115141 -0.449712,-0.156872 0,-0.04173 -0.05,-0.07586 -0.111107,-0.07586 -0.172971,0 -0.707585,-0.576336 -0.914289,-0.985638 -0.260532,-0.515893 -0.25919,-1.378493 0.0029,-1.888205 0.411512,-0.800174 1.13982,-1.246809 2.041942,-1.252226 0.932564,-0.0057 1.622483,0.405875 2.066305,1.232358 0.256618,0.477872 0.262505,1.392313 0.01235,1.918843 -0.183477,0.386191 -0.818756,1.011062 -1.150044,1.131207 -0.341782,0.123949 -1.037472,0.159423 -1.49839,0.0764 z"
   id="path1050" /><path
   style="fill:#bfa38a;fill-opacity:1;stroke-width:0.0209746"
   d="m 30.746822,2.1454893 c 3.626854,-0.050989 9.561706,-0.050989 13.188559,0 3.626854,0.050989 0.659428,0.092707 -6.594279,0.092707 -7.253708,0 -10.221134,-0.041718 -6.59428,-0.092707 z"
   id="path1052" /><path
   style="fill:#bfa38a;fill-opacity:1;stroke-width:0.0209746"
   d="m 24.311441,1.5889831 c 0,-0.4159777 1.659604,-0.476695 13.029661,-0.476695 11.370056,0 13.029661,0.060717 13.029661,0.476695 0,0.4159776 -1.659605,0.4766949 -13.029661,0.4766949 -11.370057,0 -13.029661,-0.060717 -13.029661,-0.4766949 z"
   id="path1054" /></svg>
