<?xml version="1.0" encoding="UTF-8" standalone="no"?>
<!-- Generator: Adobe Illustrator 27.0.0, SVG Export Plug-In . SVG Version: 6.00 Build 0)  -->

<svg
   version="1.1"
   id="Layer_1"
   x="0px"
   y="0px"
   viewBox="0 0 75 75"
   style="enable-background:new 0 0 75 75;"
   xml:space="preserve"
   sodipodi:docname="square-fast.svg"
   inkscape:version="1.2.2 (b0a8486541, 2022-12-01)"
   xmlns:inkscape="http://www.inkscape.org/namespaces/inkscape"
   xmlns:sodipodi="http://sodipodi.sourceforge.net/DTD/sodipodi-0.dtd"
   xmlns="http://www.w3.org/2000/svg"
   xmlns:svg="http://www.w3.org/2000/svg"><defs
   id="defs272"><pattern
     id="EMFhbasepattern"
     patternUnits="userSpaceOnUse"
     width="6"
     height="6"
     x="0"
     y="0" /></defs><sodipodi:namedview
   id="namedview270"
   pagecolor="#ffffff"
   bordercolor="#000000"
   borderopacity="0.25"
   inkscape:showpageshadow="2"
   inkscape:pageopacity="0.0"
   inkscape:pagecheckerboard="0"
   inkscape:deskcolor="#d1d1d1"
   showgrid="false"
   inkscape:zoom="4.4500587"
   inkscape:cx="39.662398"
   inkscape:cy="25.842356"
   inkscape:window-width="2560"
   inkscape:window-height="1494"
   inkscape:window-x="-11"
   inkscape:window-y="-11"
   inkscape:window-maximized="1"
   inkscape:current-layer="Layer_1" />
<style
   type="text/css"
   id="style253">
	.st0{fill:#181A2D;}
	.st1{fill:none;stroke:#BFA38A;}
	.st2{fill:none;}
</style>
<g
   id="g259">
	<path
   class="st0"
   d="M14,0h47c5.5,0,10,4.5,10,10v47c0,5.5-4.5,10-10,10H14C8.5,67,4,62.5,4,57V10C4,4.5,8.5,0,14,0z"
   id="path255" />
	<path
   class="st1"
   d="M14,0.5h47c5.2,0,9.5,4.3,9.5,9.5v47c0,5.2-4.3,9.5-9.5,9.5H14c-5.2,0-9.5-4.3-9.5-9.5V10   C4.5,4.8,8.8,0.5,14,0.5z"
   id="path257" />
</g>
<g
   id="g263">
	<circle
   shape-rendering="crispEdges"
   class="st1"
   cx="37"
   cy="34"
   r="21.5"
   id="circle261" />
</g>
<g
   id="g267">
	<rect
   x="26"
   y="23"
   shape-rendering="crispEdges"
   class="st2"
   width="22"
   height="21"
   id="rect265" />
</g>
<path
   style="fill:#bfa38a;fill-opacity:1;stroke-width:0.00463432"
   d="m 16.002131,29.896432 c -0.0092,-0.648467 0.358613,-2.771497 0.636072,-3.671802 0.07046,-0.228627 0.144007,-0.493621 0.163442,-0.588876 0.09157,-0.448877 0.533762,-1.579943 1.021668,-2.613325 0.129922,-0.275171 0.236221,-0.516453 0.236221,-0.536186 0,-0.0654 0.804448,-1.450614 1.080657,-1.860822 0.149336,-0.221796 0.27152,-0.41872 0.27152,-0.437618 0,-0.03563 0.111761,-0.18803 0.779114,-1.062496 0.650007,-0.851735 1.094605,-1.346932 1.993496,-2.220379 0.807047,-0.784205 1.49059,-1.383962 1.57728,-1.383962 0.03439,0 0.0625,-0.0248 0.0625,-0.05505 0,-0.09374 2.178939,-1.598143 2.562013,-1.768875 0.05867,-0.02615 0.234849,-0.124028 0.391422,-0.21747 0.510087,-0.304418 2.180958,-1.081125 2.989028,-1.389439 0.781417,-0.298152 1.082136,-0.391593 2.170597,-0.67446 1.904794,-0.495024 3.334321,-0.687853 5.39128,-0.727227 1.419284,-0.02717 1.824751,-0.01009 2.846692,0.119703 2.861599,0.363511 4.945296,0.966619 7.476903,2.164127 l 0.876496,0.414612 -0.129249,0.148912 c -0.07113,0.0819 -0.193299,0.212067 -0.271586,0.28925 -0.07827,0.07718 -0.353993,0.373425 -0.612694,0.658317 -1.642227,1.80855 -1.440633,1.631222 -1.679656,1.477447 -0.337339,-0.21704 -0.453289,-0.277959 -1.422127,-0.747183 -0.516422,-0.250114 -0.973225,-0.454754 -1.015094,-0.454754 -0.04185,0 -0.131752,-0.03012 -0.19972,-0.06696 -0.179552,-0.0973 -0.976196,-0.382685 -1.511339,-0.541427 -1.865725,-0.553431 -3.289214,-0.773445 -5.353361,-0.827397 -2.773793,-0.07249 -5.275159,0.375174 -7.954907,1.423693 -0.624929,0.244519 -2.221677,1.020424 -2.704355,1.314122 -0.498182,0.30313 -0.95052,0.592688 -0.996343,0.63779 -0.01957,0.01929 -0.17969,0.127406 -0.35583,0.240303 -0.176139,0.112897 -0.373136,0.253101 -0.437766,0.311564 -0.06461,0.05844 -0.223212,0.184229 -0.352398,0.27949 -0.774816,0.571317 -1.922788,1.648039 -2.732965,2.563333 -0.570663,0.644712 -1.387412,1.684227 -1.387412,1.765837 0,0.02269 -0.05601,0.100164 -0.124545,0.172207 -0.0685,0.07205 -0.188286,0.250006 -0.266196,0.395464 -0.07791,0.145458 -0.16046,0.280061 -0.183454,0.299112 -0.06295,0.05216 -0.636158,1.073525 -0.933132,1.662701 -0.44918,0.891154 -0.688753,1.480382 -1.047744,2.576925 -0.331024,1.011087 -0.402737,1.284663 -0.71379,2.722948 l -0.134846,0.623513 z"
   id="path1247" /><path
   style="fill:#bfa38a;fill-opacity:1;stroke-width:0.00463432"
   d="m 54.899836,30.866345 c -0.06038,-1.919703 -0.261171,-3.048681 -0.881063,-4.953478 -0.303882,-0.933776 -0.479665,-1.3529 -1.012401,-2.41396 -0.766456,-1.526548 -1.97897,-3.208909 -3.221683,-4.470103 -0.467217,-0.47416 -0.554671,-0.636478 -0.417446,-0.774771 0.03588,-0.03621 0.170501,-0.25287 0.299079,-0.48149 0.128579,-0.22862 0.307119,-0.540376 0.396767,-0.692795 0.08966,-0.15241 0.226288,-0.401819 0.303659,-0.554231 0.152175,-0.299779 0.457101,-0.837912 0.67438,-1.190132 l 0.135851,-0.220218 0.290114,0.195155 c 0.159565,0.107335 0.373181,0.268788 0.474713,0.358774 0.101478,0.09 0.389452,0.33509 0.639826,0.544665 1.230882,1.030248 2.904192,2.862682 3.732526,4.087478 0.115971,0.171469 0.229067,0.327347 0.251332,0.346399 0.02226,0.01903 0.150461,0.217258 0.284864,0.440457 0.134425,0.223199 0.29876,0.488193 0.365195,0.588876 0.213563,0.323605 0.850865,1.526554 1.161371,2.192157 1.075545,2.30558 1.813995,5.151518 1.944523,7.494075 l 0.04707,0.843251 -0.71167,0.04063 c -0.391422,0.02236 -1.61156,0.04819 -2.711437,0.05736 l -1.999756,0.01672 z"
   id="path1249" /><path
   style="fill:#bfa38a;fill-opacity:1;stroke-width:0.00463432"
   d="m 34.570328,37.870669 c -0.487108,-0.142971 -0.781012,-0.265328 -1.28323,-0.534186 -0.512994,-0.274632 -1.224196,-1.011158 -1.622049,-1.679786 -0.44313,-0.744735 -0.65106,-1.837278 -0.519894,-2.731816 0.09562,-0.65246 0.266176,-1.208633 0.457857,-1.49341 0.06634,-0.09857 0.120624,-0.198078 0.120624,-0.221128 0,-0.08191 0.416318,-0.625603 0.700266,-0.91452 0.315371,-0.320895 1.09616,-0.837668 1.534882,-1.015893 0.319268,-0.129694 1.115444,-0.318568 1.345426,-0.319178 0.09882,-2.75e-4 0.283022,-0.139882 0.504486,-0.382492 0.386268,-0.423142 0.410333,-0.449903 0.967816,-1.076555 0.215277,-0.241995 0.550125,-0.612741 0.744094,-0.823891 0.193981,-0.211152 0.38613,-0.424289 0.426998,-0.473646 0.04089,-0.04935 0.172333,-0.189644 0.292116,-0.311757 0.119783,-0.122112 0.533098,-0.580538 0.918493,-1.018732 0.385394,-0.438195 0.737822,-0.827891 0.783184,-0.865994 0.07869,-0.06612 2.267348,-2.465964 2.419747,-2.65325 0.04025,-0.04947 0.113447,-0.127399 0.162696,-0.173201 0.0493,-0.04582 0.368389,-0.39504 0.7092,-0.776077 0.622086,-0.695505 0.809326,-0.898792 1.33628,-1.450864 0.156573,-0.16403 0.460806,-0.495967 0.676083,-0.737634 0.360702,-0.404909 0.609436,-0.680426 1.174894,-1.301395 0.117078,-0.128565 0.30895,-0.331213 0.42637,-0.450313 0.117429,-0.119106 0.437231,-0.465961 0.71068,-0.77079 0.558068,-0.622116 0.843113,-0.934584 1.104093,-1.210287 0.607444,-0.641745 1.595641,-1.725087 1.919329,-2.104125 0.266783,-0.312424 0.721775,-0.296377 0.895992,0.0316 0.118836,0.223693 0.101585,0.27141 -0.423516,1.169793 -0.144753,0.247671 -0.32603,0.57502 -0.402836,0.727437 -0.07677,0.152411 -0.212999,0.401821 -0.302647,0.554232 -0.08966,0.152418 -0.260842,0.448583 -0.380422,0.658156 -0.119592,0.209568 -0.290732,0.50574 -0.380316,0.65815 -0.211252,0.359429 -0.335582,0.575989 -1.213015,2.113021 -0.402411,0.704919 -0.796314,1.390785 -0.875335,1.524151 -0.07901,0.133359 -0.250704,0.4427 -0.381519,0.687418 -0.130814,0.244718 -0.264589,0.478535 -0.29729,0.519593 -0.03269,0.04108 -0.164528,0.261708 -0.292968,0.490334 -0.288708,0.513928 -0.618029,1.089507 -0.832411,1.454863 -0.08945,0.152417 -0.202542,0.355058 -0.251354,0.450319 -0.04877,0.09526 -0.24488,0.438188 -0.43574,0.762069 -0.19085,0.323881 -0.377143,0.65123 -0.413986,0.727432 -0.03684,0.07621 -0.144114,0.263265 -0.238363,0.415682 -0.09424,0.152411 -0.220058,0.370643 -0.279572,0.48495 -0.05952,0.114313 -0.139216,0.254607 -0.177103,0.311763 -0.131293,0.19802 -0.802841,1.345189 -0.870074,1.486297 -0.03716,0.07797 -0.143178,0.266467 -0.235605,0.418885 -0.09243,0.152411 -0.258584,0.448582 -0.369242,0.658151 -0.110657,0.209568 -0.21943,0.396623 -0.241695,0.415674 -0.02226,0.01903 -0.164251,0.252871 -0.31551,0.519595 -0.305501,0.538729 -0.461275,0.809542 -0.687424,1.195073 -0.0838,0.142888 -0.231889,0.40009 -0.329055,0.571553 -0.09711,0.17147 -0.244549,0.420873 -0.327532,0.554238 -0.13945,0.224102 -0.149066,0.322048 -0.12697,1.292589 0.02257,0.990439 0.01299,1.080985 -0.167083,1.593426 -0.105099,0.298818 -0.22008,0.572926 -0.255645,0.609127 -0.03557,0.03621 -0.06464,0.121932 -0.06464,0.190515 0,0.06859 -0.02683,0.124708 -0.05974,0.124708 -0.0329,0 -0.09392,0.07015 -0.135627,0.155879 -0.138003,0.283482 -0.888752,1.091147 -1.014254,1.091147 -0.03535,0 -0.08998,0.04179 -0.12122,0.09278 -0.102863,0.167773 -0.988229,0.598738 -1.590434,0.774202 -0.781928,0.227837 -1.653377,0.230042 -2.416265,0.0064 z"
   id="path1251" /></svg>
