<?xml version="1.0" encoding="UTF-8" standalone="no"?>
<!-- Generator: Adobe Illustrator 27.0.0, SVG Export Plug-In . SVG Version: 6.00 Build 0)  -->

<svg
   version="1.1"
   id="Layer_1"
   x="0px"
   y="0px"
   viewBox="0 0 75 75"
   style="enable-background:new 0 0 75 75;"
   xml:space="preserve"
   sodipodi:docname="square-low-fee.svg"
   inkscape:version="1.2.2 (b0a8486541, 2022-12-01)"
   xmlns:inkscape="http://www.inkscape.org/namespaces/inkscape"
   xmlns:sodipodi="http://sodipodi.sourceforge.net/DTD/sodipodi-0.dtd"
   xmlns="http://www.w3.org/2000/svg"
   xmlns:svg="http://www.w3.org/2000/svg"><defs
   id="defs272"><pattern
     id="EMFhbasepattern"
     patternUnits="userSpaceOnUse"
     width="6"
     height="6"
     x="0"
     y="0" /></defs><sodipodi:namedview
   id="namedview270"
   pagecolor="#ffffff"
   bordercolor="#000000"
   borderopacity="0.25"
   inkscape:showpageshadow="2"
   inkscape:pageopacity="0.0"
   inkscape:pagecheckerboard="0"
   inkscape:deskcolor="#d1d1d1"
   showgrid="false"
   inkscape:zoom="5.6568543"
   inkscape:cx="23.953242"
   inkscape:cy="-13.258252"
   inkscape:window-width="2560"
   inkscape:window-height="1494"
   inkscape:window-x="-11"
   inkscape:window-y="-11"
   inkscape:window-maximized="1"
   inkscape:current-layer="Layer_1" />
<style
   type="text/css"
   id="style253">
	.st0{fill:#181A2D;}
	.st1{fill:none;stroke:#BFA38A;}
	.st2{fill:none;}
</style>
<g
   id="g259">
	<path
   class="st0"
   d="M14,0h47c5.5,0,10,4.5,10,10v47c0,5.5-4.5,10-10,10H14C8.5,67,4,62.5,4,57V10C4,4.5,8.5,0,14,0z"
   id="path255" />
	<path
   class="st1"
   d="M14,0.5h47c5.2,0,9.5,4.3,9.5,9.5v47c0,5.2-4.3,9.5-9.5,9.5H14c-5.2,0-9.5-4.3-9.5-9.5V10   C4.5,4.8,8.8,0.5,14,0.5z"
   id="path257" />
</g>


<path
   style="fill:#bfa38a;fill-opacity:1;stroke-width:0.00420202"
   d="m 36.130183,58.82572 c -0.65772,-0.0906 -1.704829,-0.433119 -2.12446,-0.694929 -1.048866,-0.654399 -1.60706,-1.277108 -2.117846,-2.362638 -0.401601,-0.853489 -0.557521,-1.492813 -0.558594,-2.29043 -0.0011,-0.780877 0.05419,-1.10417 0.529674,-3.099744 0.200684,-0.842254 0.440368,-1.974416 0.53263,-2.515906 0.155566,-0.913 0.167904,-1.117449 0.169843,-2.814276 0.0021,-1.764511 -0.0041,-1.860885 -0.173674,-2.703013 -0.191368,-0.950789 -0.526018,-2.082158 -0.759409,-2.567376 -0.144173,-0.299741 -0.156299,-0.308264 -0.503306,-0.353945 -0.503142,-0.06626 -1.610722,0.008 -2.508985,0.168217 -1.218963,0.217381 -2.223265,0.548397 -3.464988,1.142068 -1.265176,0.604886 -2.103853,1.131554 -4.217965,2.648795 -1.512684,1.085604 -2.266724,1.388762 -3.442604,1.384048 -0.666583,-0.0029 -1.562395,-0.172774 -2.130296,-0.404511 C 14.424556,43.980283 13.350401,42.926147 12.76277,41.813062 12.386463,41.100264 12.125,40.003424 12.125,39.13761 c 0,-0.435016 0.166411,-1.405734 0.311563,-1.817419 0.604313,-1.713982 1.821759,-2.93475 3.445231,-3.454615 0.492899,-0.157842 0.657153,-0.17797 1.484648,-0.181972 0.787654,-0.0037 1.004598,0.01801 1.413731,0.14213 1.424799,0.432259 2.637863,1.47974 3.280755,2.832937 0.28565,0.601253 0.546956,1.522117 0.546956,1.927525 0,0.155484 0.03794,0.303358 0.08936,0.348313 0.159155,0.139158 0.797951,-0.09619 2.109563,-0.777207 1.288942,-0.66925 3.559531,-1.748103 5.120494,-2.432969 0.494681,-0.21704 0.927332,-0.422365 0.961448,-0.456277 0.04038,-0.04017 0.07435,-3.031184 0.09732,-8.570024 0.03425,-8.2593 0.03903,-8.527492 0.163111,-9.161843 0.383413,-1.960275 1.065662,-3.306134 2.151129,-4.243488 0.422919,-0.36521 1.325121,-0.88635 1.534454,-0.88635 0.113996,0 0.116875,0.258461 0.116875,10.490442 0,9.208162 0.01124,10.494985 0.09193,10.527608 0.05056,0.02045 0.223014,-0.0099 0.383223,-0.06736 0.260232,-0.09342 1.002777,-0.104104 6.963856,-0.100199 5.626259,0.0037 6.633658,0.01794 6.424448,0.09095 -0.136463,0.04758 -0.471419,0.174663 -0.744346,0.282347 -0.272927,0.107675 -1.626708,0.628608 -3.008401,1.157625 -1.381694,0.529011 -2.721518,1.043762 -2.977388,1.143893 -0.255869,0.100131 -0.939737,0.365478 -1.519707,0.589655 -1.471271,0.568704 -1.885889,0.730502 -2.667244,1.040827 -0.375275,0.149044 -0.975404,0.38465 -1.33362,0.523563 -0.989831,0.383842 -1.116649,0.449245 -1.115359,0.575226 0.01351,1.320143 -0.193347,4.680696 -0.36964,6.005042 -0.148473,1.115359 -0.257282,2.503055 -0.220814,2.816128 0.0566,0.485908 0.138033,0.55363 0.510496,0.424551 0.44156,-0.153024 2.021713,-0.148918 2.559952,0.0067 2.154251,0.622657 3.647836,2.435125 3.91412,4.749791 0.316858,2.75429 -1.409991,5.360293 -3.980574,6.007117 -0.528649,0.133014 -1.356393,0.207339 -1.732384,0.155551 z m 1.749041,-2.651921 c 0.820606,-0.401881 1.358475,-1.052003 1.638242,-1.980129 0.329288,-1.092431 0.05533,-2.272556 -0.72004,-3.101664 -0.413347,-0.441996 -0.806453,-0.690201 -1.354807,-0.855408 -2.145403,-0.646357 -4.210917,1.347579 -3.794166,3.662696 0.167592,0.930994 0.829686,1.817122 1.675355,2.242252 0.583052,0.293101 0.633608,0.30312 1.426665,0.282776 0.599715,-0.01542 0.689121,-0.0352 1.128751,-0.250523 z M 18.644691,42.058413 c 0.882773,-0.451417 1.435963,-1.15146 1.669241,-2.112381 0.149095,-0.614155 0.153583,-0.901312 0.02284,-1.461561 -0.422112,-1.808806 -2.101949,-2.861277 -3.766449,-2.359798 -0.551056,0.166023 -0.922601,0.399776 -1.348052,0.848116 -0.717037,0.755619 -1.025224,1.939798 -0.771704,2.96521 0.264836,1.07119 0.968943,1.858773 2.032282,2.273237 0.264194,0.102977 0.453558,0.123202 1.007651,0.107639 0.642031,-0.01801 0.710178,-0.03342 1.154191,-0.260462 z"
   id="path2063" /><path
   style="fill:#bfa38a;fill-opacity:1;stroke-width:0.00420202"
   d="M 25.166405,20.362501 25.182085,8.7795243 43.341045,8.7630743 61.5,8.7466243 V 20.34604 31.945468 H 48.784078 36.068155 v -3.672811 -3.67282 l 0.306785,0.487093 c 1.259588,1.999857 2.9965,3.262038 5.275815,3.833832 0.666768,0.167269 2.745024,0.167239 3.41159,-4.3e-5 1.336735,-0.335478 2.454419,-0.900194 3.442603,-1.739396 1.022292,-0.868171 1.689884,-1.746473 2.264785,-2.979624 1.117244,-2.396476 1.148026,-5.116647 0.08537,-7.543597 -0.526048,-1.20141 -1.641909,-2.613199 -2.691313,-3.405065 -2.594582,-1.957822 -6.106061,-2.162256 -8.870133,-0.516396 -1.196577,0.712493 -2.384442,1.929237 -3.058789,3.133159 l -0.164715,0.294065 -0.0165,-2.646601 c -0.01625,-2.605861 -0.01845,-2.646904 -0.142802,-2.665654 -0.193784,-0.0292 -1.434124,0.40154 -2.084006,0.723774 -2.111846,1.047126 -3.504138,3.379319 -3.869462,6.481626 -0.07591,0.64469 -0.09211,1.934469 -0.09211,7.335346 v 6.553112 H 27.508 25.150731 Z"
   id="path2065" /><path
   style="fill:#bfa38a;fill-opacity:1;stroke-width:0.00524807"
   d="m 41.258797,21.683629 c -1.251406,-0.752462 -2.275284,-1.393676 -2.275284,-1.424921 0,-0.105141 4.530274,-7.656311 4.593353,-7.656311 0.03432,0 0.14865,0.152794 0.254074,0.339545 0.105425,0.186752 1.123444,1.901409 2.262264,3.810347 1.138823,1.908946 2.070586,3.49236 2.070586,3.5187 0,0.02639 -0.240389,0.188886 -0.534198,0.361216 -0.293808,0.172321 -1.330824,0.790976 -2.304479,1.374792 -0.973656,0.583807 -1.774952,1.057709 -1.780657,1.053106 -0.0058,-0.0045 -1.034253,-0.624012 -2.285659,-1.376474 z"
   id="path2079" /><path
   style="fill:#bfa38a;fill-opacity:1;stroke-width:0.00524807"
   d="m 43.397798,27.639172 c -0.06352,-0.07514 -0.732587,-1.01743 -1.486824,-2.094 -0.754237,-1.076563 -1.721467,-2.454342 -2.1494,-3.061717 -0.427934,-0.607383 -0.778061,-1.120147 -0.778061,-1.13949 0,-0.01935 0.151356,0.06136 0.336346,0.179266 0.18499,0.11794 1.202022,0.728806 2.26007,1.357487 l 1.923723,1.143048 2.21814,-1.323004 c 1.219976,-0.727649 2.228914,-1.311101 2.242085,-1.296561 0.01317,0.01452 -0.535289,0.817398 -1.218799,1.784107 -0.68351,0.966715 -1.690281,2.394371 -2.237269,3.172564 -0.905414,1.288127 -1.004872,1.402666 -1.110011,1.2783 z"
   id="path2081" /></svg>
