<svg width="90" height="40" viewBox="0 0 90 48" fill="none" xmlns="http://www.w3.org/2000/svg">
<g clip-path="url(#clip0_180_26899)">
<path fill="#9b816a" fill-rule="evenodd" clip-rule="evenodd" d="M83.3077 23.5583L59.6755 0.00878906V17.2553L36.2109 34.5231L59.6755 34.5393V47.1077L83.3077 23.5583Z" />
<path fill="#bfa38a" fill-rule="evenodd" clip-rule="evenodd" d="M-0.00292969 23.5495L23.6292 47.0989V29.9911L47.094 12.5845L23.6292 12.5684V0L-0.00292969 23.5495Z"/>
<!-- <path d="M118.517 35.3186H100.43V30.1244L110.784 18.582H100.696V13.4766H118.339V18.4044L107.674 30.1688H118.517V35.3186Z" fill="white" fill-opacity="0.9"/>
<path d="M143.201 13.4762L134.447 22.6658L143.379 35.3182H136.135L130.358 26.972L127.914 29.5468V35.3182H122.003V3.17676H127.914V21.6004L135.469 13.4762H143.201Z" fill="white" fill-opacity="0.9"/>
<path d="M168.909 11.3453L163.399 13.0323C163.191 11.9076 162.628 10.8866 161.71 9.96908C160.791 9.0516 159.443 8.59286 157.666 8.59286C156.214 8.59286 155.029 8.9924 154.11 9.7915C153.192 10.561 152.733 11.4933 152.733 12.5883C152.733 14.5121 153.873 15.6959 156.155 16.1399L160.554 16.9834C163.339 17.516 165.502 18.6258 167.043 20.3128C168.583 21.9998 169.354 23.9828 169.354 26.2616C169.354 28.8662 168.317 31.145 166.243 33.0984C164.198 35.0222 161.443 35.984 157.977 35.984C155.992 35.984 154.199 35.688 152.599 35.0962C150.999 34.5042 149.711 33.72 148.733 32.7432C147.755 31.737 146.985 30.6864 146.422 29.5912C145.889 28.4666 145.563 27.3124 145.444 26.1286L151.133 24.6192C151.281 26.306 151.933 27.712 153.088 28.8366C154.273 29.9612 155.918 30.5236 158.021 30.5236C159.621 30.5236 160.865 30.1684 161.754 29.458C162.673 28.7478 163.132 27.8154 163.132 26.6612C163.132 25.7438 162.791 24.9594 162.11 24.3084C161.458 23.6276 160.525 23.169 159.31 22.9322L154.91 22.0442C152.362 21.5116 150.348 20.4608 148.866 18.8922C147.385 17.3236 146.644 15.3704 146.644 13.0323C146.644 10.2502 147.711 7.91214 149.844 6.018C152.007 4.12384 154.599 3.17676 157.621 3.17676C159.428 3.17676 161.043 3.42834 162.465 3.93148C163.887 4.4346 165.028 5.11532 165.887 5.9736C166.746 6.8023 167.413 7.66058 167.887 8.54846C168.361 9.43634 168.702 10.3686 168.909 11.3453Z" fill="white" fill-opacity="0.9"/>
<path d="M179.311 43.931H173.045L178.2 32.566L168.912 13.4766H175.534L181.356 26.262L186.733 13.4766H193.044L179.311 43.931Z" fill="white" fill-opacity="0.9"/>
<path d="M201.202 22.755V35.3186H195.291V13.4765H201.024V16.1846C201.646 15.1191 202.534 14.3052 203.69 13.7429C204.846 13.1806 206.06 12.8994 207.334 12.8994C209.912 12.8994 211.868 13.7133 213.2 15.3411C214.564 16.9394 215.244 19.011 215.244 21.5564V35.3186H209.334V22.5774C209.334 21.2752 208.994 20.2244 208.312 19.4254C207.66 18.6262 206.652 18.2268 205.29 18.2268C204.046 18.2268 203.054 18.6558 202.312 19.5142C201.572 20.3724 201.202 21.4528 201.202 22.755Z" fill="white" fill-opacity="0.9"/>
<path d="M229.732 18.2711C228.162 18.2711 226.844 18.8185 225.776 19.9137C224.71 21.0087 224.176 22.5033 224.176 24.3975C224.176 26.2915 224.71 27.8009 225.776 28.9257C226.872 30.0207 228.206 30.5683 229.776 30.5683C231.168 30.5683 232.28 30.2131 233.11 29.5027C233.94 28.7629 234.502 27.8897 234.798 26.8835L239.998 28.6149C239.464 30.6275 238.31 32.3587 236.532 33.8091C234.754 35.2593 232.502 35.9843 229.776 35.9843C226.518 35.9843 223.776 34.8893 221.554 32.6991C219.362 30.4795 218.266 27.7123 218.266 24.3975C218.266 21.0531 219.348 18.2859 221.51 16.0957C223.702 13.9056 226.398 12.8105 229.598 12.8105C232.384 12.8105 234.664 13.5356 236.442 14.9859C238.22 16.4065 239.36 18.1379 239.864 20.1799L234.576 21.9557C233.864 19.4993 232.25 18.2711 229.732 18.2711Z" fill="white" fill-opacity="0.9"/> -->
</g>
<defs>
<clipPath id="clip0_180_26899">
<rect width="240" height="48" fill="white"/>
</clipPath>
</defs>
</svg>
