<?xml version="1.0" encoding="utf-8"?>
<!-- Generator: Adobe Illustrator 27.0.0, SVG Export Plug-In . SVG Version: 6.00 Build 0)  -->
<svg version="1.1" id="Layer_2_00000096746502776605582450000017849393600359852187_"
	 xmlns="http://www.w3.org/2000/svg" xmlns:xlink="http://www.w3.org/1999/xlink" x="0px" y="0px" viewBox="0 0 342.2 477.7"
	 style="enable-background:new 0 0 342.2 477.7;" xml:space="preserve">
<style type="text/css">
	.st0{fill:#FCF5ED;}
</style>
<g id="Layer_1-2">
	<path class="st0" d="M342.2,133.1v211.5c0,53.2-13.2,88.7-39.5,106.5c-26.3,17.8-67.7,26.6-124.3,26.6H17.7
		C5.9,477.7,0,468.8,0,451.1V26.6C0,8.9,5.9,0,17.7,0h165.2c26.6,0,48.7,1.6,66.4,4.8s34,9.5,49,18.9s26,23.1,33.2,41
		C338.6,82.7,342.2,105.5,342.2,133.1L342.2,133.1z M292,140c0,0-8.1,233.8-243.3,283C48.7,423.1,359,516.2,292,140z"/>
</g>
</svg>
