<?xml version="1.0" encoding="UTF-8"?>
<svg id="Layer_2" data-name="Layer 2" xmlns="http://www.w3.org/2000/svg" viewBox="0 0 342.18 477.72">
  <defs>
    <style>
      .cls-1 {
        fill: #fcf5ed;
      }
    </style>
  </defs>
  <g id="Layer_1-2" data-name="Layer 1">
    <path class="cls-1" d="M342.18,133.11v211.5c0,53.25-13.16,88.74-39.45,106.49-26.31,17.75-67.73,26.62-124.26,26.62H17.7c-11.8,0-17.7-8.87-17.7-26.62V26.62C0,8.87,5.9,0,17.7,0H182.89c26.55,0,48.67,1.61,66.37,4.81,17.7,3.21,34.04,9.5,49.04,18.86,14.99,9.37,26.05,23.05,33.19,41.04,7.12,18,10.69,40.8,10.69,68.4Zm-50.16,6.92s-8.08,233.84-243.29,283.03c.01,.01,310.25,93.19,243.29-283.03Z"/>
  </g>
</svg>