<?xml version="1.0" encoding="UTF-8" standalone="no"?>
<!-- Created with Inkscape (http://www.inkscape.org/) -->

<svg
   xmlns:dc="http://purl.org/dc/elements/1.1/"
   xmlns:cc="http://creativecommons.org/ns#"
   xmlns:rdf="http://www.w3.org/1999/02/22-rdf-syntax-ns#"
   xmlns:svg="http://www.w3.org/2000/svg"
   xmlns="http://www.w3.org/2000/svg"
   xmlns:sodipodi="http://sodipodi.sourceforge.net/DTD/sodipodi-0.dtd"
   xmlns:inkscape="http://www.inkscape.org/namespaces/inkscape"
   width="200"
   height="200"
   viewBox="0 0 52.916667 52.916667"
   version="1.1"
   id="svg4373"
   inkscape:version="0.92.5 (2060ec1f9f, 2020-04-08)"
   sodipodi:docname="CPC.svg">
  <defs
     id="defs4367" />
  <sodipodi:namedview
     id="base"
     pagecolor="#ffffff"
     bordercolor="#666666"
     borderopacity="1.0"
     inkscape:pageopacity="0.0"
     inkscape:pageshadow="2"
     inkscape:zoom="2.8"
     inkscape:cx="156.46423"
     inkscape:cy="115.77671"
     inkscape:document-units="mm"
     inkscape:current-layer="layer1"
     showgrid="false"
     units="px"
     inkscape:window-width="1920"
     inkscape:window-height="1163"
     inkscape:window-x="1920"
     inkscape:window-y="0"
     inkscape:window-maximized="1" />
  <metadata
     id="metadata4370">
    <rdf:RDF>
      <cc:Work
         rdf:about="">
        <dc:format>image/svg+xml</dc:format>
        <dc:type
           rdf:resource="http://purl.org/dc/dcmitype/StillImage" />
        <dc:title></dc:title>
      </cc:Work>
    </rdf:RDF>
  </metadata>
  <g
     inkscape:label="Layer 1"
     inkscape:groupmode="layer"
     id="layer1"
     transform="translate(0,-244.08332)">
    <g
       id="g4415"
       transform="matrix(1.196587,0,0,1.196587,-0.48956265,-63.416532)">
      <path
         inkscape:connector-curvature="0"
         id="path3829-6"
         style="fill:#f2f2f0;fill-opacity:1;fill-rule:nonzero;stroke:none;stroke-width:0.03527777"
         d="m 40.141601,282.0323 h -1.763892 c -7.94e-4,1.42064 -0.570791,2.69064 -1.500717,3.62339 -0.933098,0.93027 -2.202741,1.50001 -3.623381,1.50106 -1.420635,-10e-4 -2.690283,-0.57079 -3.623376,-1.50106 -0.929926,-0.93275 -1.500015,-2.20275 -1.500721,-3.62339 7.15e-4,-1.42028 0.570795,-2.69028 1.500721,-3.62302 0.933093,-0.93028 2.202741,-1.50037 3.623376,-1.50107 1.42064,10e-4 2.690283,0.57079 3.623381,1.50107 0.929926,0.93274 1.500011,2.20274 1.500717,3.62302 h 1.763892 1.763885 c 0.0011,-2.38336 -0.971193,-4.55753 -2.534002,-6.11787 -1.559983,-1.5628 -3.734149,-2.53471 -6.117873,-2.534 -2.383719,-7.2e-4 -4.557536,0.9712 -6.117872,2.534 -1.562804,1.56034 -2.535059,3.73451 -2.534001,6.11787 -0.0011,2.38372 0.971197,4.55789 2.534001,6.11788 1.560336,1.56316 3.734153,2.53506 6.117872,2.53435 2.383724,7.9e-4 4.55789,-0.97119 6.117873,-2.53435 1.562809,-1.55999 2.53506,-3.73416 2.534002,-6.11788 h -1.763885" />
      <path
         inkscape:connector-curvature="0"
         id="path3831-0"
         style="fill:#f2f2f0;fill-opacity:1;fill-rule:nonzero;stroke:none;stroke-width:0.03527777"
         d="M 28.441017,265.51031 H 7.6849893 c -2.3378584,0 -4.2333333,1.89547 -4.2333333,4.23333 v 14.19896 c 0,8.06944 6.541911,14.61135 14.61135,14.61135 8.069788,0 14.611345,-6.54191 14.611345,-14.61135 v -14.19896 c 0,-2.33786 -1.895825,-4.23333 -4.233334,-4.23333" />
      <path
         inkscape:connector-curvature="0"
         id="path3833-6"
         style="fill:#95634c;fill-opacity:1;fill-rule:nonzero;stroke:none;stroke-width:0.03527777"
         d="M 7.6856947,271.86031 H 28.441017 c 1.168753,0 2.116667,-0.94756 2.116667,-2.11667 0,-1.16875 -0.947914,-2.11666 -2.116667,-2.11666 H 7.6856947 c -1.1691054,0 -2.1166665,0.94791 -2.1166665,2.11666 0,1.16911 0.9475611,2.11667 2.1166665,2.11667" />
      <path
         inkscape:connector-curvature="0"
         id="path3835-2"
         style="fill:#a8806a;fill-opacity:1;fill-rule:nonzero;stroke:none;stroke-width:0.03527777"
         d="M 7.6856947,271.86031 H 18.063006 c 1.168752,0 2.116666,-0.94756 2.116666,-2.11667 0,-1.16875 -0.947914,-2.11666 -2.116666,-2.11666 H 7.6856947 c -1.1691054,0 -2.1166665,0.94791 -2.1166665,2.11666 0,1.16911 0.9475611,2.11667 2.1166665,2.11667" />
      <path
         inkscape:connector-curvature="0"
         id="path3837-6"
         style="fill:#ffffff;fill-opacity:1;fill-rule:nonzero;stroke:none;stroke-width:0.03527777"
         d="M 25.542949,266.21587 H 24.12196 c -0.235652,0 -0.33196,-0.28752 -0.155575,-0.4438 0.403578,-0.35842 0.642056,-0.89888 0.585611,-1.49295 -0.08749,-0.91687 -0.910163,-1.59103 -1.831266,-1.59103 h -1.420988 c -0.235656,0 -0.331964,-0.28752 -0.155575,-0.4438 0.403577,-0.35842 0.642055,-0.89887 0.585611,-1.49295 -0.08749,-0.91687 -0.910167,-1.59103 -1.83127,-1.59103 H 16.22715 c -0.921103,0 -1.74378,0.67416 -1.830564,1.59103 -0.05644,0.59408 0.181328,1.13453 0.584906,1.49295 0.176389,0.15628 0.08008,0.4438 -0.155575,0.4438 h -1.420989 c -0.921103,0 -1.743781,0.67416 -1.830564,1.59103 -0.05644,0.59407 0.181328,1.13453 0.584906,1.49295 0.176388,0.15628 0.08008,0.4438 -0.155575,0.4438 h -1.420989 c -0.921103,0 -1.7437806,0.67415 -1.830564,1.59102 -0.1005416,1.05199 0.7242527,1.93675 1.755775,1.93675 h 15.110879 c 1.030464,0 1.855257,-0.88476 1.755421,-1.93675 -0.08749,-0.91687 -0.910165,-1.59102 -1.831268,-1.59102" />
      <path
         inkscape:connector-curvature="0"
         id="path3839-1"
         style="fill:#ffffff;fill-opacity:1;fill-rule:nonzero;stroke:none;stroke-width:0.03527777"
         d="M 18.063006,274.68253 H 6.273878 v 9.26007 c 0,6.50063 5.288844,11.78913 11.789128,11.78913 v -21.0492" />
      <path
         inkscape:connector-curvature="0"
         id="path3841-8"
         style="fill:#ffffff;fill-opacity:1;fill-rule:nonzero;stroke:none;stroke-width:0.03527777"
         d="m 18.063006,274.68253 v -1.41111 H 6.273878 c -0.3718276,0 -0.7351887,0.15064 -0.9980082,0.41346 -0.2628194,0.26282 -0.4131027,0.62618 -0.4131027,0.99765 v 9.26007 c -7.065e-4,3.63714 1.4830776,6.94513 3.8703249,9.33026 2.384778,2.38725 5.692775,3.87068 9.329914,3.86998 0.371475,0 0.734836,-0.15029 0.997655,-0.4131 0.26282,-0.26283 0.413456,-0.62619 0.413456,-0.99801 v -21.0492 c 0,-0.37147 -0.150636,-0.73483 -0.413456,-0.99765 -0.262819,-0.26282 -0.62618,-0.41346 -0.997655,-0.41346 v 1.41111 h -1.411112 v 21.0492 h 1.411112 v -1.41112 c -2.863498,-3.5e-4 -5.450064,-1.16099 -7.334603,-3.04341 -1.8820693,-1.88454 -3.043061,-4.47075 -3.0434137,-7.3346 v -7.84896 H 18.063006 v -1.41111 h -1.411112 1.411112" />
    </g>
  </g>
</svg>
