<?xml version="1.0" encoding="UTF-8" standalone="no"?>
<!-- Created with Inkscape (http://www.inkscape.org/) -->

<svg
   xmlns:dc="http://purl.org/dc/elements/1.1/"
   xmlns:cc="http://creativecommons.org/ns#"
   xmlns:rdf="http://www.w3.org/1999/02/22-rdf-syntax-ns#"
   xmlns:svg="http://www.w3.org/2000/svg"
   xmlns="http://www.w3.org/2000/svg"
   xmlns:sodipodi="http://sodipodi.sourceforge.net/DTD/sodipodi-0.dtd"
   xmlns:inkscape="http://www.inkscape.org/namespaces/inkscape"
   width="200"
   height="200"
   viewBox="0 0 52.916665 52.916668"
   version="1.1"
   id="svg4327"
   inkscape:version="0.92.5 (2060ec1f9f, 2020-04-08)"
   sodipodi:docname="ESP.svg">
  <defs
     id="defs4321" />
  <sodipodi:namedview
     id="base"
     pagecolor="#ffffff"
     bordercolor="#666666"
     borderopacity="1.0"
     inkscape:pageopacity="0.0"
     inkscape:pageshadow="2"
     inkscape:zoom="2.8"
     inkscape:cx="149.74238"
     inkscape:cy="107.53712"
     inkscape:document-units="mm"
     inkscape:current-layer="layer1"
     showgrid="false"
     units="px"
     inkscape:window-width="1920"
     inkscape:window-height="1163"
     inkscape:window-x="1920"
     inkscape:window-y="0"
     inkscape:window-maximized="1" />
  <metadata
     id="metadata4324">
    <rdf:RDF>
      <cc:Work
         rdf:about="">
        <dc:format>image/svg+xml</dc:format>
        <dc:type
           rdf:resource="http://purl.org/dc/dcmitype/StillImage" />
        <dc:title></dc:title>
      </cc:Work>
    </rdf:RDF>
  </metadata>
  <g
     inkscape:label="Layer 1"
     inkscape:groupmode="layer"
     id="layer1"
     transform="translate(0,-244.08332)">
    <g
       id="g4365"
       transform="matrix(1.2829249,0,0,1.2829249,-7.1025301,-76.104657)">
      <path
         inkscape:connector-curvature="0"
         id="path3843-9"
         style="fill:#f2f2f0;fill-opacity:1;fill-rule:nonzero;stroke:none;stroke-width:0.03527777"
         d="m 38.64036,265.06574 v 1.76389 c 0.67134,7.2e-4 1.26295,0.26705 1.70462,0.70591 0.43886,0.44168 0.70521,1.03329 0.70627,1.70462 -0.001,0.67099 -0.26741,1.26259 -0.70627,1.70427 -0.44167,0.43921 -1.03328,0.7052 -1.70462,0.70626 h -5.785201 v -4.82106 h 5.785201 v -1.76389 -1.76389 h -9.312978 v 11.87662 h 9.312978 c 1.63442,7.1e-4 3.1302,-0.66746 4.19911,-1.73955 1.0721,-1.06891 1.74026,-2.56469 1.73956,-4.19876 7.9e-4,-1.63442 -0.66746,-3.1302 -1.73956,-4.19911 -1.06891,-1.07209 -2.56469,-1.74025 -4.19911,-1.7392 v 1.76389" />
      <path
         inkscape:connector-curvature="0"
         id="path3845-1"
         style="fill:#f2f2f0;fill-opacity:1;fill-rule:nonzero;stroke:none;stroke-width:0.03527777"
         d="m 37.522762,262.53809 c 0,-2.33751 -1.895475,-4.23333 -4.233333,-4.23333 H 12.534103 c -2.337858,0 -4.2333324,1.89582 -4.2333324,4.23333 v 5.87057 c 0,8.06944 6.5419104,14.61135 14.6113484,14.61135 8.069438,0 14.611349,-6.54191 14.611349,-14.61135 v -5.87128 l -7.06e-4,7.1e-4" />
      <path
         inkscape:connector-curvature="0"
         id="path3847-2"
         style="fill:#482b20;fill-opacity:1;fill-rule:nonzero;stroke:none;stroke-width:0.03527777"
         d="m 12.534103,264.65476 h 20.755326 c 1.168756,0 2.116666,-0.94756 2.116666,-2.11667 0,-1.16875 -0.94791,-2.11667 -2.116666,-2.11667 H 12.534103 c -1.169105,0 -2.116667,0.94792 -2.116667,2.11667 0,1.16911 0.947562,2.11667 2.116667,2.11667" />
      <path
         inkscape:connector-curvature="0"
         id="path3849-7"
         style="fill:#754634;fill-opacity:1;fill-rule:nonzero;stroke:none;stroke-width:0.03527777"
         d="m 12.534103,264.65476 h 10.377663 c 1.168753,0 2.116667,-0.94756 2.116667,-2.11667 0,-1.16875 -0.947914,-2.11667 -2.116667,-2.11667 H 12.534103 c -1.169105,0 -2.116667,0.94792 -2.116667,2.11667 0,1.16911 0.947562,2.11667 2.116667,2.11667" />
      <path
         inkscape:connector-curvature="0"
         id="path3851-0"
         style="fill:#ffffff;fill-opacity:1;fill-rule:nonzero;stroke:none;stroke-width:0.03527777"
         d="M 22.912119,267.47698 H 11.122992 v 0.93168 c 0,6.50064 5.288492,11.78913 11.789127,11.78913 v -12.72081" />
      <path
         inkscape:connector-curvature="0"
         id="path3853-9"
         style="fill:#ffffff;fill-opacity:1;fill-rule:nonzero;stroke:none;stroke-width:0.03527777"
         d="m 22.912119,267.47698 v -1.41111 H 11.122992 c -0.371828,0 -0.735189,0.15063 -0.998008,0.41345 -0.2628204,0.26282 -0.4131024,0.62618 -0.4131024,0.99766 v 0.93168 c -7.06e-4,3.63714 1.4827244,6.94514 3.8699714,9.33027 2.385131,2.3869 5.693127,3.87068 9.330266,3.86997 0.371475,0 0.734836,-0.15063 0.997656,-0.41345 0.262819,-0.26247 0.413455,-0.62618 0.413455,-0.99766 v -12.72081 c 0,-0.37148 -0.150636,-0.73484 -0.413455,-0.99766 -0.26282,-0.26282 -0.626181,-0.41345 -0.997656,-0.41345 v 1.41111 h -1.411111 v 12.72081 h 1.411111 v -1.41111 c -2.86385,-7e-4 -5.450063,-1.16134 -7.334602,-3.04341 -1.882422,-1.88454 -3.043061,-4.47111 -3.043414,-7.33461 v -0.93168 h -1.411111 v 1.41111 h 11.789127 v -1.41111 h -1.411111 1.411111" />
    </g>
  </g>
</svg>
