<?xml version="1.0" encoding="utf-8"?>
<!-- Generator: Adobe Illustrator 27.0.0, SVG Export Plug-In . SVG Version: 6.00 Build 0)  -->
<svg version="1.1" id="Layer_1" xmlns="http://www.w3.org/2000/svg" xmlns:xlink="http://www.w3.org/1999/xlink" x="0px" y="0px"
	 viewBox="0 0 51 51" style="enable-background:new 0 0 51 51;" xml:space="preserve">
<style type="text/css">
	.st0{fill:none;stroke:#23344D;stroke-miterlimit:10;}
	.st1{fill:#23344D;}
</style>
<circle class="st0" cx="25.5" cy="25.5" r="25"/>
<path class="st1" d="M36.4,35.5L28,15c-0.3-0.9-1.2-1.5-2.1-1.5h-0.7c-1,0-1.8,0.6-2.1,1.6L19.3,24h-2.8c-0.8,0-1.5,0.7-1.5,1.5l0,0
	c0,0.8,0.7,1.5,1.5,1.5H18l-3.5,8.5c-0.1,0.2-0.1,0.4-0.1,0.6c0,0.4,0.1,0.8,0.4,1.1c0.5,0.5,1.4,0.6,2,0.1c0.3-0.2,0.5-0.5,0.6-0.8
	l3.9-9.6H24c0.8,0,1.5-0.7,1.5-1.5l0,0l0,0c0-0.8-0.7-1.5-1.5-1.5h-1.5l3-7.4l8,20c0.1,0.3,0.3,0.6,0.6,0.8c0.6,0.4,1.5,0.4,2-0.1
	c0.3-0.3,0.4-0.7,0.4-1.1C36.5,35.8,36.5,35.6,36.4,35.5L36.4,35.5z"/>
</svg>
