<svg id="Layer_1" data-name="Layer 1" xmlns="http://www.w3.org/2000/svg" xmlns:xlink="http://www.w3.org/1999/xlink" viewBox="0 0 61.22 58.39"><defs><clipPath id="clip-path" transform="translate(5.24 4.95)"><circle cx="25" cy="25" r="25" style="fill:none"/></clipPath></defs><title>ape</title><path d="M50,25A25,25,0,1,0,25,50,25,25,0,0,0,50,25Z" transform="translate(5.24 4.95)" style="fill:none;stroke:#11142b;stroke-miterlimit:10"/><path d="M42,17.19a4.15,4.15,0,0,1-.38,1.24h0a6.59,6.59,0,0,0-.48,1.64c-.06.32-.11.59-.14.81v0h0a5.55,5.55,0,0,1-.21,1A4.48,4.48,0,0,1,40,23.41c-.38.49-1,1.32-1.83,1.43a.77.77,0,0,1-.3,0,39.38,39.38,0,0,0-5.09-2.29c-.81-.24-.7-2-.62-3.58A17.89,17.89,0,0,0,32.24,17c-.11-2-.46-4.15-2.18-5.2A7.27,7.27,0,0,0,26.43,11c.24-.11.48-.27.78-.43h0a7.3,7.3,0,0,1,2.61-1.08,8.65,8.65,0,0,0,.89-.11,11.15,11.15,0,0,1,5.17.19,5.74,5.74,0,0,1,2.75,2,8,8,0,0,0,1.72,1.91l1.08,1h0a1.47,1.47,0,0,1,.52.53A3.6,3.6,0,0,1,42,17.19Z" transform="translate(5.24 4.95)" style="fill:#11142b"/><path d="M33.4,25.35a.18.18,0,0,1,.12.21l0,.06c-.25.38-.54.91-.89,1.53-.17.3-.33.6-.46.81a3.89,3.89,0,0,0-.51,2c0,.57-.06.81-.4,1s-.57.25-2.51.54a1.66,1.66,0,0,0-.62.19s-.08,0-.11.06-.21-.06-.21-.17c0-.26,0-.62,0-1.07v-.09c0-.37,0-.7,0-.94a1.36,1.36,0,0,1,.11-.91,1.33,1.33,0,0,1,.48-.49,3.86,3.86,0,0,0,1.27-1.24,2.25,2.25,0,0,0,.43-.86c0-.08,0-.11.27-.3a2.65,2.65,0,0,1,2-.62A6.19,6.19,0,0,1,33.4,25.35Z" transform="translate(5.24 4.95)" style="fill:#11142b"/><path d="M25.67,34.29a.15.15,0,0,1-.16.08.5.5,0,0,1-.43-.16,1.63,1.63,0,0,1-.13-1l.83-.22A2.21,2.21,0,0,1,25.67,34.29Z" transform="translate(5.24 4.95)" style="fill:#11142b"/><path d="M25.73,31.33a1.35,1.35,0,0,0,0,.4v.62a2.14,2.14,0,0,1-.75.08v-.7a2.57,2.57,0,0,1,0-.48.84.84,0,0,0,.24-.06,2,2,0,0,1,.54-.05A.41.41,0,0,1,25.73,31.33Z" transform="translate(5.24 4.95)" style="fill:#11142b"/><path d="M24.22,34.05c0,.43-.16.94-.57,1a.3.3,0,0,1-.32-.08c-.27-.24-.3-1-.27-1.53a3.94,3.94,0,0,0,.68-.08l.45-.11A3.4,3.4,0,0,1,24.22,34.05Z" transform="translate(5.24 4.95)" style="fill:#11142b"/><path d="M24,32.54l-.89.33c.06-.35.11-.84.14-1.16a.64.64,0,0,1,.1-.33l.06,0h0l.57,0C24,31.6,24,32.19,24,32.54Z" transform="translate(5.24 4.95)" style="fill:#11142b"/><path d="M22.58,32.27a4.26,4.26,0,0,0-.14.78l-1.1,0a8.08,8.08,0,0,1,.24-1c.11-.27.19-.49.3-.54a.49.49,0,0,1,.51.05A.55.55,0,0,1,22.58,32.27Z" transform="translate(5.24 4.95)" style="fill:#11142b"/><path d="M22.17,35.69a.38.38,0,0,1-.3.19.36.36,0,0,1-.3-.08c-.35-.32-.32-1.37-.3-1.88a10.26,10.26,0,0,1,1.21-.22A4,4,0,0,1,22.17,35.69Z" transform="translate(5.24 4.95)" style="fill:#11142b"/><path d="M20.72,33a3.17,3.17,0,0,0-.14.4,2.31,2.31,0,0,1-.94-.08l.27-1.75c.46-.13,1-.16,1.1,0S20.85,32.6,20.72,33Z" transform="translate(5.24 4.95)" style="fill:#11142b"/><path d="M20.2,35.94a1.08,1.08,0,0,1-1,.37.48.48,0,0,1-.48-.21A2.83,2.83,0,0,1,19,34.16l1.51.08a2.34,2.34,0,0,1,0,.38A2,2,0,0,1,20.2,35.94Z" transform="translate(5.24 4.95)" style="fill:#11142b"/><path d="M32.7,23.19c-1.37-.37-1.23-2.37-1.13-4.31,0-.67.08-1.32.06-1.85-.11-1.8-.4-3.78-1.86-4.67s-4.12-.72-5.69-.53h0a4.68,4.68,0,0,1-1.53.26,5.21,5.21,0,0,1-2.29-.78,3.08,3.08,0,0,0-1.35-.51h-.05a3.33,3.33,0,0,0-2.29.84c-.13.11-.3.43-.81,1.91a6.26,6.26,0,0,0-.35,1.54,5.7,5.7,0,0,1-.27,1.29c-.13.38-.24.7-.32,1a6.59,6.59,0,0,1-1.05,2.32c-.08.08-.16.24-.27.38a6.78,6.78,0,0,1-.54.78,3.17,3.17,0,0,0-.48,1.26,2.13,2.13,0,0,0,.3.92,2.61,2.61,0,0,1,.35,1.05v.08c0,.7-.06,1-1.38,2.24a14.85,14.85,0,0,0-1.86,2,.08.08,0,0,0,.08.11h.27a1.27,1.27,0,0,1,.86.4c0,.05.11.05.17,0a1.37,1.37,0,0,1,.67-.05,1.22,1.22,0,0,1,.75.3.2.2,0,0,0,.22.05,1.27,1.27,0,0,1,.67,0,.94.94,0,0,1,.43.3.29.29,0,0,0,.33.05l.21-.1a1.3,1.3,0,0,1,.89.05,1.47,1.47,0,0,1,.4.19,1.35,1.35,0,0,1,.46.62.22.22,0,0,0,.29.12l.06,0a.54.54,0,0,1,.54-.13.33.33,0,0,1,.19.16c.08.11.21.21.32.16a1.94,1.94,0,0,1,1.4.16.92.92,0,0,1,.38.35h0v-.08s0-.05.05-.08l.08,0c.22-.08,1.35-.4,1.78.06a.06.06,0,0,0,.07,0h0c.06-.06.11-.11.14-.11a1,1,0,0,1,1.1.11.17.17,0,0,0,.21,0,.23.23,0,0,1,.11-.11.57.57,0,0,1,.43-.13l.62,0a6.65,6.65,0,0,0,.78-.08h0a.79.79,0,0,0,.22-.06,1.57,1.57,0,0,1,.91,0c.27.14.25.44.22.7,0,.11,0,.22,0,.33v.16a3.22,3.22,0,0,1,0,.62h0l0,.13v0c0,.11.16.19.24.11a2.25,2.25,0,0,0,.52-.4v0a1.83,1.83,0,0,1,.05-.19,12.78,12.78,0,0,0,.08-1.64v-.11a6.68,6.68,0,0,0,0-.89,1.87,1.87,0,0,1,.95-2,3.38,3.38,0,0,0,1.08-1.05,1.57,1.57,0,0,0,.3-.59c.05-.27.13-.43.53-.7a3.3,3.3,0,0,1,2.56-.75,12.13,12.13,0,0,1,1.8.56h0s.06,0,.08,0h0a14.19,14.19,0,0,1,1.59.73.22.22,0,0,0,.27-.06,2.23,2.23,0,0,1,.4-.35.57.57,0,0,0,.13-.08s0,0,0,0h0a.21.21,0,0,0,0-.3s0,0-.06,0A26.65,26.65,0,0,0,32.7,23.19Zm-13,.4c-.43,1.84-3.29,3.88-4.58,3.88h-.08a.08.08,0,0,1-.08,0h-.06a2.14,2.14,0,0,1-.8-.49,1.43,1.43,0,0,1-.35-.56s0-.09,0-.11a1.91,1.91,0,0,1,.11-1.35A2.56,2.56,0,0,1,14,24.7s0-.06,0-.08a1.08,1.08,0,0,1,.08-.19.88.88,0,0,1,.11-.24s0-.06,0-.08.08-.25.11-.38a1.28,1.28,0,0,1,0-.27,8.72,8.72,0,0,0,.16-.89,2.85,2.85,0,0,1,.38-1.24s.08-.11.13-.16l.06-.05.05-.06a1.18,1.18,0,0,1,.19-.11l.08,0c.06,0,.11,0,.16-.06a2.63,2.63,0,0,1,.84,0,4.3,4.3,0,0,1,.94.16,2.67,2.67,0,0,1,.62.21s0,0,.06,0,0,0,.1.05l.14.06.16.08.06,0a2.2,2.2,0,0,1,.51.3,1,1,0,0,1,.19.16s0,0,0,.05l.05.06a1.48,1.48,0,0,1,.43,1.56Zm1.35-7-.06.32a2.24,2.24,0,0,1-1.51,2,10.54,10.54,0,0,1-2,.35h-.05a1.86,1.86,0,0,1-1.78-1.18c-.11-.54.14-.95.51-1.59.06-.11.14-.22.22-.35a8.11,8.11,0,0,0,.89-2,2.79,2.79,0,0,1,.64-1.27,1.09,1.09,0,0,1,.27-.21,1.64,1.64,0,0,1,.22-.14l.32-.13a2.45,2.45,0,0,1,.76-.11,2.11,2.11,0,0,1,1.37.43,1.71,1.71,0,0,1,.54,1.16,12.41,12.41,0,0,1-.32,2.72Zm7.73,2.15A4.48,4.48,0,0,1,27.91,20a3,3,0,0,1-2,.65,7.48,7.48,0,0,1-1.05-.11c-.65-.11-1.8-.32-2.21-1.26a1.07,1.07,0,0,1-.08-.46,6.24,6.24,0,0,0-.08-1v0a3.7,3.7,0,0,1,0-.94v-.06a9.77,9.77,0,0,1,.32-1.4.45.45,0,0,1,.6-.2h0a.5.5,0,0,1,.22.6c0,.05-.08.3-.27,1.18v.05a1.94,1.94,0,0,0,0,.68v0a7.85,7.85,0,0,1,.08,1.08V19a.88.88,0,0,0,.43.4.17.17,0,0,0,.23-.09.16.16,0,0,0,0-.1,4.89,4.89,0,0,1,.19-2.88l.57-1h0a.22.22,0,0,0,.05-.11s0-.06.06-.08l.26-.43s0,0,0-.06l0,0s0-.06.05-.09,0,0,0,0h0l0,0s0,0,0-.05h0a1.9,1.9,0,0,0,.22-.33.15.15,0,0,0,0-.21.14.14,0,0,0-.15,0,4.54,4.54,0,0,0-.68.38.46.46,0,0,1-.65-.06.47.47,0,0,1,.06-.65l0,0a3.53,3.53,0,0,1,3-.67,3.34,3.34,0,0,1,1.83,1.43,3.51,3.51,0,0,1,.68,2.07,4.72,4.72,0,0,1-.95,2.44Z" transform="translate(5.24 4.95)" style="fill:#11142b"/><path d="M19.15,13.25c-.08.19-.16.4-.27.65a15.51,15.51,0,0,1-.61,1.46c-.16.29-.33.58-.52.86a3.13,3.13,0,0,0-.37.7,2.84,2.84,0,0,0-.08,1.53c-.3,0-.76-.21-.81-.48s.08-.38.4-.94a1.59,1.59,0,0,1,.22-.35,10.33,10.33,0,0,0,1-2.24c.19-.57.27-.81.56-1A2.54,2.54,0,0,1,19.15,13.25Z" transform="translate(5.24 4.95)" style="fill:#11142b"/><path d="M18.59,33.62a10.06,10.06,0,0,1-.94,1.54,6.71,6.71,0,0,1-.46-2.8v-.08a1.58,1.58,0,0,1,.27-.84.79.79,0,0,1,.67-.24,1.57,1.57,0,0,1,.67.16h0a.54.54,0,0,1,.27.54A3.56,3.56,0,0,1,18.59,33.62Z" transform="translate(5.24 4.95)" style="fill:#11142b"/><path d="M35.83,26.43a.11.11,0,0,1,0,.08,1.85,1.85,0,0,1-.35.48,3.3,3.3,0,0,0-.52.76,4.44,4.44,0,0,0-.34,2,17.21,17.21,0,0,0,.05,2.59,5.55,5.55,0,0,1,0,1.35,6.6,6.6,0,0,1-1.19,2.56c-.7,1.07-1.4,2.18-2.59,2.53a1.53,1.53,0,0,1-.43,0l-1.56,0a20,20,0,0,0-3,.22,7.86,7.86,0,0,0-1.43.43,7.05,7.05,0,0,1-1.18.38,14.36,14.36,0,0,1-2.62.16,37.38,37.38,0,0,1-4.36-.16,11.7,11.7,0,0,1-3.66-.7c-1.57-.84-2.24-2.35-3.32-4.83h0a.06.06,0,0,1,.06,0l.16.08a.31.31,0,0,0,.13,0,.62.62,0,0,0,.33,0s0,0,.05,0h0s.05,0,.05,0a1,1,0,0,0,.38.46,1.21,1.21,0,0,0,.59.1,4.62,4.62,0,0,0,.65-.05.32.32,0,0,1,.27.14c.19.48.43.8.81.86h.08a.73.73,0,0,0,.38-.14.35.35,0,0,1,.45.11,1.22,1.22,0,0,0,.3.3,3.35,3.35,0,0,0,2.05.57,2.45,2.45,0,0,0,1-.17c.32-.16.32-.37.3-.48s-.05-.35-.08-.51,0,0,0,0a.36.36,0,0,0,.24.24h.05c.22,0,.54.08.6.27a1.94,1.94,0,0,0,.13.3,1.1,1.1,0,0,0,.89.46h0a1.63,1.63,0,0,0,1.34-.57l.06-.08a.41.41,0,0,1,.56,0,.87.87,0,0,0,.57.22h.11a1,1,0,0,0,.67-.4,1.69,1.69,0,0,0,.24-.57.1.1,0,0,1,.14,0l0,0a.77.77,0,0,0,.56.21.56.56,0,0,0,.22,0,1.2,1.2,0,0,0,.89-1s0,0,0,0a1,1,0,0,0,.78.35h.06a.7.7,0,0,0,.54-.26,1.77,1.77,0,0,0,.24-.84.27.27,0,0,1,.16-.22,2.89,2.89,0,0,0,1.13-.86s0,0,0,0h0a.19.19,0,0,1,.16-.14,1.87,1.87,0,0,0,.62-.19,1.51,1.51,0,0,1,.46-.13c2-.3,2.34-.38,2.77-.65a1.71,1.71,0,0,0,.7-1.59,3.39,3.39,0,0,1,.44-1.67c.13-.24.3-.51.45-.83a19,19,0,0,1,1-1.7.18.18,0,0,1,.25-.06h0A6.33,6.33,0,0,1,35.83,26.43Z" transform="translate(5.24 4.95)" style="fill:#11142b"/><path d="M16.7,32.3a13.5,13.5,0,0,0,0,2.77c0,.33.08.68.13,1a1.8,1.8,0,0,1-.86.11,2.88,2.88,0,0,1-1.62-.43l0,0c-.17-.14-.3-.24-.3-.49a.57.57,0,0,1,.1-.3,1,1,0,0,0,.17-.24c.1-.16.26-.35.43-.62.45-.75.62-1,.83-1.29,0,0,0-.06.06-.08s.26-.38.51-.73.3-.46.43-.62a3.09,3.09,0,0,1,.4-.48,3.41,3.41,0,0,1-.06.43A4,4,0,0,0,16.7,32.3Z" transform="translate(5.24 4.95)" style="fill:#11142b"/><path d="M16.35,21.69h0a2.93,2.93,0,0,0-.35.56,3.28,3.28,0,0,0-.35,1.54,1.54,1.54,0,0,1-.05.48,1.61,1.61,0,0,1-.16.38,3.24,3.24,0,0,0-.35,1.86,1.6,1.6,0,0,1-.46-.35c0-.06,0-.08,0-.14a1.17,1.17,0,0,1,.06-.78,4.81,4.81,0,0,0,.51-1.48c0-.05,0-.11,0-.19a7.87,7.87,0,0,0,.17-1,1.85,1.85,0,0,1,.24-.86c.05-.08.19-.11.38-.11a1.09,1.09,0,0,1,.26,0h0Z" transform="translate(5.24 4.95)" style="fill:#11142b"/><path d="M15.81,31.3a2.1,2.1,0,0,0-.16-.7.24.24,0,0,1,0-.08s0-.06-.06-.08h0l0,0s0,0,0,0h0l0,0s0,0-.05,0h0a2.16,2.16,0,0,0-.43-.14h-.13s-.06,0-.11,0,0,0-.06,0l0,0h0l-.06.06,0,0h0v0l-.17.24-.4.6-.37.54-.22.3s0,0,0,0,.17,0,.25,0l.54.09a6.33,6.33,0,0,0,1.15,0h.06c.08-.14.21-.3.35-.51a1.85,1.85,0,0,0,.21-.33A.16.16,0,0,1,15.81,31.3Z" transform="translate(5.24 4.95)" style="fill:#11142b"/><path d="M14.44,32.89a5.07,5.07,0,0,1-.86,1.78c-.43.59-.7.75-.76.75-.21,0-.4-.53-.56-1.05a3.73,3.73,0,0,1-.16-.59A4,4,0,0,1,12,32.54a5.11,5.11,0,0,0,2.26.3h0A1.8,1.8,0,0,0,14.44,32.89Z" transform="translate(5.24 4.95)" style="fill:#11142b"/><path d="M13.69,30.47h0c-.19.3-.38.56-.57.83s-.19.27-.3.4-.14.17-.19.25-.3-.09-.46-.11a1.66,1.66,0,0,1-.37-.14l-.09,0a.44.44,0,0,0-.08-.11h0c.06-.08.08-.19.14-.27a4.67,4.67,0,0,1,.27-.49,2.19,2.19,0,0,1,.64-.75s0,0,.06,0a1.48,1.48,0,0,1,.35-.13h.21l.11,0a0,0,0,0,1,0,0h0l.08.06s.05.08.05,0A2.77,2.77,0,0,1,13.69,30.47Z" transform="translate(5.24 4.95)" style="fill:#11142b"/><path d="M12.23,29.69a2.71,2.71,0,0,0-.78,1l-.32.64,0,.06-.3-.08-.32-.11-.14-.08c.11-.2.23-.38.35-.57s.35-.49.54-.72a2.83,2.83,0,0,1,.24-.25.47.47,0,0,1,.35,0,.82.82,0,0,1,.38.05S12.2,29.69,12.23,29.69Z" transform="translate(5.24 4.95)" style="fill:#11142b"/><path d="M11.69,34.27l0,0h0l-.24,0h-.49a.32.32,0,0,1-.21-.08,1.42,1.42,0,0,1-.11-.35,6.64,6.64,0,0,1-.06-1.78,5.09,5.09,0,0,0,.95.24,5,5,0,0,0,.1,1.54A.83.83,0,0,1,11.69,34.27Z" transform="translate(5.24 4.95)" style="fill:#11142b"/><path d="M10.72,29.5A8.54,8.54,0,0,0,10,30.55c-.08.13-.18.3-.26.46a1,1,0,0,1-.3-.14,1.12,1.12,0,0,1-.22-.16l-.11-.08,0,0h0c0-.08.09-.13.09-.19a1.66,1.66,0,0,1,.18-.35c.14-.21.27-.43.44-.64a.36.36,0,0,1,.21-.19.76.76,0,0,1,.73.27Z" transform="translate(5.24 4.95)" style="fill:#11142b"/><path d="M8.65,30.93s0,0,0,0a2.55,2.55,0,0,0,.3.26c.05,0,.08.09.13.11v0a6.31,6.31,0,0,0-.19,1.43s0,0,0,0A5.71,5.71,0,0,1,8.65,30.93Z" transform="translate(5.24 4.95)" style="fill:#11142b"/><path d="M10,31.92a6.24,6.24,0,0,0-.06,1.22c0,.22,0,.45.06.67H9.75l-.11-.06a.69.69,0,0,1-.16-.18A1.24,1.24,0,0,1,9.35,33a4.66,4.66,0,0,1,.1-1.24l.22.08a1.6,1.6,0,0,0,.3.13Z" transform="translate(5.24 4.95)" style="fill:#11142b"/><g style="clip-path:url(#clip-path)"><g style="opacity:0.800000011920929"><path d="M20.58,52.94c-1.83,0-3.55-.11-5-.22l-.4,0-.4,0-.65-.08a21.24,21.24,0,0,1-6.9-1.78l-.45-.22-.4-.24A20.33,20.33,0,0,1-2.36,40c-.08-.16-.16-.35-.24-.54a19.73,19.73,0,0,1-1.22-3.15l-.06-.21-.05-.22a18.2,18.2,0,0,1-.65-7.76,16.56,16.56,0,0,1,2.86-7l.8-1.32A3.05,3.05,0,0,0-.57,19a17.54,17.54,0,0,1,2.73-6.3A19.88,19.88,0,0,1,3.1,9l0-.19.08-.19.06-.16A17,17,0,0,1,6.2,3l.7-.81.72-.64A16.43,16.43,0,0,1,14-2.1a17.22,17.22,0,0,1,4.09-.73h.32c.25,0,.49,0,.7,0a17.3,17.3,0,0,1,2.59.22,2.88,2.88,0,0,0,1.59-.19,18.32,18.32,0,0,1,4.6-1.24l.35,0,1.14-.14c.83-.08,2.12-.19,3.5-.19a21.76,21.76,0,0,1,7.16,1.08l.19.06.16.05a18.8,18.8,0,0,1,8.68,6.33l.08.11.24.21A16.32,16.32,0,0,1,53.28,7.7l.33.52.27.53a16.83,16.83,0,0,1,1.27,10.48l0,.09a20,20,0,0,1-.92,3.47A18.15,18.15,0,0,1,53.45,26a18.59,18.59,0,0,1-2.61,5.14,18.89,18.89,0,0,1-2.21,2.59,1.73,1.73,0,0,0-.54,1c0,.24-.08.49-.11.73a19.3,19.3,0,0,1-2.86,7l-1.91,2.74a16.84,16.84,0,0,1-8.38,5.8l-.8.25-.87.16a16.85,16.85,0,0,1-3,.27h-.84a4,4,0,0,0-1.13.19A25,25,0,0,1,20.58,52.94Z" transform="translate(5.24 4.95)" style="fill:none;stroke:#11142b;stroke-miterlimit:10;opacity:0.800000011920929;isolation:isolate"/><path d="M20.58,51c-1.75,0-3.45-.1-4.85-.21l-.32,0-.32-.05-.7-.08a18.49,18.49,0,0,1-6.17-1.59l-.38-.19-.35-.19A17.7,17.7,0,0,1-.32,39.47c-.08-.17-.16-.38-.27-.57A18.39,18.39,0,0,1-1.7,36l-.05-.19-.06-.16a16.15,16.15,0,0,1-.56-6.84A14.46,14.46,0,0,1,.16,22.74L1.21,21a2.7,2.7,0,0,0,.38-1,15.36,15.36,0,0,1,2.5-5.9L4.17,14l0,0s0-.06,0-.08.08-.24.11-.35a16.74,16.74,0,0,1,.86-3.5l0-.16.06-.17c0-.05,0-.1.08-.27A14.38,14.38,0,0,1,7.92,4.71L8.51,4l.6-.54A14,14,0,0,1,14.66.35a15.17,15.17,0,0,1,3.61-.62h.26c.22,0,.4,0,.6,0a15.19,15.19,0,0,1,2.61-.08,3.25,3.25,0,0,0,2-.21,17.79,17.79,0,0,1,4.5-.95,1.8,1.8,0,0,0,.32-.05c.25,0,.62-.08,1.06-.11.78-.08,2-.16,3.31-.16a20.1,20.1,0,0,1,6.44.94l.16.06.13,0a16.49,16.49,0,0,1,7.7,5.63c.09.11.19.22.22.27l0,0,.3.27,0,.05a14.1,14.1,0,0,1,3.42,3.8l.27.43.21.46a14.37,14.37,0,0,1,1.08,9.13l0,.08A17.56,17.56,0,0,1,52,22.63a16.77,16.77,0,0,1-3,7.57,15.86,15.86,0,0,1-2.34,2.64,2.26,2.26,0,0,0-.73,1.43c0,.4-.11.78-.16,1.18a16.58,16.58,0,0,1-2.59,6.28L41.56,44a14.77,14.77,0,0,1-7.49,5.31l-.67.21-.73.14a12,12,0,0,1-2.61.22H28.85a5,5,0,0,0-1.21.21A22.2,22.2,0,0,1,20.58,51Z" transform="translate(5.24 4.95)" style="fill:none;stroke:#11142b;stroke-miterlimit:10;opacity:0.800000011920929;isolation:isolate"/><path d="M20.58,48.79c-1.67,0-3.31-.11-4.69-.22l-.27,0-.27,0-.78-.08A16,16,0,0,1,9.1,47l-.3-.14-.26-.16a15.7,15.7,0,0,1-6.82-8.19l-.27-.62a15.94,15.94,0,0,1-1-2.59l0-.13,0-.13A13.78,13.78,0,0,1-.14,29.2,12.77,12.77,0,0,1,2.1,23.89l.17-.21.16-.22a3.47,3.47,0,0,1,.3-.37l.62-1.16a3.32,3.32,0,0,0,.4-1.21A13.18,13.18,0,0,1,6,15.41H6a.49.49,0,0,1,.11-.14l.13-.19a2.38,2.38,0,0,0,.16-.4,5.15,5.15,0,0,0,.19-.62,15.07,15.07,0,0,1,.78-3.23l.06-.13.05-.14c0-.11.08-.19.14-.38a11.59,11.59,0,0,1,2.15-4l.45-.56.49-.43a12.14,12.14,0,0,1,4.71-2.67,13.88,13.88,0,0,1,3.12-.54h.73a9.86,9.86,0,0,1,2.7.35,3.33,3.33,0,0,0,2.26-.24A14.08,14.08,0,0,1,28.58.7c.11,0,.22,0,.3,0a10,10,0,0,1,1-.11A29.12,29.12,0,0,1,33,.38a17.25,17.25,0,0,1,5.71.83l.11.05.11.06a14,14,0,0,1,6.73,4.93c.3.35.33.4.51.59l.25.22.08.11a12,12,0,0,1,3,3.28l.21.35.19.35a12.17,12.17,0,0,1,.89,7.79l0,.08a12.78,12.78,0,0,1-.88,3.1v.08a14.63,14.63,0,0,1-2.64,6.74,13.92,13.92,0,0,1-2.62,2.8,1.83,1.83,0,0,0-.56.7,2.37,2.37,0,0,0-.25.86,13.49,13.49,0,0,1-.21,1.78,15.63,15.63,0,0,1-2.29,5.55L40.07,42.4a12.69,12.69,0,0,1-6.58,4.8l-.54.17-.59.1a12,12,0,0,1-2.23.19h-1l-.63,0a3.91,3.91,0,0,0-1.26.24A21.73,21.73,0,0,1,20.58,48.79Z" transform="translate(5.24 4.95)" style="fill:none;stroke:#11142b;stroke-miterlimit:10;opacity:0.800000011920929;isolation:isolate"/><path d="M20.58,46.55c-1.59,0-3.18-.11-4.5-.21l-.19,0-.19,0-.83-.11A14.53,14.53,0,0,1,10.1,45l-.21-.1-.22-.11c-3.58-2-4.9-5-5.87-7.14-.11-.22-.21-.44-.3-.67a17.76,17.76,0,0,1-.89-2.29l0-.11-.08-.08c-1-3.72-.65-6.33,1.4-9.32L4,25l.11-.16c.13-.16.26-.35.4-.51s.37-.51.59-.75A2.48,2.48,0,0,0,5.43,23l.24-.6a2.52,2.52,0,0,0,.19-.8,10.65,10.65,0,0,1,1.94-5h0a1.5,1.5,0,0,0,.14-.19l.13-.21.06-.06a5.32,5.32,0,0,0,.32-.78,8.88,8.88,0,0,1,.27-.86v0a12.27,12.27,0,0,1,.7-2.93l0-.08,0-.09c.06-.16.11-.3.16-.48a10.16,10.16,0,0,1,1.76-3.35l.36-.43.35-.32A10.44,10.44,0,0,1,18.59,4.2h.56a8.48,8.48,0,0,1,3.37.7,1.71,1.71,0,0,0,.59.11,1.25,1.25,0,0,0,.6-.16h0A13.23,13.23,0,0,1,28.82,3a1,1,0,0,1,.3,0L30,2.83c.7-.06,1.75-.14,2.88-.14a15.71,15.71,0,0,1,5,.7l.08,0,.08,0a11.9,11.9,0,0,1,5.77,4.2,6.54,6.54,0,0,0,.78.89l.19.16.13.16.11.08a9.93,9.93,0,0,1,2.48,2.69l.16.27.14.27a10,10,0,0,1,.67,6.41v.09a12.22,12.22,0,0,1-.81,2.77l0,.08a.15.15,0,0,1,0,.08.66.66,0,0,0,0,.24l0,.11A9.54,9.54,0,0,1,47,24.3a11.88,11.88,0,0,1-1.72,3.36,10.71,10.71,0,0,1-2.48,2.59,3.3,3.3,0,0,0-1,1.13,3.21,3.21,0,0,0-.35,1.46,10.8,10.8,0,0,1-.19,1.88,12.67,12.67,0,0,1-2,4.82l-.89,1.32a10.84,10.84,0,0,1-5.65,4.29l-.11,0a4,4,0,0,1-.57.14l-.13,0a11.68,11.68,0,0,1-1.86.16H29l-1,0a5,5,0,0,0-1.32.27A21,21,0,0,1,20.58,46.55Z" transform="translate(5.24 4.95)" style="fill:none;stroke:#11142b;stroke-miterlimit:10;opacity:0.800000011920929;isolation:isolate"/><path d="M20.58,44.32c-1.53,0-3-.11-4.34-.22h-.13l-.14,0c-.29,0-.62-.08-.91-.11a11.76,11.76,0,0,1-4-1l-.16-.08-.14-.08c-2.94-1.64-4-4.12-4.9-6.11-.11-.24-.22-.49-.32-.76a13,13,0,0,1-.78-2l0-.08,0-.08c-.86-3.07-.56-5,1.1-7.44l.08-.11.08-.1c.14-.19.27-.35.4-.54.44-.57.87-1.13,1.49-1.8a1,1,0,0,0,.24-.54l0-.62,0-.24v-.25a7.93,7.93,0,0,1,1.59-4.28l.16-.24.08-.14.08-.1c.21-.41.4-.82.57-1.24.08-.22.19-.65.32-1a1.65,1.65,0,0,0,.05-.38,11.34,11.34,0,0,1,.57-2.45l0-.06,0-.05c.09-.22.14-.38.22-.59A8.1,8.1,0,0,1,13.11,9l.25-.3.24-.22a8.14,8.14,0,0,1,5.14-2h.4a8.7,8.7,0,0,1,3.24.89,1.11,1.11,0,0,0,.54.14,2.1,2.1,0,0,0,.56-.08,10,10,0,0,0,1.3-.57,10.74,10.74,0,0,1,4.31-1.61.74.74,0,0,1,.26,0L30.22,5c.64,0,1.61-.13,2.66-.13a12.34,12.34,0,0,1,4.23.59l.06,0,0,0A9.63,9.63,0,0,1,42,9a6.84,6.84,0,0,0,1,1.16l.11.11.11.11.32.27a7.1,7.1,0,0,1,1.91,2.1l.11.16.08.19a7.87,7.87,0,0,1,.49,5.06v.08a10,10,0,0,1-.67,2.27h0a3.12,3.12,0,0,0-.19.59,2.32,2.32,0,0,0-.06.38l0,.1a9.72,9.72,0,0,1-.44,1.92,10,10,0,0,1-1.4,2.77,8.1,8.1,0,0,1-3.23,2.8,1.69,1.69,0,0,0-.75.65,2,2,0,0,0-.33.94V31A13,13,0,0,1,39,34.26a10.94,10.94,0,0,1-1.75,4.09S34.53,42.18,32,43l-.27.08-.3.05a8.24,8.24,0,0,1-1.48.14h-.51a4.41,4.41,0,0,0-.52,0h-.1c-1,0-1.86.05-2.13.1a2.62,2.62,0,0,0-.4.11A15.14,15.14,0,0,1,20.58,44.32Z" transform="translate(5.24 4.95)" style="fill:none;stroke:#11142b;stroke-miterlimit:10;opacity:0.800000011920929;isolation:isolate"/><path d="M20.58,42.11c-1.45,0-2.91-.11-4.15-.19h-.11c-.35-.06-.67-.08-1-.11A10.11,10.11,0,0,1,12,41l-.08,0-.08,0c-2.29-1.29-3.15-3.2-4-5.06-.11-.27-.24-.54-.38-.81a9.91,9.91,0,0,1-.64-1.7v0c-.7-2.45-.52-3.69.78-5.58l0-.05,0-.06c.16-.19.3-.37.43-.54a19.78,19.78,0,0,1,2.37-2.64h0a.59.59,0,0,0,.19-.32.59.59,0,0,0,0-.35l-.22-.62a2.33,2.33,0,0,1-.08-.59h0v-.3a6.12,6.12,0,0,1,1.21-3.1c.08-.11.14-.22.19-.3l.05-.08.06-.08a11.4,11.4,0,0,0,.86-1.84c0-.19.19-.64.32-1a4.38,4.38,0,0,0,.17-.8,7.73,7.73,0,0,1,.45-2v-.06a5.27,5.27,0,0,0,.25-.7,5.6,5.6,0,0,1,1-1.94l.1-.13.11-.11a5.92,5.92,0,0,1,3.8-1.48h.24a4.86,4.86,0,0,1,2.43.73l.13.05h0c.16.08.27.16.4.22a1.49,1.49,0,0,0,1.08.1,12.32,12.32,0,0,0,2.67-1.07h0a8.72,8.72,0,0,1,3.5-1.35l.27,0,.78-.08c.6,0,1.51-.13,2.45-.13a11.15,11.15,0,0,1,3.5.45h.06a7.41,7.41,0,0,1,3.82,2.8,8.93,8.93,0,0,0,1.35,1.46l0,.05.06.06a6.44,6.44,0,0,0,.56.48,5,5,0,0,1,1.38,1.48l.05.09.06.08a5.91,5.91,0,0,1,.3,3.71v.09a8.11,8.11,0,0,1-.54,1.8,4.44,4.44,0,0,0-.3,1c0,.22-.06.38-.08.51l0,.11a6.86,6.86,0,0,1-.32,1.48A7.71,7.71,0,0,1,41.76,25a5.4,5.4,0,0,1-2.94,2.29,2.61,2.61,0,0,0-1.4,1.08l-.11.14-.11.13A5.6,5.6,0,0,0,37,31.15a11.28,11.28,0,0,1,0,2.66,8.67,8.67,0,0,1-1.48,3.34s-2.1,3.05-4,3.61l-.13.06-.14,0a6.72,6.72,0,0,1-1.1.1h-.54a6.17,6.17,0,0,0-.64,0h-.06c-.83,0-1.65.07-2.48.16a6,6,0,0,0-.83.24A13.65,13.65,0,0,1,20.58,42.11Z" transform="translate(5.24 4.95)" style="fill:none;stroke:#11142b;stroke-miterlimit:10;opacity:0.800000011920929;isolation:isolate"/></g></g></svg>