<?xml version="1.0" encoding="utf-8"?>
<!-- Generator: Adobe Illustrator 27.0.0, SVG Export Plug-In . SVG Version: 6.00 Build 0)  -->
<svg version="1.1" id="Layer_1" xmlns="http://www.w3.org/2000/svg" xmlns:xlink="http://www.w3.org/1999/xlink" x="0px" y="0px"
	 viewBox="0 0 51 51" style="enable-background:new 0 0 51 51;" xml:space="preserve">
<style type="text/css">
	.st0{fill:none;stroke:#23344D;stroke-miterlimit:10;}
	.st1{fill:#2A374F;}
</style>
<circle class="st0" cx="25.5" cy="25.5" r="25"/>
<circle class="st0" cx="25.5" cy="25.5" r="14.5"/>
<path class="st1" d="M25.5,3.7c-2.7,0-4.9,9.8-4.9,21.9s2.2,21.9,4.9,21.9s4.9-9.8,4.9-21.9S28.2,3.7,25.5,3.7z M25.9,46.2
	c-0.1,0.2-0.3,0.3-0.5,0.2l-0.1-0.1c-0.9-1.2-1.5-2.6-1.9-4.1c-2.2-7-1.7-22-1.7-22c1-11.9,2.9-14.7,3.5-15.4c0.1-0.1,0.4-0.1,0.5,0
	c0.9,0.6,1.7,3.3,1.7,3.3c1.4,5.4,2,10.9,2,16.4c0,4.9-0.3,9.8-1.1,14.6C27.3,44.9,25.9,46.2,25.9,46.2z"/>
<path class="st1" d="M44.5,14.7c-1.3-2.3-10.9,0.6-21.4,6.6S5.2,34.1,6.6,36.4s10.9-0.6,21.4-6.6S45.9,17,44.5,14.7z M7.8,36.1
	c-0.5-0.1-0.4-0.5-0.4-0.5C8,34.2,8.9,33,10,31.9c5-5.4,18.3-12.4,18.3-12.4c10.9-5,14.2-4.8,15.1-4.6c0.2,0,0.3,0.2,0.3,0.4
	c-0.1,1.1-2.1,3.1-2.1,3.1c-3.9,3.9-8.3,7.2-13.1,10c-4.2,2.5-8.6,4.6-13.2,6.3C9.7,36.8,7.9,36.2,7.8,36.1L7.8,36.1L7.8,36.1z"/>
<path class="st0" d="M44.5,36.5c1.3-2.3-6-9.1-16.5-15.2S8,12.2,6.7,14.6s6,9.1,16.5,15.2S43.1,38.8,44.5,36.5z M7.5,15.5
	c-0.1-0.2-0.1-0.4,0.1-0.5l0.1-0.1c1.5-0.1,3,0,4.5,0.4C19.4,17,32.1,25,32.1,25c9.8,6.9,11.3,9.9,11.5,10.8c0,0.2-0.1,0.4-0.2,0.5
	c-1,0.5-3.8-0.2-3.8-0.2c-5.3-1.5-10.4-3.6-15.2-6.4c-4.3-2.4-8.3-5.2-12.1-8.3C7.9,17.4,7.5,15.5,7.5,15.5z"/>
<circle class="st1" cx="25.5" cy="25.5" r="2.6"/>
<ellipse class="st1" cx="36" cy="15.6" rx="1.5" ry="1.5"/>
<ellipse class="st1" cx="11.6" cy="20.9" rx="1.5" ry="1.5"/>
<ellipse class="st1" cx="22.5" cy="39.8" rx="1.5" ry="1.5"/>
</svg>
