<svg id="Layer_1" data-name="Layer 1" xmlns="http://www.w3.org/2000/svg" viewBox="0 0 51 51"><title>avax</title><path d="M38.77,32.08l-3.48-5.95,0-.07c-.48-.83-.73-1.25-1.05-1.41a1.21,1.21,0,0,0-1.11,0c-.32.17-.58.6-1.09,1.48l-3.47,6v0c-.51.88-.76,1.31-.74,1.67a1.25,1.25,0,0,0,.56,1,4,4,0,0,0,1.84.19h6.95a3.88,3.88,0,0,0,1.85-.2,1.25,1.25,0,0,0,.56-1c0-.35-.23-.78-.71-1.61Z" transform="translate(0.5 0.5)" style="fill:#11142b"/><path d="M30.12,19a3.53,3.53,0,0,0,0-1.71,7.72,7.72,0,0,0-.95-2v0L26.7,11c-.51-.9-.77-1.34-1.1-1.51a1.23,1.23,0,0,0-1.12,0c-.32.17-.58.61-1.09,1.51l-12,21.12a4.09,4.09,0,0,0-.74,1.68,1.26,1.26,0,0,0,.56,1,3.94,3.94,0,0,0,1.83.2h4.86a8.7,8.7,0,0,0,2.22-.14,3.74,3.74,0,0,0,1.49-.87,8.38,8.38,0,0,0,1.23-1.83v0L29.17,21A8.27,8.27,0,0,0,30.12,19Z" transform="translate(0.5 0.5)" style="fill:#11142b"/><path d="M25,0A25,25,0,1,0,50,25,25,25,0,0,0,25,0ZM22.87,32.08v0a8.38,8.38,0,0,1-1.23,1.83,3.74,3.74,0,0,1-1.49.87,8.7,8.7,0,0,1-2.22.14H13.06a3.94,3.94,0,0,1-1.83-.2,1.26,1.26,0,0,1-.56-1,4.09,4.09,0,0,1,.74-1.68L23.39,11c.51-.9.77-1.34,1.09-1.51a1.23,1.23,0,0,1,1.12,0c.33.17.59.61,1.1,1.51l2.46,4.3v0a7.72,7.72,0,0,1,.95,2,3.53,3.53,0,0,1,0,1.71,8.27,8.27,0,0,1-.95,2ZM39,34.75a3.88,3.88,0,0,1-1.85.2H30.17a4,4,0,0,1-1.84-.19,1.25,1.25,0,0,1-.56-1c0-.36.23-.79.74-1.67v0l3.47-6c.51-.88.77-1.31,1.09-1.48a1.21,1.21,0,0,1,1.11,0c.32.16.57.58,1.05,1.41l0,.07,3.48,5.95,0,.09c.48.83.73,1.26.71,1.61A1.25,1.25,0,0,1,39,34.75Z" transform="translate(0.5 0.5)" style="fill:none;stroke:#11142b;stroke-miterlimit:10"/></svg>