<svg id="Layer_1" data-name="Layer 1" xmlns="http://www.w3.org/2000/svg" viewBox="0 0 51 51"><title>axs</title><path d="M25,0A25,25,0,1,1,0,25,25,25,0,0,1,25,0Z" transform="translate(0.5 0.5)" style="fill:none;stroke:#11142b;stroke-miterlimit:10;fill-rule:evenodd"/><path d="M13.6,16.54s-2.69-2.15-2.87,3.16c-.19,4.12-.18,12.11,1.72,15.88.8,1.42,1.88,1,3.88-.43,1.74-1.28,8-7.08,10.7-9.63s8.07-9.84,9.2-4.88a22.44,22.44,0,0,1,.58,8.48c-.13,1.42-.74,2.5-3.52.57-2.1-1.35-4.1-2.8-4.1-2.8s-.39-.69-1.3.43c-.71.9-1.07,1.12.07,1.8s7,4.69,9.2,5.31c1.84.54,2.89.53,3-3.09,0-2.87-.18-11.08-1.22-14.58-.79-2.18-2-3.17-4.46-.72S24,26.15,19.71,29.62c-2.87,2.15-4.09,4.09-5.17.5-.76-2.71-1.75-11.16,1.36-9.55,2,.93,2.92.92,2.16,1.51s-2.95,2.58-2.95,2.58a1.63,1.63,0,0,0-.36,1.73c.32.82.32,1.23,2-.36l2.95-2.8s.27-.43,1.07.36a7.42,7.42,0,0,1,.94,1s.21.59,1.07-.43,1.42-1.63-.21-2.58-9-5-9-5Z" transform="translate(0.5 0.5)" style="fill:#11142b;fill-rule:evenodd"/></svg>