<svg id="Layer_1" data-name="Layer 1" xmlns="http://www.w3.org/2000/svg" viewBox="0 0 51 51"><title>btc</title><circle cx="25.5" cy="25.5" r="25" style="fill:none;stroke:#11142b;stroke-miterlimit:10"/><path d="M36.23,21.91c.49-3.28-2-5-5.41-6.22l1.1-4.43-2.7-.67-1.07,4.32c-.71-.18-1.44-.35-2.17-.51l1.09-4.35-2.7-.68-1.11,4.44c-.59-.13-1.16-.27-1.72-.41h0l-3.73-.93-.72,2.88s2,.46,2,.49a1.44,1.44,0,0,1,1.25,1.57l-1.25,5.06a1.52,1.52,0,0,1,.28.09l-.29-.07-1.76,7.08a1,1,0,0,1-1.24.64h0s-2-.49-2-.49L12.74,32.8l3.52.88,1.92.5-1.11,4.49,2.7.67,1.1-4.44,2.16.56-1.1,4.42,2.7.67,1.11-4.48c4.61.87,8.07.52,9.53-3.64,1.18-3.36-.06-5.29-2.48-6.55a4.32,4.32,0,0,0,3.45-4Zm-6.17,8.65c-.83,3.35-6.48,1.54-8.31,1.08l1.48-5.94c1.83.46,7.7,1.36,6.83,4.86Zm.84-8.7c-.76,3.05-5.47,1.5-7,1.12l1.35-5.39c1.52.38,6.43,1.08,5.64,4.27Z" transform="translate(0.5 0.5)" style="fill:#11142b"/></svg>