<svg id="Layer_1" data-name="Layer 1" xmlns="http://www.w3.org/2000/svg" viewBox="0 0 51 51"><title>chz</title><path d="M38.83,10.33a1.83,1.83,0,0,0-2.33.84c-.17.5-.5.5-.83.5H14.5c-.5,0-.67,0-.83-.34a2,2,0,0,0-2.5-.83,2.49,2.49,0,0,0-1.5,2.17,2.17,2.17,0,0,0,1.83,2c.5,0,.67.16.67.33l4.66,9.83a.84.84,0,0,1,0,.84,2.24,2.24,0,0,0-.22.63,2.16,2.16,0,0,0,1.72,2.53,1.21,1.21,0,0,1,.84.67L24,39.5a1,1,0,0,1,0,1l-.1.14a1.84,1.84,0,0,0,.6,2.53A2,2,0,0,0,27.17,43a2.17,2.17,0,0,0,.33-2.83.84.84,0,0,1,0-.84l4.33-10.16.5-.5a1.34,1.34,0,0,0,.3-.12,2.16,2.16,0,0,0,1-2.88V25l4.16-10c.17-.33.34-.5.67-.5a2.17,2.17,0,0,0,1.83-2.17A2.33,2.33,0,0,0,38.83,10.33Zm-3.33,3v.17l-.33.33-9.34,6.84a.87.87,0,0,1-.83,0l-10-7a1.31,1.31,0,0,0-.5-.34ZM19.33,25c-1-.17-1.16-.83-1.5-1.5L14.33,16,14,15.17l.17-.17L24,21.83l-.67.67-3.16,2.33A1.45,1.45,0,0,1,19.33,25Zm10.84,3.67-4.34,10-.33.5-1.33-2.84-3.84-8a.87.87,0,0,1,0-.83,1.65,1.65,0,0,0,.34-1,1,1,0,0,1,.5-.83L24.83,23a.84.84,0,0,1,.84,0l3.66,2.5c.34.17.34.33.34.67h0A2.17,2.17,0,0,0,30,28C30.33,28.17,30.33,28.33,30.17,28.67Zm5.66-12.84L32.33,24l-.33.5c-.5,0-1,.17-1.33,0l-4-2.67,9.16-6.5H36Z" transform="translate(0.54 0.75)" style="fill:#11142b"/><circle cx="25.5" cy="25.5" r="25" style="fill:none;stroke:#11142b;stroke-miterlimit:10"/></svg>