<svg id="Layer_1" data-name="Layer 1" xmlns="http://www.w3.org/2000/svg" viewBox="0 0 451.44 451.44"><title>dai</title><path d="M222.22,0C345,0,444.44,99.5,444.44,222.22S345,444.44,222.22,444.44,0,345,0,222.22,99.5,0,222.22,0Z" transform="translate(3.5 3.5)" style="fill:none;stroke:#11142b;stroke-miterlimit:10;stroke-width:7px"/><path d="M230.41,237.91h84.44c1.8,0,2.65,0,2.78-2.36a161.42,161.42,0,0,0,0-25.83c0-1.67-.83-2.36-2.64-2.36h-168c-2.08,0-2.64.69-2.64,2.64v24.72c0,3.19,0,3.19,3.33,3.19Zm77.79-59.44a2.7,2.7,0,0,0,0-1.94,55,55,0,0,0-5-8.75,70.85,70.85,0,0,0-10.28-12.92,34.08,34.08,0,0,0-6.39-6.25,99.83,99.83,0,0,0-41.67-21.11,103.58,103.58,0,0,0-23.61-2.5H146.65c-2.08,0-2.36.83-2.36,2.64v49.3c0,2.08,0,2.64,2.64,2.64H307.2s1.39-.28,1.67-1.11h-.67Zm0,88.33a32.41,32.41,0,0,0-7.1,0h-154c-2.08,0-2.78,0-2.78,2.78v48.2c0,2.22,0,2.78,2.78,2.78h71.11a35.52,35.52,0,0,0,10.13-.69,105.78,105.78,0,0,0,30.15-6.67,55.18,55.18,0,0,0,10.13-4.72h1a90.23,90.23,0,0,0,38.75-39s1-2.1-.12-2.65ZM116.39,345.55v-76.8c0-1.81,0-2.08-2.22-2.08H84c-1.67,0-2.36,0-2.36-2.22V238.06h32.22c1.8,0,2.5,0,2.5-2.36V209.59c0-1.67,0-2.08-2.22-2.08H84c-1.67,0-2.36,0-2.36-2.22V180.85c0-1.53,0-1.94,2.22-1.94h29.86c2.08,0,2.64,0,2.64-2.64V101.41c0-2.22,0-2.78,2.78-2.78H223.33a158.7,158.7,0,0,1,22.5,2.5,135.76,135.76,0,0,1,43.47,16.11,122.51,122.51,0,0,1,24.44,18.89A133.83,133.83,0,0,1,328.6,154.6a111.39,111.39,0,0,1,10.85,21.25,3.62,3.62,0,0,0,4.15,2.92h24.86c3.19,0,3.19,0,3.33,3.06v22.78c0,2.22-.83,2.78-3.06,2.78H349.56c-1.94,0-2.5,0-2.36,2.5a141.88,141.88,0,0,1,0,25.41c0,2.36,0,2.64,2.65,2.64h21.93c1,1.25,0,2.5,0,3.76a28.06,28.06,0,0,1,0,4.85v16.81c0,2.36-.69,3.06-2.78,3.06H342.75a3.47,3.47,0,0,0-4,2.64,111.1,111.1,0,0,1-29.17,42.5,167.29,167.29,0,0,1-14.86,11.94c-5.56,3.2-11,6.53-16.67,9.17a150.17,150.17,0,0,1-32.78,10.41,170.89,170.89,0,0,1-32.5,2.64H116.35v-.14Z" transform="translate(3.5 3.5)" style="fill:#11142b"/></svg>