<svg id="Layer_1" data-name="Layer 1" xmlns="http://www.w3.org/2000/svg" viewBox="0 0 33 33"><title>etc (2)</title><circle cx="16.5" cy="16.5" r="16" style="fill:none;stroke:#11142b;stroke-miterlimit:10"/><path d="M16,16.55,9.27,16,16,12.17v4.38ZM16,21V28L9,17.07,16,21Zm0-10.07-7,3.9L16,4Z" transform="translate(0.5 0.5)" style="fill:#11142b"/><path d="M22.71,16,16,16.55V12.17L22.71,16ZM16,21l7-3.94L16,28Zm0-10.07V4l7,10.84Z" transform="translate(0.5 0.5)" style="fill:#11142b;fill-opacity:0.6010000109672546"/><path d="M16,16.55,22.71,16,16,19.75Z" transform="translate(0.5 0.5)" style="fill:#11142b;fill-rule:evenodd;opacity:0.20000000298023224;isolation:isolate"/><path d="M16,16.55,9.27,16,16,19.75Z" transform="translate(0.5 0.5)" style="fill:#11142b;fill-rule:evenodd;opacity:0.6029999852180481;isolation:isolate"/></svg>