<?xml version="1.0" encoding="utf-8"?>
<!-- Generator: Adobe Illustrator 27.0.0, SVG Export Plug-In . SVG Version: 6.00 Build 0)  -->
<svg version="1.1" id="Layer_1" xmlns="http://www.w3.org/2000/svg" xmlns:xlink="http://www.w3.org/1999/xlink" x="0px" y="0px"
	 viewBox="0 0 51 51" style="enable-background:new 0 0 51 51;" xml:space="preserve">
<style type="text/css">
	.st0{fill:none;stroke:#23344D;stroke-miterlimit:10;}
</style>
<path class="st0" d="M25.5,50.5c13.8,0,25-11.2,25-25s-11.2-25-25-25s-25,11.2-25,25S11.7,50.5,25.5,50.5z"/>
<path class="st0" d="M23.9,7.1c1-0.5,2.2-0.5,3.2,0l9.3,4.9c0.5,0.2,0.8,0.7,0.9,1.2l0,0v24.6c-0.1,0.6-0.4,1.1-0.9,1.3l-9.3,4.9
	c-1,0.5-2.2,0.5-3.2,0L14.5,39c-0.5-0.2-0.9-0.7-0.9-1.3V13.2l0,0c0.1-0.5,0.4-1,0.9-1.2L23.9,7.1z M35.9,26.9l-8.8,4.6
	c-1,0.5-2.2,0.5-3.2,0l-8.8-4.6v10.8l8.8,4.6c0.5,0.3,1,0.5,1.5,0.5h0.1c0.5-0.1,1.1-0.2,1.5-0.5l8.9-4.6L35.9,26.9L35.9,26.9z
	 M12.1,37.2c0,0.7,0.1,1.4,0.3,2c0.2,0.4,0.6,0.8,1,1l0,0l0.4,0.2l0.2,0.1l0.5,0.3l-0.8,1.2l-0.6-0.4l-0.1-0.1l-0.4-0.3
	c-1.4-1-1.9-2-2-4.1v-0.1L12.1,37.2z M24.8,20.3l-0.2,0.1l-9.3,4.9l0,0l9.3,4.9l0.2,0.1V20.3L24.8,20.3z M26.2,20.3v10
	c0.1,0,0.1,0,0.2-0.1l9.3-4.9l0,0l0,0l-9.3-4.9L26.2,20.3L26.2,20.3z M35.9,14.9l-8.4,4.4l8.4,4.4V14.9z M15.1,14.9v8.8l8.4-4.4
	L15.1,14.9z M26.4,8.4c-0.6-0.2-1.3-0.2-1.9,0l-9.3,4.9l0,0l0,0l9.3,4.9c0.6,0.2,1.3,0.2,1.9,0l9.3-4.9l0,0l0,0L26.4,8.4z M37.3,8.9
	l0.6,0.4L38,9.3l0.4,0.3c1.4,0.9,2,2,2,4.1v0.1h-1.5c0-0.7-0.1-1.4-0.3-2c-0.2-0.4-0.5-0.8-1-1l0,0l-0.4-0.2L37,10.5l-0.5-0.3
	L37.3,8.9L37.3,8.9z"/>
</svg>
