<svg id="Layer_1" data-name="Layer 1" xmlns="http://www.w3.org/2000/svg" viewBox="0 0 51 51"><title>ftm</title><path d="M25,50A25,25,0,1,0,0,25,25,25,0,0,0,25,50Z" transform="translate(0.5 0.5)" style="fill:none;stroke:#11142b;stroke-miterlimit:10"/><path d="M23.37,6.61a3.78,3.78,0,0,1,3.22,0l9.34,4.88a1.57,1.57,0,0,1,.9,1.17h0V37.23a1.55,1.55,0,0,1-.92,1.28L26.6,43.39a3.8,3.8,0,0,1-3.23,0L14,38.51a1.53,1.53,0,0,1-.9-1.28V12.66h0a1.53,1.53,0,0,1,.9-1.17Zm12,19.75L26.59,31a3.78,3.78,0,0,1-3.22,0l-8.76-4.59v10.8l8.76,4.58a4.1,4.1,0,0,0,1.51.55H25a3.7,3.7,0,0,0,1.55-.52l8.85-4.64V26.36ZM11.62,36.69a4.54,4.54,0,0,0,.33,2,2.55,2.55,0,0,0,1,1l0,0,.38.23.17.1.53.32-.76,1.25-.59-.36-.1-.06-.45-.28c-1.42-1-1.95-2-2-4.13v-.07ZM24.25,19.78l-.19.08-9.34,4.89h0l9.34,4.89.19.08v-10Zm1.47,0v10a1,1,0,0,0,.19-.08l9.33-4.88,0,0h0l-9.33-4.89-.19-.08Zm9.65-5.38L27,18.78l8.37,4.39Zm-20.76,0v8.75L23,18.78Zm11.3-6.52a2.38,2.38,0,0,0-1.85,0l-9.34,4.89,0,0h0l9.34,4.89a2.38,2.38,0,0,0,1.85,0l9.33-4.89,0,0h0Zm10.85.54.59.36.1.06.44.28c1.42.95,2,2,2,4.13v.07H38.38a4.54,4.54,0,0,0-.33-2,2.55,2.55,0,0,0-.95-1l0,0-.38-.23-.17-.1L36,9.68l.76-1.25Z" transform="translate(0.5 0.5)" style="fill:#fff;stroke:#11142b;stroke-miterlimit:10"/></svg>