<svg id="Layer_1" data-name="Layer 1" xmlns="http://www.w3.org/2000/svg" viewBox="0 0 51 51"><title>grt</title><circle cx="25.5" cy="25.5" r="25" style="fill:none;stroke:#11142b;stroke-miterlimit:10"/><path d="M24.49,28.39a6.7,6.7,0,1,1,6.7-6.7,6.7,6.7,0,0,1-6.7,6.7h0m0-16.76a10.06,10.06,0,1,1-10,10A10.05,10.05,0,0,1,24.49,11.63Zm9.59,20.63a1.62,1.62,0,0,1,.07,2.29l-.07.07-6.7,6.7A1.67,1.67,0,0,1,25,39l6.7-6.7A1.61,1.61,0,0,1,34,32.19l.08.07ZM38,13.3a1.68,1.68,0,1,1-1.67-1.67h0A1.67,1.67,0,0,1,38,13.3Z" transform="translate(0.5 0.5)" style="fill:#11142b;fill-rule:evenodd"/></svg>