<svg id="Layer_1" data-name="Layer 1" xmlns="http://www.w3.org/2000/svg" viewBox="0 0 51 51"><title>mana</title><circle cx="25.5" cy="25.5" r="25" style="fill:none;stroke:#11142b;stroke-miterlimit:10"/><path d="M17.71,16.25V35H33.34Z" transform="translate(0.5 0.5)" style="fill:#11142b;fill-rule:evenodd;opacity:0.8"/><path d="M2.09,35H17.71V16.25Z" transform="translate(0.5 0.5)" style="fill:#11142b;fill-rule:evenodd"/><path d="M5,40a25.74,25.74,0,0,0,5,5H40a25.74,25.74,0,0,0,5-5Z" transform="translate(0.5 0.5)" style="fill:#11142b;fill-rule:evenodd;opacity:0.6"/><path d="M10,45a25,25,0,0,0,30,0Z" transform="translate(0.5 0.5)" style="fill:#11142b;fill-rule:evenodd"/><path d="M33.54,26.25V40H45Z" transform="translate(0.5 0.5)" style="fill:#11142b;fill-rule:evenodd;opacity:0.8"/><path d="M33.54,35H2.09A25,25,0,0,0,5,40H33.55V35Z" transform="translate(0.5 0.5)" style="fill:#11142b;fill-rule:evenodd;opacity:0.5"/><path d="M22.09,40H33.54V26.25Z" transform="translate(0.5 0.5)" style="fill:#11142b;fill-rule:evenodd"/><circle cx="34.04" cy="16.75" r="6.25" style="fill:#11142b"/><circle cx="18.21" cy="9.88" r="3.13" style="fill:#11142b"/></svg>