<svg id="Layer_1" data-name="Layer 1" xmlns="http://www.w3.org/2000/svg" viewBox="0 0 51 51"><title>matic</title><path d="M25,0A25,25,0,1,0,50,25,25,25,0,0,0,25,0ZM38.13,36.34H31.34a1.76,1.76,0,0,1-.91,0H11.88V24.65a1.67,1.67,0,0,0,.82,1.44l5.53,3.21a1.76,1.76,0,0,0,1.64,0l3.76-2.19,2.6-1.5L30,23.42a1.76,1.76,0,0,1,1.64,0l3,1.71a1.68,1.68,0,0,1,.82,1.43V30a1.73,1.73,0,0,1-.82,1.44L31.7,33.13a1.76,1.76,0,0,1-1.64,0l-2.93-1.71A1.7,1.7,0,0,1,26.3,30V27.79l-2.59,1.5v2.26A1.63,1.63,0,0,0,24.53,33l5.53,3.22a2.35,2.35,0,0,0,.37.14h.91a2.67,2.67,0,0,0,.36-.14L37.24,33a1.67,1.67,0,0,0,.82-1.44v-6.5a1.73,1.73,0,0,0-.82-1.44L31.7,20.41a1.76,1.76,0,0,0-1.64,0l-3.83,2.26-2.6,1.43-3.75,2.26a1.78,1.78,0,0,1-1.65,0l-2.94-1.78a1.68,1.68,0,0,1-.82-1.43V19.73a1.73,1.73,0,0,1,.82-1.44l2.94-1.71a1.78,1.78,0,0,1,1.65,0l2.93,1.78a1.65,1.65,0,0,1,.82,1.43v2.26l2.6-1.5V18.22a1.65,1.65,0,0,0-.82-1.43L20,13.57a1.55,1.55,0,0,0-.36-.13h-.93a1.55,1.55,0,0,0-.36.13l-5.6,3.29a1.46,1.46,0,0,0-.82,1.36V13.44h6.78a1.64,1.64,0,0,1,.93,0H38.13Z" transform="translate(0.5 0.5)" style="fill:none;stroke:#11142b;stroke-miterlimit:10"/></svg>