<svg id="Layer_1" data-name="Layer 1" xmlns="http://www.w3.org/2000/svg" viewBox="0 0 51 51"><title>qnt</title><path d="M25,19.12,6.55,20.35s-1.09.18-1,2.18c.14,2.72.4,5.72.4,5.72s-.17,1.22,2.28,1.36h0c2.44.14,17.2.13,17.5-.41Z" transform="translate(0.5 0.5)" style="fill:#11142b"/><path d="M32.28,14.76S23.59,3.18,21.28,4s-6.9,2.45-6.9,2.45L25.07,19Z" transform="translate(0.5 0.5)" style="fill:#11142b"/><path d="M18.29,44.46s-.54.95,1.36,1.22,5,1,6.63-.68,8-11.85,8-11.85l-8.53-3.81Z" transform="translate(0.5 0.5)" style="fill:#11142b"/><path d="M35,8.08a25.64,25.64,0,0,1-2.45,6.68L40,19.52C43.12,11.34,35,8.08,35,8.08Z" transform="translate(0.5 0.5)" style="fill:#11142b"/><path d="M40.63,28.15l-6.23,5,2.89,5.58S38,40.91,40,38.46s2.62-2.8,2.51-4.31S42,29.1,40.63,28.15Z" transform="translate(0.5 0.5)" style="fill:#11142b"/><path d="M44.47,25.9c-.14-1.59-.4-5-.4-5s.14-.81-1.76-1.08C40,19.39,40,19.53,40,19.53l.69,8.58,3.11-.4h0S44.61,27.49,44.47,25.9Z" transform="translate(0.5 0.5)" style="fill:#11142b"/><path d="M25,0A25,25,0,1,0,50,25,25,25,0,0,0,25,0ZM35,8.08s8.12,3.26,5,11.44l-7.45-4.76A25.64,25.64,0,0,0,35,8.08ZM21.28,4c2.31-.82,11,10.76,11,10.76L25.07,19,14.38,6.45S19.11,4.82,21.28,4Zm-13,25.61h0C5.83,29.47,6,28.25,6,28.25s-.26-3-.4-5.72c-.14-2,1-2.18,1-2.18L25,19.12l.81,10.08C25.47,29.74,10.71,29.75,8.27,29.61ZM26.28,45c-1.63,1.63-4.73,1-6.63.68s-1.36-1.22-1.36-1.22l7.45-15.12,8.53,3.81S27.91,43.5,26.28,45ZM40,38.46c-2,2.45-2.71.27-2.71.27L34.4,33.15l6.23-5c1.35,1,1.77,4.49,1.88,6S41.85,36,40,38.46Zm3.8-10.75-3.11.4L40,19.53s0-.14,2.31.29c1.9.27,1.76,1.08,1.76,1.08s.26,3.41.4,5-.72,1.81-.72,1.81Z" transform="translate(0.5 0.5)" style="fill:none;stroke:#11142b;stroke-miterlimit:10"/></svg>