<?xml version="1.0" encoding="utf-8"?>
<!-- Generator: Adobe Illustrator 23.1.0, SVG Export Plug-In . SVG Version: 6.00 Build 0)  -->
<svg version="1.1" id="Layer_1" xmlns="http://www.w3.org/2000/svg" xmlns:xlink="http://www.w3.org/1999/xlink" x="0px" y="0px"
	 viewBox="0 0 50 50" style="enable-background:new 0 0 50 50;" xml:space="preserve">
<style type="text/css">
	.st0{fill:#11142B;}
	.st1{fill:#232944;}
</style>
<title>shib</title>
<path class="st0" d="M18.9,28.9c-1-0.7-2.2-1.2-3.3-1.7c-0.3-0.1-0.6-0.2-0.9-0.2c-0.2,0-0.2,0-0.3,0.1c-0.1,0.2-0.2,0.4-0.2,0.5
	c0,0.4,0,0.9,0,1.3v0.2l0.2,0.2c0.4,0.4,0.8,0.7,1.3,0.9c1.2,0.6,2.5,0.9,3.8,1.1c0.4,0,0.8,0,1.2,0c0.2,0,0.3-0.1,0.4-0.2l0,0
	c0-0.3-0.1-0.6-0.3-0.8C20.3,29.7,19.6,29.2,18.9,28.9z"/>
<path class="st0" d="M15,18.1c0.6-0.5,1.3-0.9,2-1.2c-4.3-4.8-7-5-7-5c-0.3,0.4-0.5,0.9-0.6,1.4c-0.6,3.4,1.8,9.2,1.8,9.2
	C12.1,20.8,13.5,19.3,15,18.1L15,18.1z"/>
<path class="st0" d="M35.7,27c-0.2,0-0.3,0-0.5,0c-0.9,0.2-1.7,0.5-2.5,1c-0.6,0.4-2,1.2-2.3,1.4c-0.6,0.3-1,0.9-1.2,1.5
	c-0.1,0.2,0,0.3,0.1,0.4c0.7,0.1,1.4,0.1,2.1-0.1c1.4-0.2,2.8-0.7,4-1.5c0.2-0.2,0.4-0.4,0.6-0.6l0,0c0-0.4,0-0.9,0-1.3
	C35.9,27.4,35.8,27.1,35.7,27z"/>
<path class="st0" d="M40.3,13.2c-0.1-0.5-0.3-1-0.6-1.4c0,0-2.6,0.3-6.7,5c0.7,0.3,1.3,0.8,1.9,1.2l0,0c1.5,1.2,2.8,2.7,3.8,4.4
	C38.6,22.4,40.9,16.6,40.3,13.2z"/>
<path class="st0" d="M18.6,16.2"/>
<path class="st0" d="M34.4,12.8c3.9-3.8,6.8-3.6,6.8-3.6c1.7,1.3,1.1,5.8,0.3,9.6c-0.4,2-1,3.9-1.6,5.8l0,0c0,0.1,0.1,0.2,0.1,0.3
	c1.3,2.3,2.2,5,2.4,7.7v1.4c-3.5-0.3-7.1,0.7-9.8,3c0,0-1.3-5.9-7.3-5.9S17,37,17,37c-2.5-2.5-6-3.7-9.5-3.1V34
	c-0.1,0.6,0,1.3,0.1,1.9c0.5,1.8,1.9,3.8,4.2,5.7c3.7,3.2,8.8,5.4,12.6,5.7c4,0.3,9.9-2.1,13.8-5.5l0,0l3.4-4.3l0,0
	c0.3-0.7,0.6-1.5,0.7-2.3c0-0.4,0-0.8,0-1.1v-0.6c0-0.3,0-0.6-0.1-0.9c-0.2-2.7-0.9-5.4-2.3-7.8c0-0.1-0.1-0.2-0.1-0.3 M39.9,24.6
	c0.2-0.6,1-3,1.6-5.8l0,0l0.1,0.1c0.2,0.2,0.6,0.9,0.8,1.2c4.4,7.2,3.6,16.3-1.8,22.7c-0.8,1-1.8,1.9-2.8,2.7
	c-2.3,1.9-5,3.2-7.9,3.9C28.5,49.8,27,50,25.5,50C39.3,49.7,50.3,38.3,50,24.5S38.3-0.3,24.5,0S-0.3,11.7,0,25.5
	C0.3,38.9,11.1,49.7,24.5,50c-1.5,0-2.9-0.2-4.4-0.6c-2.9-0.7-5.6-2-7.9-3.9c-1-0.8-1.9-1.7-2.7-2.7C5,37.6,3.7,30.4,5.9,23.9
	c0.4-1.2,1-2.4,1.6-3.5C7.8,20,8,19.6,8.4,19.1l0,0c-0.9-3.9-1.5-8.6,0.3-9.9c0,0,3-0.2,7,3.6c5.2-2.7,11.3-3,16.8-0.9
	c0.6,0.2,1.2,0.5,1.7,0.8l0.3,0.1 M26.7,41.8L26.7,41.8c-0.1,0.1-0.1,0.1-0.2,0.1l-0.2-0.2l-0.2-0.1L26,41.8
	c-0.4,0.4-0.4,0.4-0.5,0.4s-0.2,0-0.4-0.3l-0.2-0.3h-0.4l-0.1,0.2l-0.1,0.2h-0.1l-0.3-0.1l-0.2-0.1l0,0v-0.4H27v0.2
	C27,41.6,27,41.6,26.7,41.8L26.7,41.8z M29.9,40.7l-0.2,0.7h-0.4l-0.2,0.4L29,42l-0.3,0.7v0.1l0,0l-0.1-0.2l-0.1-0.2v-1.8l0,0
	c-0.1,0-0.9,0.1-1.2,0.2c-0.7,0.1-1.4,0.1-2.1,0.1c-0.7,0-1.4-0.1-2.2-0.2h-0.4v1.8l-0.1,0.2l-0.1,0.2l0,0c-0.1-0.1-0.2-0.2-0.2-0.4
	c-0.2-0.3-0.3-0.7-0.4-1v-0.2h-0.4V41c0-0.1,0-0.3-0.1-0.4v-0.2l-0.2-0.2L21,40.1c0,0,0-0.1,0-0.1l0,0h1.6v0.2h2.1l0.2-0.3l0.2-0.3
	h0.3v-1.3L25,38.1c-0.2-0.1-0.4-0.2-0.6-0.3c-0.6-0.3-1.1-0.8-1.4-1.5c-0.1-0.3-0.1-0.5-0.1-0.8c-0.1-0.3-0.1-0.5,0-0.8
	c0.1-0.3,0.3-0.6,0.6-0.6c0.6,0,1.3,0,1.9,0h1.8l0.2,0.1l0,0c0.2,0.1,0.3,0.2,0.5,0.4c0.2,0.2,0.2,0.5,0.2,0.7c0,0.4,0,0.8-0.1,1.2
	c-0.1,0.3-0.2,0.5-0.4,0.7c-0.4,0.5-0.9,0.8-1.4,1l-0.1,0.1v0.7l0,0l0.1,0.7h0.1l0.2,0.3l0.2,0.3h1.8c0.1,0,0.1,0,0.1-0.1V40h0.7
	c0.2,0,0.5,0,0.7,0l0,0C30,40.2,29.9,40.4,29.9,40.7L29.9,40.7z"/>
<path class="st0" d="M18.6,16.2L18.6,16.2c-0.9-1.2-1.9-2.3-3-3.4l0,0C16.7,13.8,17.7,15,18.6,16.2z"/>
<path class="st0" d="M18.8,16.1"/>
<path class="st1" d="M24.5,50"/>
<path class="st0" d="M9.9,25c-1.4,2.8-2.2,5.8-2.4,8.9l0,0C7.7,30.8,8.5,27.8,9.9,25c0,0,0.1-0.1,0.1-0.1c-0.3-0.8-1-3.1-1.6-5.7
	l0,0c0.4,1.9,1,3.8,1.7,5.7L9.9,25z"/>
<path class="st0" d="M29.3,31.3c0.7,0.1,1.4,0.1,2.1,0c1.4-0.2,2.8-0.7,4-1.5c0.2-0.2,0.4-0.4,0.6-0.6c0-0.4,0-0.9,0-1.3
	c0-0.4-0.2-0.7-0.3-0.8c-0.2,0-0.3,0-0.5,0c-0.9,0.2-1.7,0.5-2.5,1c-0.6,0.4-2,1.2-2.3,1.4c-0.6,0.3-1,0.9-1.2,1.5
	C29.1,31.2,29.1,31.2,29.3,31.3z"/>
<path class="st0" d="M14.2,29.2l0.2,0.2c0.4,0.4,0.8,0.7,1.3,0.9c1.2,0.6,2.5,0.9,3.8,1.1c0.4,0,0.8,0,1.2,0c0.2,0,0.3-0.1,0.4-0.2
	l0,0c0-0.3-0.1-0.6-0.3-0.8c-0.5-0.6-1.2-1.1-1.9-1.5c-1-0.7-2.2-1.2-3.3-1.7C15.3,27.1,15,27,14.7,27c-0.2,0-0.2,0-0.3,0.1
	c-0.1,0.2-0.2,0.4-0.2,0.5c0,0.4,0,0.9,0,1.3L14.2,29.2z"/>
<path class="st0" d="M39.9,40.1c0.3-0.4,0.7-0.8,0.9-1.2l0,0l0,0l0,0c0-0.1,0.1-0.1,0.1-0.1c0.1-0.2,0.5-0.8,0.5-0.9l0,0
	c-0.1,0.2-0.4,0.8-0.5,0.9c0,0-0.1,0.1-0.1,0.1l0,0C40.6,39.2,40.3,39.6,39.9,40.1c-0.5,0.5-1,1.1-1.6,1.6l0,0
	C38.9,41.2,39.4,40.7,39.9,40.1z"/>
<path class="st0" d="M24.1,41.8l0.1,0l0.1-0.2l0.1-0.2h0.4l0.2,0.3c0.2,0.3,0.3,0.4,0.4,0.3s0.1,0,0.5-0.4l0.2-0.2l0.2,0.1l0.2,0.2
	c0.1,0,0.2,0,0.2-0.1l0,0c0.3-0.2,0.3-0.2,0.3-0.3v-0.2h-3.4v0.4l0.2,0.1C23.9,41.7,24,41.8,24.1,41.8z"/>
<path class="st0" d="M40.3,13.2c-0.5-0.1-2.8-0.1-5.4,4.8l0,0c-0.6-0.5-1.2-0.9-1.9-1.3c4.2-4.8,6.7-5,6.7-5
	C40,12.2,40.2,12.7,40.3,13.2z"/>
<path class="st0" d="M38.7,22.5c-1-1.7-2.2-3.2-3.8-4.4c2.6-4.9,4.9-4.9,5.4-4.8C40.9,16.6,38.7,22.5,38.7,22.5z M40.4,13.2
	L40.4,13.2z"/>
<path class="st0" d="M17,16.8c-0.7,0.3-1.4,0.8-2,1.2l0,0c-2.7-4.9-5.1-4.9-5.6-4.8c0.1-0.5,0.3-1,0.6-1.4C10,11.8,12.7,12,17,16.8z
	"/>
<path class="st0" d="M15,18.1c-1.6,1.2-2.9,2.7-3.9,4.4c0,0-2.3-5.9-1.8-9.2C9.9,13.2,12.3,13.1,15,18.1z M9.4,13.2L9.4,13.2z"/>
<path class="st0" d="M32.3,25.7c0,0-2,0.1-1.8-1.5c0.2-1.1,1.2-1.8,2.3-1.7c0.4,0.1,2.2,0.7,1.9,2s-0.8,1.1-1,1.1
	C33.2,25.8,32.8,25.8,32.3,25.7z M17.4,25.7c0,0-2,0.1-1.8-1.5c0.2-1.1,1.2-1.9,2.3-1.7c0.4,0.1,2.2,0.7,1.9,2s-0.8,1.1-1,1.1
	C18.4,25.8,17.9,25.8,17.4,25.7z"/>
</svg>
