<svg id="Layer_1" data-name="Layer 1" xmlns="http://www.w3.org/2000/svg" viewBox="0 0 51 51"><title>tether</title><circle cx="25.5" cy="25.5" r="25" style="fill:none;stroke:#11142b;stroke-miterlimit:10"/><path d="M28,27.16h0c-.17,0-1.06.07-3,.07-1.58,0-2.69-.05-3.08-.07h0c-6.08-.26-10.61-1.32-10.61-2.59S15.81,22.25,21.89,22v4.13c.4,0,1.53.1,3.11.1,1.88,0,2.83-.08,3-.1V22c6.07.27,10.59,1.33,10.59,2.6S34.07,26.9,28,27.16m0-5.6v-3.7h8.46V12.22h-23v5.63h8.46v3.7c-6.88.31-12,1.68-12,3.31s5.17,3,12.05,3.31V40H28V28.16c6.87-.31,12-1.67,12-3.3s-5.16-3-12-3.31" transform="translate(0.5 0.5)" style="fill:#11142b;fill-rule:evenodd"/></svg>