<svg id="Layer_1" data-name="Layer 1" xmlns="http://www.w3.org/2000/svg" viewBox="0 0 26.57 31.25"><title>trx</title><path d="M38.66,19.16,34.77,16.4a.31.31,0,0,0-.09-.07,1.73,1.73,0,0,0-.51-.29h0L23.67,13.45l-9.35-2.31-.25-.07a2.19,2.19,0,0,0-1-.12.52.52,0,0,0-.26.1l-.09.07a1,1,0,0,0-.25.4l0,.06v.33l0,.06c2,5.6,4,11.28,5.94,16.78C20,33,21.52,37.37,23,41.67a.78.78,0,0,0,.7.52h.07a.82.82,0,0,0,.72-.4l5.72-8.46,4.18-6.18,1.71-2.54c.94-1.39,1.91-2.82,2.87-4.22l.05-.07v-.09a1.12,1.12,0,0,0-.39-1.06M32,22.25l-4.1,2.17,2.41-2.63c1-1.1,2-2.23,3.08-3.34l0,0a3.52,3.52,0,0,1,.31-.35c.08-.08.17-.16.25-.25L35.54,19l1.15.82Q34.32,21,32,22.25m-3.45-.35-3.16,3.45q-3.09-3.81-6.2-7.59l-2.78-3.39h0c-.21-.24-.41-.5-.61-.75l-.4-.5c.83.22,1.68.42,2.51.62l2.23.55,12.57,3.1L28.52,21.9M24.88,36.17c.08-.77.17-1.56.24-2.34.07-.62.13-1.26.2-1.87.1-1,.21-2,.3-3l0-.17c.07-.63.14-1.28.19-1.94a2.06,2.06,0,0,1,.26-.12l.32-.16,5-2.65,5.08-2.69q-2.31,3.39-4.6,6.8L28,33.88l-1.57,2.33c-.58.85-1.17,1.72-1.75,2.59.07-.88.16-1.76.25-2.63M14.82,14.84c-.09-.27-.2-.54-.28-.79l5.82,7.11c1,1.21,2,2.41,3,3.63.2.22.39.47.58.7s.49.61.76.91c-.09.76-.16,1.52-.24,2.25-.05.51-.1,1-.16,1.55h0c0,.33-.07.66-.1,1L24,32.65v.05c-.13,1.48-.29,3-.44,4.42-.06.6-.12,1.22-.19,1.83a3,3,0,0,0-.11-.32c-.11-.3-.22-.6-.32-.9l-.77-2.18L14.82,14.84" transform="translate(-12.5 -10.94)" style="fill:#11142b"/></svg>