<svg id="Layer_1" data-name="Layer 1" xmlns="http://www.w3.org/2000/svg" viewBox="0 0 37.59 36.05"><title>usdc</title><path d="M31.88,29c0-3.65-2.19-4.9-6.57-5.42-3.12-.42-3.75-1.25-3.75-2.71s1-2.4,3.13-2.4c1.87,0,2.91.63,3.44,2.19a.77.77,0,0,0,.72.52h1.67a.71.71,0,0,0,.73-.69v-.14A5.21,5.21,0,0,0,26.56,16v-2.5c0-.42-.31-.73-.83-.83H24.17c-.42,0-.73.31-.84.83v2.4c-3.12.42-5.1,2.5-5.1,5.1,0,3.44,2.09,4.79,6.46,5.31,2.92.53,3.86,1.15,3.86,2.82S27.09,32,25.11,32c-2.71,0-3.65-1.15-4-2.71a.76.76,0,0,0-.73-.62H18.65a.71.71,0,0,0-.73.69v.14c.41,2.6,2.08,4.48,5.52,5V37c0,.41.31.73.83.83h1.56c.42,0,.73-.31.84-.83v-2.5C29.79,34,31.88,31.77,31.88,29Z" transform="translate(-6.2 -7.28)" style="fill:#222744"/><path d="M19.69,39.9a15.6,15.6,0,0,1,0-29.28,1,1,0,0,0,.62-1V8.12a.78.78,0,0,0-.62-.83.62.62,0,0,0-.42.1,18.74,18.74,0,0,0,0,35.73.65.65,0,0,0,.87-.23.62.62,0,0,0,.07-.19c.1-.1.1-.21.1-.42V40.83A1.38,1.38,0,0,0,19.69,39.9Zm11-32.5a.63.63,0,0,0-.87.23,1,1,0,0,0-.07.18c-.1.1-.1.21-.1.42V9.69a1.39,1.39,0,0,0,.63,1,15.59,15.59,0,0,1,0,29.27,1.06,1.06,0,0,0-.63,1V42.5a.78.78,0,0,0,.63.83.55.55,0,0,0,.41-.1,18.82,18.82,0,0,0,0-35.83Z" transform="translate(-6.2 -7.28)" style="fill:#222744"/></svg>