<svg id="Layer_1" data-name="Layer 1" xmlns="http://www.w3.org/2000/svg" viewBox="0 0 50 50"><title>usdt</title><path d="M25,0A25,25,0,1,0,50,25,25,25,0,0,0,25,0Zm3,28.16V40H21.89V28.17c-6.88-.32-12-1.68-12-3.31s5.17-3,12.05-3.31v-3.7H13.43V12.22h23v5.64H28v3.69c6.87.32,12,1.68,12,3.31S34.87,27.85,28,28.16Z" style="fill:#fff;fill-rule:evenodd"/><path d="M28,22v4.13c-.17,0-1.12.1-3,.1-1.57,0-2.7-.07-3.1-.1V22c-6.08.27-10.61,1.33-10.61,2.59s4.53,2.33,10.61,2.59c.39,0,1.5.07,3.08.07,2,0,2.86-.06,3-.07h0c6.07-.26,10.59-1.32,10.59-2.58S34.07,22.26,28,22Z" style="fill:#fff;fill-rule:evenodd"/></svg>