<?xml version="1.0" encoding="utf-8"?>
<!-- Generator: Adobe Illustrator 27.0.0, SVG Export Plug-In . SVG Version: 6.00 Build 0)  -->
<svg version="1.1" id="Layer_1" xmlns="http://www.w3.org/2000/svg" xmlns:xlink="http://www.w3.org/1999/xlink" x="0px" y="0px"
	 viewBox="0 0 27 27" style="enable-background:new 0 0 27 27;" xml:space="preserve">
<style type="text/css">
	.st0{fill:#BFA38A;}
</style>
<path class="st0" d="M13.3,0c-1.7,0-3.5,0.3-5.1,1C6.6,1.7,5.1,2.7,3.9,3.9C1.4,6.4,0,9.8,0,13.3C0,19.2,3.8,24.2,9.1,26
	c0.7,0.1,0.9-0.3,0.9-0.7c0-0.3,0-1.1,0-2.3c-3.7,0.8-4.5-1.8-4.5-1.8c-0.6-1.5-1.5-2-1.5-2c-1.2-0.8,0.1-0.8,0.1-0.8
	c1.3,0.1,2,1.4,2,1.4c1.2,2,3.1,1.4,3.9,1.1c0.1-0.9,0.5-1.5,0.8-1.8c-3-0.3-6.1-1.5-6.1-6.6c0-1.5,0.5-2.7,1.4-3.6
	C6.1,8.7,5.6,7.3,6.3,5.5c0,0,1.1-0.4,3.7,1.4c1.1-0.3,2.2-0.4,3.3-0.4s2.3,0.1,3.3,0.4c2.5-1.7,3.7-1.4,3.7-1.4
	c0.7,1.8,0.3,3.2,0.1,3.5c0.9,0.9,1.4,2.1,1.4,3.6c0,5.1-3.1,6.2-6.1,6.5c0.5,0.4,0.9,1.2,0.9,2.5v3.7c0,0.4,0.2,0.8,0.9,0.7
	c5.3-1.8,9.1-6.8,9.1-12.7c0-1.7-0.3-3.5-1-5.1C25,6.6,24,5.1,22.7,3.9C21.5,2.7,20,1.7,18.4,1C16.8,0.3,15.1,0,13.3,0z"/>
</svg>
