<?xml version="1.0" encoding="utf-8"?>
<!-- Generator: Adobe Illustrator 27.0.0, SVG Export Plug-In . SVG Version: 6.00 Build 0)  -->
<svg version="1.1" id="Layer_1" xmlns="http://www.w3.org/2000/svg" xmlns:xlink="http://www.w3.org/1999/xlink" x="0px" y="0px"
	 viewBox="0 0 27 31" style="enable-background:new 0 0 27 31;" xml:space="preserve">
<style type="text/css">
	.st0{fill-rule:evenodd;clip-rule:evenodd;fill:#BFA38A;}
</style>
<path class="st0" d="M26.7,15.5c0,8.4-6,15.3-13.3,15.3C6,30.8,0,24,0,15.5C0,7.1,6,0.3,13.3,0.3C20.7,0.3,26.7,7.1,26.7,15.5z
	 M13.8,11.5c-1.3,0.6-3.9,1.9-7.8,3.8c-0.6,0.3-1,0.6-1,0.8c-0.1,0.5,0.5,0.6,1.1,0.9c0.1,0,0.2,0.1,0.3,0.1
	c0.7,0.3,1.6,0.6,2.1,0.6c0.4,0,0.9-0.2,1.4-0.6c3.6-2.8,5.5-4.2,5.6-4.3c0.1,0,0.2,0,0.3,0C16,13,16,13.2,16,13.2
	c-0.1,0.2-2,2.4-3.1,3.5c-0.3,0.3-0.5,0.6-0.6,0.6c-0.1,0.1-0.2,0.2-0.3,0.4c-0.6,0.7-1.1,1.2,0,2.1c0.5,0.4,1,0.8,1.4,1.1
	c0.5,0.4,0.9,0.7,1.6,1.2c0.2,0.1,0.3,0.2,0.4,0.4c0.6,0.5,1,0.9,1.7,0.8c0.4,0,0.7-0.4,0.9-1.6c0.4-2.7,1.3-8.6,1.5-11
	c0-0.2,0-0.5,0-0.6c0-0.1-0.1-0.3-0.2-0.4c-0.2-0.1-0.4-0.2-0.5-0.2C18.3,9.5,17.5,9.8,13.8,11.5z"/>
</svg>
