<?xml version="1.0" encoding="utf-8"?>
<!-- Generator: Adobe Illustrator 27.0.0, SVG Export Plug-In . SVG Version: 6.00 Build 0)  -->
<svg version="1.1" id="Layer_1" xmlns="http://www.w3.org/2000/svg" xmlns:xlink="http://www.w3.org/1999/xlink" x="0px" y="0px"
	 viewBox="0 0 24 20" style="enable-background:new 0 0 24 20;" xml:space="preserve">
<style type="text/css">
	.st0{fill:#BFA38A;}
</style>
<path class="st0" d="M24,2.4c-0.9,0.4-1.8,0.7-2.8,0.8c1-0.6,1.8-1.6,2.2-2.8c-1,0.6-2,1-3.1,1.2C19.3,0.6,18,0,16.6,0
	c-2.7,0-4.9,2.3-4.9,5.1c0,0.4,0,0.8,0.1,1.1C7.7,6,4.1,4,1.7,0.9C1.2,1.7,1,2.5,1,3.5c0,1.8,0.9,3.3,2.2,4.2C2.4,7.6,1.6,7.4,1,7
	v0.1c0,2.4,1.7,4.5,3.9,5c-0.4,0.1-0.8,0.2-1.3,0.2c-0.3,0-0.6,0-0.9-0.1c0.6,2,2.4,3.5,4.6,3.5c-1.7,1.4-3.8,2.2-6.1,2.2
	c-0.4,0-0.8,0-1.2-0.1C2.2,19.2,4.8,20,7.5,20c9.1,0,14-7.7,14-14.4c0-0.2,0-0.4,0-0.7C22.5,4.3,23.3,3.4,24,2.4L24,2.4z"/>
</svg>
