<svg width="25" height="30" viewBox="0 0 25 30" fill="none" xmlns="http://www.w3.org/2000/svg">
<path d="M20.9581 5.10114C18.6527 2.45209 15.5824 0.995117 12.3196 0.995117C5.5848 0.995117 0.104543 7.27715 0.104543 14.9972C0.104543 17.4634 0.665775 19.8728 1.73321 21.9983L0 29.2516L6.47617 27.3027C8.25891 28.4191 10.2672 29.0057 12.3141 29.0057H12.3196C19.0489 29.0057 24.6502 22.7236 24.6502 15.0035C24.6502 11.2633 23.2636 7.75019 20.9581 5.10114ZM12.3196 26.6467C10.4928 26.6467 8.70459 26.0854 7.14745 25.0258L6.7788 24.7735L2.93821 25.9277L3.96163 21.6325L3.71953 21.191C2.70161 19.3366 2.16789 17.1985 2.16789 14.9972C2.16789 8.58275 6.72377 3.36034 12.3251 3.36034C15.0377 3.36034 17.5853 4.57133 19.5 6.77257C21.4148 8.9738 22.5923 11.8941 22.5868 15.0035C22.5868 21.4243 17.9154 26.6467 12.3196 26.6467ZM17.8879 17.9301C17.5853 17.7535 16.0831 16.9083 15.8025 16.7948C15.5219 16.675 15.3183 16.6182 15.1147 16.9714C14.9112 17.3246 14.3279 18.1067 14.1463 18.3464C13.9703 18.5798 13.7887 18.6113 13.4861 18.4347C11.6923 17.4066 10.5148 16.5993 9.33185 14.2719C9.01822 13.6538 9.64548 13.6979 10.2287 12.3608C10.3278 12.1274 10.2782 11.9256 10.2012 11.749C10.1242 11.5724 9.51342 9.85051 9.26032 9.15041C9.01272 8.46922 8.75961 8.56383 8.57254 8.55122C8.39646 8.5386 8.19288 8.5386 7.9893 8.5386C7.78571 8.5386 7.45557 8.6269 7.17496 8.9738C6.89434 9.32701 6.10752 10.1722 6.10752 11.8941C6.10752 13.6159 7.20247 15.2811 7.35103 15.5144C7.5051 15.7478 9.50242 19.2799 12.5672 20.7999C14.504 21.7586 15.2633 21.8406 16.2317 21.6766C16.8204 21.5757 18.0364 20.8315 18.2895 20.0115C18.5426 19.1916 18.5427 18.4915 18.4656 18.3464C18.3941 18.1887 18.1905 18.1004 17.8879 17.9301Z" fill="white"/>
</svg>
