<?xml version="1.0" encoding="utf-8"?>
<!-- Generator: Adobe Illustrator 27.0.0, SVG Export Plug-In . SVG Version: 6.00 Build 0)  -->
<svg version="1.1" id="Layer_1" xmlns="http://www.w3.org/2000/svg" xmlns:xlink="http://www.w3.org/1999/xlink" x="0px" y="0px"
	 viewBox="0 0 27 22" style="enable-background:new 0 0 27 22;" xml:space="preserve">
<style type="text/css">
	.st0{fill:#BFA38A;}
</style>
<path class="st0" d="M26.1,3.9c-0.1-0.6-0.4-1.2-0.8-1.6c-0.4-0.4-0.9-0.8-1.5-0.9c-2.1-0.6-10.4-0.6-10.4-0.6
	c-3.5,0-7,0.2-10.4,0.6c-0.6,0.2-1.1,0.5-1.5,1s-0.7,1-0.9,1.6C0.2,6.2,0,8.6,0,10.9c0,2.3,0.2,4.7,0.5,7c0.2,0.6,0.4,1.2,0.9,1.6
	c0.4,0.4,0.9,0.8,1.5,0.9c2.1,0.6,10.4,0.6,10.4,0.6c3.5,0,7-0.2,10.4-0.6c0.6-0.2,1.1-0.5,1.5-0.9c0.4-0.4,0.7-1,0.8-1.6
	c0.4-2.3,0.6-4.6,0.6-7C26.7,8.6,26.5,6.2,26.1,3.9z M10.7,15.3V6.5l7,4.4L10.7,15.3z"/>
</svg>
